<?xml version="1.0" encoding="utf-8"?>
<!-- Generator: Adobe Illustrator 16.0.0, SVG Export Plug-In . SVG Version: 6.00 Build 0)  -->
<!DOCTYPE svg PUBLIC "-//W3C//DTD SVG 1.1//EN" "http://www.w3.org/Graphics/SVG/1.1/DTD/svg11.dtd">
<svg version="1.1" id="Layer_1" xmlns="http://www.w3.org/2000/svg" xmlns:xlink="http://www.w3.org/1999/xlink" x="0px" y="0px"
	 width="433.333px" height="200px" viewBox="0 0 433.333 200" enable-background="new 0 0 433.333 200" xml:space="preserve">
<g>
	<path fill-rule="evenodd" clip-rule="evenodd" fill="#DAE5F5" d="M179,167.318c0-0.664-0.059-1.334,0.012-1.99
		c0.148-1.361-0.093-2.102-1.784-2.051c-4.146,0.123-8.301-0.041-12.448,0.08c-1.679,0.051-1.978-0.67-1.78-2.039
		s-0.102-2.09-1.78-2.041c-4.146,0.123-8.301-0.043-12.448,0.08c-1.691,0.051-1.933-0.688-1.784-2.049
		c0.071-0.656,0.012-1.326,0.012-1.99c7.175-3.902,14.446-7.359,22.975-4.965c0.498,0.178,0.937,0.467,1.31,0.84
		c0.456,0.717,0.405,1.561,0.589,2.352c0.391,1.678-3.187,2.812-1.106,3.98c2.047,1.148,4.942,0.959,6.928-1.117
		c2.861-2.988,6.057-2.99,9.526-1.322c0.208,0.264,0.532,0.611,0.449,0.859c-1.174,3.502-1.699,6.449,3.309,7.484
		c1.319,0.273,1.155,2.541,0.02,3.889C187,167.318,183,167.318,179,167.318z"/>
	<path fill-rule="evenodd" clip-rule="evenodd" fill="#FFFFFF" d="M223,167.318c-1.754-2.697-0.768-4.371,2.09-5.053
		c2.086-0.496,4.26-0.645,5.35-2.914c0.396-0.422,0.861-0.729,1.397-0.943c3.778-0.668,7.545-1.158,11.192,0.594
		c1.988,3.26,5.334,2.641,8.384,2.998c3.145,0.367,5.782,1.264,3.587,5.318"/>
	<path fill-rule="evenodd" clip-rule="evenodd" fill="#DBE5F5" d="M255,167.318c0-0.664-0.059-1.334,0.012-1.99
		c0.147-1.357-0.086-2.135-1.782-2.049c-2.813,0.143-5.646-0.064-8.459,0.078c-1.696,0.084-1.93-0.691-1.782-2.049
		c0.07-0.656,0.012-1.326,0.012-1.99c0.148-0.168,0.297-0.336,0.442-0.508c1.835-0.672,2.501-2.408,3.505-3.852
		c0.426-0.273,0.884-0.445,1.377-0.545c3.753,0.523,7.133,2.814,9.844,4.658c4.016,2.73,7.805,2.742,11.977,2.881
		c1.474,0.049,2.963,0.027,4.307,0.795c0.184,0.188,0.366,0.379,0.549,0.57c0,1.332,0,2.666,0,4
		C268.334,167.318,261.667,167.318,255,167.318z"/>
	<path fill-rule="evenodd" clip-rule="evenodd" fill="#DBE5F5" d="M231,159.318c0,0.662-0.058,1.332,0.012,1.986
		c0.144,1.352-0.078,2.266-1.777,2.033c-0.812-0.111-1.654-0.023-2.482-0.02c-3.692,0.023-3.692,0.023-3.752,4
		c-6.666,0-13.333,0-20,0c-1.051-1.43-1.153-2.846,0.043-4.252c1.86-1.379,4.048-1.201,6.173-1.244
		c3.598-0.07,6.824-0.238,10.15-2.676C222.651,156.74,227.145,156.947,231,159.318z"/>
	<path fill-rule="evenodd" clip-rule="evenodd" fill="#E6F0FA" d="M231,51.317c5.334,0,10.666,0,16,0
		c1.041,1.37,1.154,2.754,0.062,4.157c-4.836,2.304-9.87,1.214-14.865,0.859c-0.575-0.188-1.077-0.498-1.512-0.917
		C229.834,53.979,229.969,52.613,231,51.317z"/>
	<path fill-rule="evenodd" clip-rule="evenodd" fill="#DBE5F5" d="M35,139.318c-4,0-8,0-12,0c0-1.334,0-2.668,0-4c4,0,8,0,12,0
		C36.059,136.65,36.059,137.984,35,139.318z"/>
	<path fill-rule="evenodd" clip-rule="evenodd" fill="#DBE5F5" d="M399,135.318c-2.157,0-4.321-0.109-6.469,0.031
		c-2.035,0.133-1.443-1.238-1.533-2.281c-0.097-1.121,0.041-1.875,1.533-1.783c2.148,0.129,4.312,0.033,6.469,0.033
		C399,132.65,399,133.984,399,135.318z"/>
	<path fill-rule="evenodd" clip-rule="evenodd" fill="#DAE5F5" d="M247,55.317c0-1.333,0-2.667,0-4c2.666,0,5.334,0,8,0
		c0,1.333,0,2.667,0,4c-0.188,0.184-0.373,0.367-0.559,0.554c-2.294,0.941-4.59,0.944-6.887,0.006
		C247.37,55.692,247.185,55.505,247,55.317z"/>
	<path fill-rule="evenodd" clip-rule="evenodd" fill="#DAE5F5" d="M231,51.317c0,1.333,0,2.667,0,4c-1.334,1.154-2.666,1.148-4,0
		c0-1.333,0-2.667,0-4C228.334,51.317,229.667,51.317,231,51.317z"/>
	<path fill-rule="evenodd" clip-rule="evenodd" fill="#E6F0FA" d="M35,139.318c0-1.334,0-2.668,0-4c1.333,0,2.667,0,4,0
		c1.51-1.158,2.851-2.482,4-4c1.333,0,2.667,0,4,0c0.2,0.137,0.399,0.273,0.603,0.406c3.682,3.016,6.959,3.23,10.451,0.264
		c2.172-1.848,4.088-2.285,5.832,0.143c1.735,2.416,4.604,1.426,6.7,2.615c1.676,2.787,3.319,2.316,4.945-0.068
		c3.21-1.084,5.763-0.359,8.823,1.432c3.347,1.959,6.907,5.66,11.744,2.621c1.391-0.873,2.718,0.307,3.96,1.318
		c3.237,2.631,6.792,2.725,9.85,0.027c2.604-2.297,5.269-2.525,8.303-1.404c0.783,0.588,1.446,1.301,2.029,2.09
		c-0.337-0.982-1.428-1.354-1.854-2.273c-0.716-2.494,0.391-4.02,2.773-4.262c3.917-0.396,7.729-0.938,11.339,2.043
		c2.835,2.34,6.876,2.871,9.98,5.176c1.379,1.025,4.059,1.068,5.252-0.068c3.012-2.867,7.409-2.814,10.375-5.508
		c2.178-1.98,4.397-1.898,5.99,0.408c4.733,6.85,12.157,7.254,18.297,5.074c6.033-2.141,14.369-3.35,15.629-12.381
		c0.199-1.43,1.232-2.336,2.781-2.404c1.783-0.078,2.741,0.92,3.232,2.521c0.48,1.57,0.457,3.326,1.728,4.604
		c1.589,1.596,2.577,3.312,5.655,1.402c3.385-2.1,7.623-1.965,11.426,0.068c1.952,2.635,0.994,4.174-1.815,5.254
		c-4.868,1.871-9.504,4.211-13.941,6.982c-2.917,1.822-6.148,2.033-8.731-0.496c-2.489-2.436-4.609-2.445-6.708,0.121
		c-1.316,1.609-3.696,0.879-4.895,2.535c2.113,0.666,4.287,0.289,6.432,0.346c2.696,0.074,5.329,0.109,7.222,2.535
		c1.008,1.293,2.565,1.422,4.089,1.451c2.495,0.051,5.037-0.293,7.474,0.082c7.189,1.109,12.461-3.23,18.152-6.227
		c1.646-0.865,3.256-1.51,5.002-2.012c2.36-0.68,4.92-2.473,4.639-4.488c-0.343-2.465-2.809-4.256-5.859-4.516
		c-3.576-0.307-7.346,0.945-10.71-1.217c-1.249-3.588,1.495-7.973,5.968-9.287c1.891-0.557,3.994-0.543,5.121-2.559
		c3.02-1.5,2.586-3.131,0.162-4.84c-0.33-0.789-0.678-1.896-0.138-2.367c3.818-3.33,3.153-7.972,3.782-12.234
		c0.176-0.458,0.434-0.873,0.753-1.244c1.478-1.037,3.417-2.148,2.583-4.203c-1.102-2.719-3.174-4.891-5.983-6.015
		c-1.329-0.532-2.945-0.182-4.248-1.03c-1.592-2.741-3.058-2.12-4.456,0.177c-2.987,4.527-9.002,4.305-12.562,7.996
		c-0.63,0.653-1.891,0.402-2.781-0.219c-1.413-1.528-2.807-3.079-4.424-4.406c-3.244-2.412-4.933-7.062-10.12-6.707
		c-2.251,0.154-4.175,0.573-5.561,2.46c-0.541,0.562-1.135,1.066-1.733,1.565c0.985-0.308,1.287-1.432,2.196-1.84
		c0.458-0.193,1.15-0.523,1.389-0.279c3.722,3.789,8.949,2.935,13.406,4.417c1.563,1.656,3.176,3.267,4.841,4.829
		c1.695,5.452,0.68,8.589-4.41,11.764c-3.338,2.082-6.354,1.113-9.592-1.223c-2.983-2.151-6.837-2.999-10.002-5.146
		c-1.3-0.882-3.586-0.906-4.828-0.001c-3.107,2.264-7.016,2.98-9.961,5.174c-2.868,2.139-5.527,2.771-8.783,1.895
		c-0.49-0.201-0.899-0.52-1.225-0.936c-0.258-3.482,2.457-8.307,6.074-8.734c4.089-0.481,6.106-4.672,10.17-4.637
		c0.361,0.003,0.792-0.194,0.776-0.435c-0.043-0.636-0.672-0.722-1.097-0.657c-6.271,0.948-10.359-4.235-15.812-5.591
		c-0.813-1.371-0.663-2.661,0.306-3.885c4.659-2.055,9.199-2.48,13.377,1.104c2.042,1.752,3.847,1.538,5.619-0.398
		c1.562-1.707,3.528-3.015,4.892-4.923c7.688-1.146,15.427-3.566,22.595,2.089c1.85,1.46,4.785,0.957,6.774,2.781
		c1.197,1.098,2.009-0.453,2.861-1.109c1.104-0.853,0.823-1.612,0.342-2.912c-2.907-7.834-9.023-10.664-16.707-11.293
		c-1.486-0.122-2.992-0.18-4.145-1.354c-0.764-1.421-0.587-2.743,0.392-3.985c6.028-2.838,12.289-1.421,18.483-1.019
		c0.425,0.203,0.849,0.44,1.208,0.772c0.581,0.538,1.122,1.115,1.617,1.734c-0.13-0.857-1.038-1.036-1.448-1.654
		c-0.177-0.267-0.409-0.498-0.603-0.772c-0.882-2.478-0.982-4.867,0.742-7.062c1.094-0.975,2.323-1.109,3.655-0.598
		c0.452,0.229,0.829,0.556,1.133,0.96c1.241,2.203,3.383,3.6,5.085,5.374c2.204,2.3,4.572,4.156,1.355,7.326
		c-1.064,1.05-0.163,1.885,0.6,2.444c2.817,2.067,3.948,7.73,9.574,3.906c1.96-1.333,3.454,1.062,3.766,3.279
		c0.279,1.98,0.904,3.704,2.671,1.087c3.155-4.673,8.899-5.052,13.032-8.211c2.748-2.101,7.014-1.15,10.614-0.302
		c0.429,0.224,0.772,0.541,1.041,0.94c0.065,2.336,3.581,6.212,6.286,6.971c0.463,0.13,0.832,0.488,1.188,0.822
		c1.703,3.26,5.665,2.003,8,4c1.152,1.515,2.484,2.849,4,4c1.996,2.335,0.742,6.295,4,8c1.334,0,2.666,0,4,0
		c1.51-1.157,2.852-2.482,4-4c4,0,8,0,12,0c1.148,1.518,2.49,2.843,4,4c1.334,0,2.666,0,4,0c1.703,3.26,5.665,2.003,8,4
		c2.548,2.517,5.158,4.703,5.918,8.766c0.5,2.678,3.232,5.771,6.27,5.527c6.344-0.508,10.366,4.381,15.812,5.707
		c0.938,0.941,1.077,2.064,0.755,3.289c-0.161,0.428-0.417,0.799-0.75,1.111c-1.995,0.594-2.983,2.201-3.882,3.904
		c-0.379,0.268-0.792,0.451-1.241,0.562c-2.907-0.457-5.718-2.785-8.796-0.164c-0.639,0.545-2.046-0.154-2.593-1.02
		c-2.11-3.336-6.737-1.666-9.065-4.674c-0.574-0.742-1.436,0.377-2.039,0.873c-1.844,1.514-4.001,1.58-6.153,1.186
		c-3.15-0.578-4.118-3.07-2.007-5.41c1.738-1.928,5.148-3.643,4.754-5.844c-0.473-2.643-3.841-4.311-5.812-6.518
		c-2.487-2.789-6.819-1.574-9.14-4.517c-2.287,2.433-6.174,1.721-8.35,3.878c-2.782,2.76-5.701,3.014-9.108,2.102
		c-0.431-0.221-0.788-0.527-1.067-0.922c-0.532-1.107-0.71-2.396,0.047-3.292c3.262-3.866-0.117-3.073-2.178-3.206
		c-3.947-0.255-5.492,3.212-7.854,5.286c-1.855,1.629-3.32,3.369-5.774,1.115c-2.019-3.8-1.081-6.789,2.017-9.711
		c4.479-4.224,3.357-6.229-2.354-8.836c-5.504-2.514-10.774-4.438-16.908-3.854c-4.402,0.419-7.362,2.979-9.192,6.976
		c-2.315,5.056-2.934,10.825-5.437,15.428c-2.021,3.715-2.333,6.984-2.441,10.697c-0.022,0.797-0.176,1.871,0.695,2.229
		c0.869,0.355,1.402-0.619,1.989-1.129c6.468-5.625,13.521-9.734,22.542-8.984c1.734,0.145,3.229-0.529,4.428-1.873
		c1.369-1.533,2.961-2.125,4.827-0.771c1.938,2.623,1.739,6.184,4.423,8.688c1.627,1.518,0.27,3.785-2.163,4.402
		c-2.448,0.623-4.972,0.441-7.458,0.365c-9.033-0.27-16.021,3.777-21.972,10.152c-1.314,1.408-2.22,2.387-0.646,4.557
		c2.655,3.664-1.887,4.945-3.093,7.363c-0.278,0.408-0.618,0.764-0.989,1.086c-1.087,0.744-2.061,1.598-3.01,2.537
		c-2.859,2.832-5.153,6.529-9.955,6.551c-1.372,0.006-2.123,1.461-3.051,2.389c-2.992,0-5.984-0.041-8.975,0.023
		c-0.948,0.02-2.15-0.527-2.791,0.354c-0.404,0.557-0.25,1.57-0.217,2.375c0.048,1.193-0.626,1.268-1.557,1.262
		c-4.82-0.029-9.641-0.014-14.461-0.014c-1.704-3.26-5.665-2.004-8-4c-1.15-1.518-2.49-2.844-4-4c-1.333,0-2.667,0-4,0
		c-1.974,0-3.963,0.158-5.916-0.045c-1.886-0.197-2.375,0.533-2.085,2.205c0.267,1.541-0.452,1.926-1.907,1.869
		c-2.792-0.105-5.59-0.02-8.386-0.037c-0.753-0.004-1.793,0.264-1.686-1.045c0.077-0.938-0.473-2.018,0.373-2.777
		c0.285-0.256,0.943-0.242,1.39-0.15c2.286,0.469,2.357-0.92,2.224-2.541c-0.041-0.49-0.006-0.986,0.687-2.096
		c0.929-0.953,0.837-1.045,0.549-0.76c-0.327,0.324-0.601,0.705-0.923,1.039c-0.43,0.445-0.428,0.447,0.018,0.018
		c0.334-0.322,0.679-0.633,0.356-0.297c-5.013,0.617-9.333,0.588-13.652,0.639c-0.948,0.012-2.149-0.516-2.794,0.346
		c-0.408,0.545-0.262,1.564-0.229,2.367c0.049,1.176-0.584,1.303-1.539,1.281c-2.159-0.051-4.32-0.016-6.479-0.016
		c-1.704-3.26-5.665-2.004-8-4c-1.651-3.074-5.168-2.236-7.619-3.633c-0.727-0.58-1.124-1.5-2-1.926
		c0.736,0.967,1.934,1.541,2.373,2.777c0.159,0.855,0.236,1.986-0.392,2.361c-3.474,2.08-7.102,4.039-10.833,5.441
		c-2.95,1.109-6.556,1.182-9.529-1.021c-1.476-2.066-3.603-2.576-5.989-2.613c-2.087-0.033-4.274,0.223-6.011-1.387
		c-1.476-2.066-3.603-2.576-5.989-2.613c-2.087-0.033-4.274,0.223-6.011-1.387c-1.477-2.066-3.603-2.576-5.989-2.613
		c-2.087-0.033-4.274,0.225-6.011-1.387c-1.333,0-2.667,0-4,0c-1.333,1.059-2.667,1.059-4,0c-1.703-3.262-5.667-2-8-4
		c-1.333,0-2.667,0-4,0c-2.667,1.904-5.333,1.904-8,0C43,139.318,39,139.318,35,139.318z"/>
	<path fill-rule="evenodd" clip-rule="evenodd" fill="#DAE5F5" d="M355,139.318c0,0.664,0.061,1.336-0.013,1.992
		c-0.153,1.373,0.118,2.047,1.791,2.068c2.364,0.029,2.308,0.215,2.249,2.5c-0.025,1.025-0.275,1.477-1.375,1.457
		c-2.826-0.053-5.658,0.092-8.477-0.059c-1.721-0.092-2.549,0.281-2.185,2.152c0.294,1.504-0.372,1.947-1.886,1.922
		c-5.318-0.088-10.641,0.053-15.958-0.082c-1.78-0.045-2.493,0.385-2.153,2.186c0.291,1.547-0.437,2.018-1.917,1.887
		c-1.319-0.115-2.681,0.131-3.982-0.061c-1.934-0.285-2.38,0.566-2.094,2.23c0.282,1.637-0.576,1.854-1.979,1.834
		c-5.318-0.07-10.64-0.053-15.959-0.01c-1.276,0.01-2.41,0.025-2.055-1.738c0.447-2.213-0.79-2.48-2.513-2.289
		c-0.492,0.057-0.997,0.01-1.495,0.01c-0.186-0.225-0.371-0.451-0.559-0.674c0.262-4.627,1.304-5.172,7.902-4.152
		c0.516,0.209,0.959,0.533,1.331,0.945c2.364,3.467,6.399,3.561,8.678,1.598c3.376-2.91,7.759-3.182,11.182-5.965
		c3.21-2.611,7.979-0.969,12.06-1.107c2.865-0.098,5.66-0.043,7.361-2.93c2.836-1.361,6.289-1.277,8.55-4.09
		C352.288,137.97,353.92,138.263,355,139.318z"/>
	<path fill-rule="evenodd" clip-rule="evenodd" fill="#DAE5F5" d="M359,123.318c-1.665,0-3.33,0.006-4.994-0.002
		c-2.541-0.014-2.631-0.008-2.965-2.785c-0.143-1.188-0.714-1.234-1.613-1.225c-2.496,0.031-4.994,0.02-7.491,0.008
		c-2.407-0.01-2.497-0.008-2.895-2.854c-0.173-1.238-0.87-1.26-1.679-1.123c-2.045,0.344-2.603-0.553-2.392-2.451
		c0.146-1.316-0.067-2.67,0.054-3.99c0.131-1.423-0.562-1.792-1.736-1.564c-2.206,0.427-2.498-0.781-2.298-2.518
		c0.057-0.492,0.009-0.998,0.009-1.497c0.166,0,0.333,0,0.5,0c2.33,0,4.661,0,6.992,0c1.057,2.192,0.328,4.52,0.475,6.78
		c0.078,1.201,0.696,1.262,1.601,1.23c1.164-0.041,2.331-0.018,3.496-0.008c2.407,0.018,2.45,0.014,2.909,2.852
		c0.127,0.785,0.344,1.174,1.168,1.152c1.165-0.027,2.331-0.018,3.496-0.002c0.986,0.014,2.137-0.248,2.916,0.168
		c0.984,0.523,0.376,1.809,0.422,2.752c0.064,1.322,0.997,1.182,1.734,1.047c2.211-0.398,2.5,0.795,2.3,2.531
		C358.953,122.312,359,122.818,359,123.318z"/>
	<path fill-rule="evenodd" clip-rule="evenodd" fill="#E6F0FA" d="M355,139.318c-0.497,0-0.999,0.043-1.49-0.008
		c-1.694-0.176-2.973,0.035-2.52,2.27c0.35,1.715-0.709,1.811-2.024,1.758c-1.985-0.078-3.978-0.02-5.966-0.02
		c-0.159-0.137-0.318-0.275-0.48-0.408c-0.58-2.053-2.633-2.531-4.014-3.746c-0.231-0.447-0.369-0.91-0.432-1.408
		c0.272-4.271,3.584-3.568,6.283-3.834c3.674-0.363,7.787,1.098,10.643-2.604c1.062-0.982,2.271-1.109,3.592-0.629
		c0.485,0.238,0.847,0.604,1.093,1.084c0.523,1.244,0.573,2.559,0.575,3.883c0.005,1.365-0.295,2.629-1.26,3.662
		C357.667,139.318,356.334,139.318,355,139.318z"/>
	<path fill-rule="evenodd" clip-rule="evenodd" fill="#DBE5F5" d="M295,155.318c0,0.328,0.007,0.656-0.001,0.986
		c-0.073,2.977-0.073,2.979-2.702,3.012c-0.658,0.008-1.315-0.01-1.973,0.004c-0.973,0.021-2.107-0.24-2.879,0.168
		c-0.975,0.518-0.383,1.787-0.418,2.717c-0.048,1.268-0.871,1.113-1.672,1.113c-3.451,0-6.904,0-10.355,0
		c-1.085-1.559-1.393-3.662,0.39-4.258c3.62-1.213,6.536-3.85,10.083-4.844C288.563,153.351,292.044,153.105,295,155.318z"/>
	<path fill-rule="evenodd" clip-rule="evenodd" fill="#DAE5F5" d="M367,127.318c1.66,0,3.322-0.061,4.979,0.021
		c0.949,0.049,2.148-0.525,2.788,0.355c0.402,0.557,0.249,1.57,0.216,2.373c-0.049,1.188,0.617,1.275,1.552,1.264
		c2.987-0.039,5.976-0.01,8.964-0.018c0.648-0.002,1.436-0.143,1.479,0.787c0.044,0.965-0.033,1.953-0.229,2.895
		c-0.039,0.189-0.85,0.307-1.307,0.309c-4.813,0.021-9.627,0.014-14.441,0.014c-1.031-1.26-2.316-2.25-3.509-3.342
		C365.993,130.603,365.542,129.041,367,127.318z"/>
	<path fill-rule="evenodd" clip-rule="evenodd" fill="#E6F0FA" d="M367,127.318c0,0.662,0.055,1.328-0.012,1.984
		c-0.137,1.334,0.072,2.35,1.762,2.006c2.246-0.459,2.423,0.846,2.258,2.521c-0.049,0.49-0.008,0.992-0.008,1.488
		c-2.666,0-5.334,0-8,0c-0.168-0.137-0.335-0.273-0.506-0.408c-0.76-1.59-2.234-2.486-3.494-3.592c-1.059-1.334-1.059-2.668,0-4
		C361.667,125.414,364.334,125.414,367,127.318z"/>
	<path fill-rule="evenodd" clip-rule="evenodd" fill="#DBE5F5" d="M279,83.317c-3.115,0-6.232,0.06-9.346-0.033
		c-1.061-0.031-2.768,0.87-2.69-1.543c0.068-2.142-0.069-2.335,2.333-2.36c1.736-0.019,1.837-0.828,1.705-2.096
		c-0.017-0.162-0.002-0.328-0.002-0.492c0-0.492,0-0.983,0-1.476c1.334-1.217,2.666-0.992,4,0c0,0.662,0.055,1.329-0.012,1.984
		c-0.137,1.335,0.072,2.351,1.762,2.006c2.246-0.458,2.423,0.846,2.258,2.521C278.959,82.32,279,82.821,279,83.317z"/>
	<path fill-rule="evenodd" clip-rule="evenodd" fill="#DAE5F5" d="M368.679,143.318c-1.317,0-2.637-0.045-3.951,0.014
		c-1.134,0.051-1.778-0.096-1.773-1.545c0.009-2.455-0.112-2.461,2.516-2.469c2.47-0.006,4.95,0.133,7.407-0.045
		c1.789-0.129,2.266,0.396,2.188,2.172c-0.066,1.482-0.436,2.025-1.941,1.898C371.651,143.222,370.161,143.318,368.679,143.318z"/>
	<path fill-rule="evenodd" clip-rule="evenodd" fill="#DBE5F5" d="M255,55.317c1.463,0,2.927-0.005,4.391,0.001
		c3.549,0.015,3.549,0.017,3.609,3.999c-0.184,0.182-0.368,0.363-0.551,0.548c-2.264,0.964-4.559,0.833-6.869,0.188
		c-0.498-0.225-0.88-0.576-1.154-1.047C253.867,57.661,254.012,56.423,255,55.317z"/>
	<path fill-rule="evenodd" clip-rule="evenodd" fill="#DAE5F5" d="M331,103.317c-1.463,0-2.927,0.005-4.391-0.001
		c-3.549-0.015-3.549-0.017-3.609-3.999c1.463,0,2.927-0.005,4.391,0.001C330.94,99.333,330.94,99.335,331,103.317z"/>
	<path fill-rule="evenodd" clip-rule="evenodd" fill="#DBE5F5" d="M367,127.318c-2.666,0-5.334,0-8,0c0-1.334,0-2.668,0-4
		c1.463,0,2.927-0.006,4.391,0C366.94,123.333,366.94,123.335,367,127.318z"/>
	<path fill-rule="evenodd" clip-rule="evenodd" fill="#DBE5F5" d="M295,99.317c-3.982-0.062-3.984-0.062-3.999-3.609
		c-0.006-1.464-0.001-2.927-0.001-4.391c3.982,0.062,3.984,0.062,3.999,3.609C295.005,96.391,295,97.854,295,99.317z"/>
	<path fill-rule="evenodd" clip-rule="evenodd" fill="#DAE5F5" d="M287,87.317c-1.463,0-2.927,0.005-4.391-0.001
		c-3.549-0.015-3.549-0.017-3.609-3.999c1.463,0,2.927-0.005,4.391,0.001C286.94,83.333,286.94,83.335,287,87.317z"/>
	<path fill-rule="evenodd" clip-rule="evenodd" fill="#DBE5F5" d="M359,139.318c0-1.334,0-2.668,0-4c1.334-1.059,2.666-1.059,4,0
		c0,1.332,0,2.666,0,4C361.667,139.318,360.334,139.318,359,139.318z"/>
	<path fill-rule="evenodd" clip-rule="evenodd" fill="#DBE5F5" d="M291,91.317c-0.643,0-1.298-0.084-1.924,0.016
		c-1.709,0.272-2.363-0.384-2.092-2.092c0.1-0.626,0.016-1.281,0.016-1.924c0.643,0,1.298,0.084,1.924-0.016
		c1.709-0.272,2.363,0.384,2.092,2.092C290.917,90.02,291,90.675,291,91.317z"/>
	<path fill-rule="evenodd" clip-rule="evenodd" fill="#DBE5F5" d="M267,63.317c0.643,0,1.298,0.084,1.924-0.016
		c1.709-0.272,2.363,0.384,2.092,2.092c-0.1,0.626-0.016,1.281-0.016,1.924c-0.934,0.954-2.056,1.068-3.28,0.743
		c-0.452-0.173-0.828-0.454-1.145-0.82c-0.594-1.127-0.63-2.269-0.08-3.424C266.663,63.649,266.832,63.483,267,63.317z"/>
	<path fill-rule="evenodd" clip-rule="evenodd" fill="#E6F0FA" d="M275,75.317c-1.334,0-2.666,0-4,0
		c-0.965-1.034-1.104-2.192-0.523-3.461c0.173-0.18,0.348-0.359,0.523-0.539c0.643,0,1.298,0.084,1.924-0.016
		c1.709-0.272,2.363,0.384,2.092,2.092C274.917,74.02,275,74.675,275,75.317z"/>
	<path fill-rule="evenodd" clip-rule="evenodd" fill="#E6F0FA" d="M267,67.317c1.334,0,2.666,0,4,0c0,1.333,0,2.667,0,4
		C266.429,72.4,265.881,71.853,267,67.317z"/>
	<path fill-rule="evenodd" clip-rule="evenodd" fill="#DAE5F5" d="M319,99.317c-0.643,0-1.298-0.084-1.924,0.016
		c-1.709,0.272-2.363-0.384-2.092-2.092c0.1-0.626,0.016-1.281,0.016-1.924c0.643,0,1.298,0.084,1.924-0.016
		c1.709-0.272,2.363,0.384,2.092,2.092C318.917,98.02,319,98.675,319,99.317z"/>
	<path fill-rule="evenodd" clip-rule="evenodd" fill="#DBE5F5" d="M303,95.317c0,0.643-0.084,1.298,0.016,1.924
		c0.271,1.708-0.383,2.364-2.092,2.092c-0.626-0.1-1.281-0.016-1.924-0.016c0-0.643,0.084-1.298-0.016-1.924
		c-0.271-1.708,0.383-2.364,2.092-2.092C301.703,95.401,302.358,95.317,303,95.317z"/>
	<path fill-rule="evenodd" clip-rule="evenodd" fill="#DAE5F5" d="M263,59.317c0.643,0,1.298,0.084,1.924-0.016
		c1.709-0.272,2.363,0.384,2.092,2.092c-0.1,0.626-0.016,1.281-0.016,1.924c-1.046,0.977-2.245,1.107-3.555,0.647
		c-0.483-0.229-0.841-0.584-1.08-1.061C261.875,61.586,262.022,60.377,263,59.317z"/>
	<path fill-rule="evenodd" clip-rule="evenodd" fill="#E6F0FA" d="M47,131.318c0-0.662,0.055-1.33-0.012-1.984
		c-0.136-1.336,0.073-2.352,1.762-2.006c2.246,0.457,2.423-0.846,2.257-2.521c-0.048-0.492-0.007-0.992-0.007-1.488
		c1.516-1.152,2.848-2.486,4-4c2.335-1.998,6.296-0.74,8-4c4.662-1.975,9.215-2.529,13.371,1.158c0.926,0.82,2.141,1.727,3.073,1
		c1.501-1.17-0.645-1.725-0.941-2.658c-0.508-1.6-0.409-2.967,0.873-4.082c1.256-1.092,2.515-2.174,3.625-3.418
		c1.121-0.949,2.344-1.091,3.662-0.475c2.153,2.776,5.943,4.463,5.817,8.799c-0.019,0.654,0.691,1.32,1.339,0.619
		c4.431-4.783,6.033,1.023,8.845,2.301c0.396,0.295,0.71,0.658,0.947,1.09c0.869,2.914-0.384,4.436-3.241,4.807
		c-1.853,0.24-3.613,0.564-4.555,2.459c-0.296,0.422-0.673,0.746-1.124,0.99c-1.232,0.479-2.428,0.453-3.57-0.254
		c-2.089-4.184-3.415-0.225-5.051,0.494c-3.042,0.844-5.751,0.734-8.295-1.641c-2.384-2.229-10.396-2.879-12.649-0.699
		c-3.225,3.115-7.887,3.102-11.184,6.113C52.203,133.509,49.196,133.095,47,131.318z"/>
	<path fill-rule="evenodd" clip-rule="evenodd" fill="#DBE5F5" d="M187,83.317c0,0.493-0.034,0.989,0.006,1.479
		c0.133,1.621,0.063,3.003-2.222,2.53c-1.611-0.333-2.049,0.578-1.771,1.947c0.402,1.975-0.626,2.24-2.215,2.06
		c-0.812-0.093-1.643-0.005-2.465-0.02c-0.975-0.018-2.107,0.245-2.883-0.163c-0.979-0.515-0.39-1.785-0.423-2.715
		c-0.045-1.264-0.861-1.12-1.667-1.12c-3.454,0.002-6.907,0.001-10.361,0.001c0-0.164-0.003-0.329,0-0.493
		c0.068-3.48,0.068-3.491,3.196-3.504c3.288-0.013,6.575,0.006,9.862-0.006c2.492-0.008,2.576-0.01,2.901-2.777
		c0.135-1.155,0.663-1.279,1.575-1.229c0.819,0.046,1.643,0.01,2.465,0.01c0.164,0.146,0.328,0.291,0.495,0.433
		c0.625,1.425,1.661,2.438,3.084,3.065C186.722,82.98,186.861,83.149,187,83.317z"/>
	<path fill-rule="evenodd" clip-rule="evenodd" fill="#DBE5F5" d="M83,107.317c0,0.666-0.062,1.339,0.013,1.997
		c0.158,1.381-0.125,2.285-1.799,2.006c-1.624-0.27-2.455,0.094-2.283,2.078c0.124,1.439,0.379,2.207,1.932,1.914
		c1.81-0.344,2.136,0.404,2.225,2.152c0.117,2.322-1.275,1.828-2.526,1.85c-1.165,0.02-2.357-0.154-3.49,0.037
		c-2.005,0.34-2.329-0.654-2.066-2.256c0.276-1.689-0.652-1.836-2.017-1.805c-3.327,0.08-6.658,0.027-9.987,0.027
		c0-0.164-0.003-0.33,0-0.494c0.068-3.48,0.068-3.486,3.196-3.504c1.973-0.012,3.945,0.008,5.917-0.006
		c2.387-0.014,2.473-0.01,2.845-2.833c0.158-1.197,0.779-1.179,1.63-1.171C78.727,107.33,80.864,107.317,83,107.317z"/>
	<path fill-rule="evenodd" clip-rule="evenodd" fill="#DAE5F5" d="M219,59.317c0,2.667,0,5.333,0,8c-6.666,0-13.333,0-20,0
		c0-0.164-0.003-0.329,0-0.493c0.068-3.48,0.068-3.491,3.196-3.504c3.288-0.013,6.575,0.006,9.862-0.006
		c2.492-0.008,2.576-0.01,2.901-2.777c0.136-1.155,0.663-1.279,1.575-1.229C217.355,59.354,218.178,59.317,219,59.317z"/>
	<path fill-rule="evenodd" clip-rule="evenodd" fill="#DBE5F5" d="M107,87.317c0-0.665,0.06-1.336-0.013-1.992
		c-0.151-1.368,0.104-2.083,1.789-2.049c5.314,0.11,10.633,0.027,15.949,0.048c2.195,0.008,2.198,0.04,2.272,2.498
		c0.015,0.498,0.002,0.997,0.002,1.495c-0.221,0.205-0.441,0.411-0.659,0.62c-6.227,1.34-12.455,1.344-18.686,0.007
		C107.436,87.738,107.218,87.527,107,87.317z"/>
	<path fill-rule="evenodd" clip-rule="evenodd" fill="#DAE5F5" d="M139,91.317c1.657,0,3.318-0.058,4.971,0.022
		c0.949,0.046,2.145-0.52,2.787,0.348c0.405,0.548,0.258,1.563,0.225,2.364c-0.049,1.17,0.574,1.344,1.532,1.277
		c0.825-0.057,1.657-0.012,2.485-0.012c0.179,0.206,0.357,0.412,0.538,0.617c-0.108,2.975-3.449,7.653-5.813,8.136
		c-1.031,0.211-2.558,0.093-2.69-0.686c-0.708-4.175-4.809-6.955-4.577-11.452C138.638,91.727,138.819,91.522,139,91.317z"/>
	<path fill-rule="evenodd" clip-rule="evenodd" fill="#DAE5F5" d="M127,87.317c3.272,0,6.545-0.018,9.817,0.007
		c2.1,0.015,2.102,0.043,2.181,2.521c0.016,0.49,0.002,0.981,0.002,1.473c-2.35,1.916-5.129,1.402-7.823,1.394
		c-1.549-0.018-3.075-0.125-4.363-1.142C125.787,90.105,125.936,88.691,127,87.317z"/>
	<path fill-rule="evenodd" clip-rule="evenodd" fill="#E6F0FA" d="M227,55.317c1.334,0,2.666,0,4,0
		c1.072,1.525,1.289,3.232-0.308,4.303c-2.508,1.682-5.196,1.56-7.692-0.303c-1.059-1.333-1.059-2.667,0-4
		C224.334,55.317,225.667,55.317,227,55.317z"/>
	<path fill-rule="evenodd" clip-rule="evenodd" fill="#DAE5F5" d="M63,115.318c-0.061,3.982-0.061,3.984-3.61,3.998
		c-1.463,0.006-2.927,0.002-4.39,0.002c0.061-3.982,0.061-3.984,3.61-4C60.074,115.312,61.537,115.318,63,115.318z"/>
	<path fill-rule="evenodd" clip-rule="evenodd" fill="#DBE5F5" d="M163,87.317c0,1.333,0,2.667,0,4
		c-0.187,0.184-0.374,0.367-0.559,0.554c-2.294,0.941-4.589,0.944-6.887,0.006c-0.186-0.185-0.37-0.372-0.555-0.56
		c0.061-3.982,0.061-3.984,3.61-3.999C160.074,87.312,161.537,87.317,163,87.317z"/>
	<path fill-rule="evenodd" clip-rule="evenodd" fill="#DBE5F5" d="M199,67.317c0,1.333,0,2.667,0,4
		c-0.965,1.117-2.293,1.169-3.617,1.248c-1.318,0.01-2.628-0.044-3.83-0.689c-0.186-0.185-0.37-0.371-0.553-0.559
		c0.061-3.982,0.061-3.984,3.61-3.999C196.074,67.312,197.537,67.317,199,67.317z"/>
	<path fill-rule="evenodd" clip-rule="evenodd" fill="#DAE5F5" d="M99,91.317c0.061-3.982,0.061-3.984,3.61-3.999
		c1.463-0.006,2.927-0.001,4.39-0.001c1.219,4.955-0.711,6.181-7.311,4.642C99.458,91.748,99.229,91.532,99,91.317z"/>
	<path fill-rule="evenodd" clip-rule="evenodd" fill="#DBE5F5" d="M223,55.317c0,1.333,0,2.667,0,4c-1.334,0-2.666,0-4,0
		c0-0.643,0.084-1.298-0.016-1.924c-0.271-1.708,0.383-2.364,2.092-2.092C221.703,55.401,222.358,55.317,223,55.317z"/>
	<path fill-rule="evenodd" clip-rule="evenodd" fill="#DAE5F5" d="M91,99.317c0-0.643,0.083-1.298-0.016-1.924
		c-0.271-1.708,0.384-2.364,2.092-2.092c0.626,0.1,1.282,0.016,1.924,0.016c0.181,0.205,0.361,0.41,0.544,0.615
		c0.805,3.424-0.503,4.736-3.931,3.934C91.409,99.685,91.205,99.501,91,99.317z"/>
	<path fill-rule="evenodd" clip-rule="evenodd" fill="#DAE5F5" d="M151,95.317c0-0.643,0.083-1.298-0.016-1.924
		c-0.271-1.708,0.384-2.364,2.092-2.092c0.626,0.1,1.282,0.016,1.924,0.016c0.977,1.046,1.107,2.245,0.647,3.555
		c-0.228,0.483-0.583,0.841-1.06,1.08C153.269,96.442,152.061,96.296,151,95.317z"/>
	<path fill-rule="evenodd" clip-rule="evenodd" fill="#DBE5F5" d="M95,95.317c0-0.643,0.083-1.298-0.016-1.924
		c-0.271-1.708,0.384-2.364,2.092-2.092c0.626,0.1,1.282,0.016,1.924,0.016C100.091,95.874,99.557,96.408,95,95.317z"/>
	<path fill-rule="evenodd" clip-rule="evenodd" fill="#DBE5F5" d="M183,79.317c0-0.643,0.083-1.298-0.016-1.924
		c-0.271-1.708,0.384-2.364,2.092-2.092c0.626,0.1,1.282,0.016,1.924,0.016c0.164,0.165,0.327,0.33,0.493,0.494
		c0.543,1.139,0.508,2.269-0.05,3.393c-0.299,0.383-0.68,0.658-1.125,0.849C185.081,80.403,183.949,80.27,183,79.317z"/>
	<path fill-rule="evenodd" clip-rule="evenodd" fill="#DAE5F5" d="M187,75.317c0-0.643,0.083-1.298-0.016-1.924
		c-0.271-1.708,0.384-2.364,2.092-2.092c0.626,0.1,1.282,0.016,1.924,0.016c0.977,1.046,1.107,2.245,0.647,3.555
		c-0.228,0.483-0.583,0.841-1.06,1.08C189.269,76.442,188.061,76.295,187,75.317z"/>
	<path fill-rule="evenodd" clip-rule="evenodd" fill="#DAE5F5" d="M43,131.318c0,0.643-0.083,1.297,0.016,1.924
		c0.271,1.707-0.384,2.363-2.092,2.092c-0.626-0.1-1.282-0.016-1.924-0.016c0-0.643,0.083-1.299-0.016-1.924
		c-0.271-1.709,0.384-2.365,2.092-2.092C41.703,131.402,42.358,131.318,43,131.318z"/>
	<path fill-rule="evenodd" clip-rule="evenodd" fill="#DAE5F5" d="M55,119.318c0,0.643-0.083,1.297,0.016,1.924
		c0.271,1.707-0.384,2.363-2.092,2.092c-0.626-0.1-1.282-0.016-1.924-0.016c0-0.643,0.083-1.299-0.016-1.924
		c-0.271-1.709,0.384-2.365,2.092-2.092C53.703,119.402,54.358,119.318,55,119.318z"/>
	<path fill-rule="evenodd" clip-rule="evenodd" fill="#DAE5F5" d="M87,107.317c-1.333,0-2.667,0-4,0
		c0-0.643,0.083-1.298-0.016-1.924c-0.271-1.708,0.384-2.364,2.092-2.092c0.626,0.1,1.282,0.016,1.924,0.016
		c0.156,0.148,0.312,0.297,0.47,0.443c0.522,1.038,0.523,2.076,0.005,3.115C87.318,107.024,87.16,107.171,87,107.317z"/>
	<path fill-rule="evenodd" clip-rule="evenodd" fill="#DBE5F5" d="M87,103.317c0-0.643,0.083-1.298-0.016-1.924
		c-0.271-1.708,0.384-2.364,2.092-2.092c0.626,0.1,1.282,0.016,1.924,0.016C92.091,103.874,91.557,104.408,87,103.317z"/>
	<path fill-rule="evenodd" clip-rule="evenodd" fill="#DBE5F5" d="M111,155.318c3.288,0,6.58-0.107,9.86,0.043
		c1.731,0.08,2.491-0.328,2.148-2.145c-0.273-1.447,0.297-2.113,1.839-1.918c0.809,0.104,1.642,0.023,2.463,0.018
		c3.629-0.021,3.629-0.021,3.689-3.998c1.463,0,2.927-0.006,4.39,0c3.549,0.016,3.549,0.018,3.61,4
		c-0.494,0-0.991,0.035-1.481-0.008c-1.634-0.141-2.998-0.045-2.528,2.23c0.336,1.629-0.582,1.904-1.964,1.799
		c-1.31-0.102-2.656,0.131-3.946-0.059c-1.904-0.277-2.364,0.551-2.08,2.207c0.268,1.562-0.484,1.891-1.922,1.859
		c-4.115-0.086-8.236-0.117-12.349,0.012c-1.726,0.053-1.86-0.764-1.739-2.066C111.05,156.64,111,155.976,111,155.318z"/>
	<path fill-rule="evenodd" clip-rule="evenodd" fill="#DAE5F5" d="M87,147.318c3.272,0,6.545-0.018,9.817,0.006
		c2.1,0.016,2.102,0.043,2.181,2.521c0.016,0.49,0.002,0.98,0.002,1.473c-1.976,0-3.97,0.164-5.923-0.047
		c-1.917-0.207-2.357,0.572-2.076,2.221c0.267,1.568-0.491,1.904-1.926,1.855c-2.961-0.1-5.928-0.045-8.892-0.023
		c-1.687,0.012-1.121-1.234-1.165-2.082c-0.047-0.924-0.339-2.078,1.316-1.939c0.981,0.082,1.975,0.02,2.963,0.014
		C86.94,151.294,86.94,151.294,87,147.318z"/>
	<path fill-rule="evenodd" clip-rule="evenodd" fill="#DAE5F5" d="M75,143.318c3.272,0,6.545-0.018,9.817,0.006
		c2.1,0.016,2.102,0.043,2.181,2.521c0.016,0.49,0.002,0.98,0.002,1.473c-3.272,0-6.545,0.018-9.817-0.008
		c-2.1-0.014-2.102-0.043-2.181-2.52C74.987,144.3,75,143.808,75,143.318z"/>
	<path fill-rule="evenodd" clip-rule="evenodd" fill="#DBE5F5" d="M99,151.318c3.272,0,6.545-0.018,9.817,0.006
		c2.1,0.016,2.102,0.043,2.181,2.521c0.016,0.49,0.002,0.98,0.002,1.473c-3.272,0-6.545,0.018-9.817-0.008
		c-2.1-0.014-2.102-0.043-2.181-2.52C98.987,152.3,99,151.808,99,151.318z"/>
	<path fill-rule="evenodd" clip-rule="evenodd" fill="#DBE5F5" d="M47,139.318c2.667,0,5.333,0,8,0c0,0.662-0.058,1.332,0.012,1.986
		c0.143,1.352-0.079,2.266-1.777,2.033c-0.813-0.111-1.655-0.018-2.483-0.02C47.061,143.308,47.061,143.308,47,139.318z"/>
	<path fill-rule="evenodd" clip-rule="evenodd" fill="#DAE5F5" d="M59,139.318c1.463,0,2.927-0.006,4.39,0
		c3.549,0.016,3.549,0.018,3.61,4c-1.463,0-2.927,0.004-4.39-0.002C59.062,143.302,59.062,143.3,59,139.318z"/>
	<path fill-rule="evenodd" clip-rule="evenodd" fill="#DAE5F5" d="M139,151.318c1.463,0,2.927-0.006,4.39,0
		c3.549,0.016,3.549,0.018,3.61,4c-1.463,0-2.927,0.004-4.39-0.002C139.062,155.302,139.062,155.3,139,151.318z"/>
	<path fill-rule="evenodd" clip-rule="evenodd" fill="#DAE5F5" d="M67,143.318c1.333,0,2.667,0,4,0c0,0.662-0.055,1.328,0.012,1.984
		c0.136,1.334-0.058,2.143-1.766,2.066c-1.5-0.066-2.717,0.014-2.267-2.07C67.116,144.666,67,143.98,67,143.318z"/>
	<path fill-rule="evenodd" clip-rule="evenodd" fill="#DBE5F5" d="M231,159.318c0-0.164-0.003-0.328,0-0.492
		c0.069-3.482,0.069-3.484,3.172-3.508c0.983-0.006,1.976-0.086,2.947,0.02c1.479,0.162,2.14-0.369,1.879-1.873
		c-0.292-1.68,0.231-2.512,2.082-2.158c1.402,0.27,2.234-0.238,1.91-1.797c-0.482-2.312,0.951-2.309,2.536-2.197
		c0.489,0.035,0.982,0.006,1.474,0.006c2.033,2.666,1.846,5.332,0,8c-1.515,1.152-2.85,2.484-4,4
		C239,159.318,235,159.318,231,159.318z"/>
	<path fill-rule="evenodd" clip-rule="evenodd" fill="#E6F0FA" d="M247,155.318c0-2.668,0-5.334,0-8
		c2.391-1.826,3.815-0.244,5.514,1.316c2.596,2.387,4.568,5.402,9.006,5.475c4.736,0.078,8.484-1.078,11.375-4.711
		c2.376-2.982,4.657-4.16,7.707-0.783c1.434,1.588,3.371,1.52,4.869-0.037c3.078-3.193,7.556-3.84,11.238-5.861
		c3.223-1.771,6.187-3.578,8.805-6.061c3.511-3.33,6.464-3.109,10.604-0.705c3.598,2.088,7.297,5.688,12.203,2.668
		c0.402-0.248,1.121-0.244,1.451,0.037c2.206,1.881,4.249,1.74,6.508-0.02c0.751-0.586,1.932-0.064,2.721,0.682
		c1.152,1.514,2.484,2.848,4,4c0,0.662-0.059,1.332,0.012,1.988c0.146,1.355-0.088,2.086-1.779,2.053
		c-5.473-0.109-10.949,0.021-16.421-0.08c-1.626-0.031-2.009,0.596-1.815,2.004c0.179,1.309-0.002,2.252-1.74,2.062
		c-1.312-0.143-2.678,0.137-3.973-0.064c-2.213-0.344-2.503,0.807-2.283,2.531c0.123,0.967-0.113,1.549-1.275,1.521
		c-2.322-0.055-4.645-0.01-6.967-0.018c-3.698-0.012-3.698-0.016-3.064-4.615c0.929-0.953,0.838-1.045,0.549-0.76
		c-0.326,0.324-0.601,0.705-0.923,1.039c-0.43,0.445-0.428,0.447,0.018,0.018c0.334-0.322,0.679-0.633,0.356-0.297
		c-2.156,0.617-3.62,0.611-5.084,0.617c-3.549,0.016-3.549,0.018-3.609,4c-3.287,0-6.58,0.107-9.86-0.045
		c-1.731-0.078-2.491,0.33-2.147,2.146c0.273,1.447-0.298,2.111-1.84,1.916c-0.809-0.104-1.641-0.021-2.463-0.018
		c-3.629,0.021-3.629,0.023-3.689,4c-4.644,0-9.293-0.129-13.929,0.061c-1.964,0.08-2.339-0.645-2.068-2.266
		c0.274-1.645-0.588-1.916-1.985-1.818c-1.484,0.104-2.992-0.078-4.474,0.051c-1.467,0.129-1.743-0.639-1.526-1.762
		c0.431-2.232-0.826-2.453-2.525-2.273C248,155.361,247.499,155.318,247,155.318z"/>
	<path fill-rule="evenodd" clip-rule="evenodd" fill="#FFFFFF" d="M243,159.318c0-0.643,0.084-1.299-0.016-1.924
		c-0.271-1.709,0.383-2.365,2.092-2.092c0.626,0.1,1.281,0.016,1.924,0.016c0,0.643-0.084,1.297,0.016,1.924
		c0.271,1.707-0.383,2.363-2.092,2.092C244.298,159.234,243.643,159.318,243,159.318z"/>
	<path fill-rule="evenodd" clip-rule="evenodd" fill="#DBE5F5" d="M195,159.318c1.463,0,2.927-0.006,4.39,0
		c3.549,0.016,3.549,0.018,3.61,4c-1.463,0-2.927,0.004-4.39-0.002C195.062,163.302,195.062,163.3,195,159.318z"/>
	<path fill-rule="evenodd" clip-rule="evenodd" fill="#DBE5F5" d="M191,155.318c0.642,0,1.298,0.084,1.924-0.016
		c1.708-0.273,2.363,0.383,2.092,2.092c-0.1,0.625-0.016,1.281-0.016,1.924c-0.642,0-1.298-0.084-1.924,0.016
		c-1.708,0.271-2.363-0.385-2.092-2.092C191.084,156.615,191,155.96,191,155.318z"/>
	<path fill-rule="evenodd" clip-rule="evenodd" fill="#FDFEFD" d="M223,59.317c1.463,0,2.927,0.005,4.391-0.001
		c3.549-0.015,3.549-0.017,3.609-3.999c5.334,0,10.666,0,16,0c1.703,3.26,5.665,2.003,8,4c1.703,3.26,5.665,2.003,8,4
		c1.152,1.515,2.484,2.849,4,4c0,0.643,0.084,1.298-0.016,1.924c-0.271,1.708,0.383,2.364,2.092,2.092
		c0.626-0.1,1.281-0.016,1.924-0.016c0,1.333,0,2.667,0,4c-2.996,0-5.99-0.008-8.986,0.002c-2.559,0.009-2.646,0.008-2.973,2.773
		c-0.139,1.179-0.689,1.269-1.602,1.235c-1.162-0.043-2.329-0.018-3.494-0.009c-2.428,0.018-2.537,0.007-2.904,2.842
		c-0.217,1.674-1.345,1.185-2.165,1.118c-1.554-0.127-2.161,0.479-1.864,1.95c0.389,1.938-0.562,2.143-2.213,2.149
		c-1.653,0.008-1.92-0.652-1.822-2.052c0.104-1.49-0.082-3.004,0.053-4.489c0.139-1.521-0.695-1.604-1.8-1.523
		c-1.061,0.077-2.271-0.445-2.294,1.56c-0.029,2.52-0.234,2.433-2.278,2.475c-1.281,0.025-1.892-0.351-1.651-1.662
		c0.37-2.017-0.518-2.701-2.424-2.37c-1.399,0.244-1.711-0.503-1.588-1.706c0.148-1.445,0.193-2.786-1.99-2.312
		c-1.348,0.293-2.094-0.078-2.062-1.763c0.027-1.606,0.142-2.639,2.129-2.231c1.444,0.296,1.941-0.281,1.997-1.84
		c0.064-1.792-0.414-2.49-2.21-2.153c-1.559,0.293-2.059-0.455-1.867-1.924c0.165-1.258,0.074-2.42-1.705-2.062
		c-2.207,0.444-2.491-0.779-2.294-2.511C223.048,60.321,223,59.816,223,59.317z"/>
	<path fill-rule="evenodd" clip-rule="evenodd" fill="#E6F0FA" d="M255,59.317c-1.463,0-2.927,0.005-4.391-0.001
		c-3.549-0.015-3.549-0.017-3.609-3.999c2.666,0,5.334,0,8,0C255,56.65,255,57.984,255,59.317z"/>
	<path fill-rule="evenodd" clip-rule="evenodd" fill="#FDFEFD" d="M127,91.317c1.333,0,2.667,0,4,0
		c5.21,2.91,5.43,9.117,8.696,13.375c1.509,1.968,1.091,5.215-1.174,7.305c-1.301,1.201-2.186,2.506-2.106,4.299
		c0.056,1.27-0.605,3.176,0.616,3.572c0.775,0.252,0.565-1.936,0.969-2.98c1.012-2.617,3.455-3.957,5.247-5.857
		c0.937-0.992,2.488-0.727,3.695,0.121c0.686,0.482,1.06,1.328,1.732,1.77c1.519,1,2.902,4.043,4.284,2.896
		c1.574-1.307-0.992-2.967-2.021-4.381c-1.609-2.213-2.06-5.214-0.552-7.026c2.311-2.778,3.029-6.103,4.615-9.094
		c2.335-1.997,6.296-0.74,8-4c1.663,0,3.326-0.008,4.988,0.002c2.56,0.014,2.648,0.008,2.97,2.771
		c0.137,1.176,0.683,1.25,1.597,1.239c2.993-0.032,5.986-0.009,8.979-0.015c0.653-0.001,1.427-0.121,1.446,0.825
		c0.019,0.965-0.095,1.938-0.24,2.895c-0.021,0.134-0.549,0.263-0.845,0.271c-1.163,0.031-2.328,0.005-3.492,0.016
		c-0.989,0.009-2.135-0.268-2.927,0.139c-0.993,0.509-0.394,1.794-0.452,2.735c-0.052,0.833-0.391,1.146-1.188,1.129
		c-1.164-0.023-2.328-0.02-3.492-0.002c-0.983,0.016-2.133-0.241-2.907,0.179c-0.974,0.528-0.363,1.81-0.412,2.753
		c-0.069,1.327-1.014,1.167-1.742,1.035c-2.219-0.4-2.485,0.81-2.292,2.534c0.055,0.492,0.008,0.996-0.685,2.111
		c-0.929,0.955-0.837,1.047-0.549,0.76c0.327-0.324,0.601-0.705,0.923-1.039c0.43-0.445,0.429-0.445-0.018-0.018
		c-0.335,0.322-0.674,0.639-0.358,0.295c2.357-0.613,4.021-0.553,5.679-0.637c0.95-0.049,2.151,0.531,2.789-0.359
		c0.401-0.561,0.244-1.574,0.211-2.378c-0.048-1.198,0.639-1.288,1.563-1.251c1.161,0.048,2.326,0.019,3.489,0.011
		c2.474-0.018,2.563-0.01,2.923-2.816c0.154-1.206,0.771-1.197,1.639-1.19c2.492,0.021,4.985-0.002,7.477,0.011
		c2.398,0.012,2.44,0.015,2.898,2.852c0.126,0.782,0.34,1.173,1.165,1.152c1.162-0.028,2.326-0.018,3.489-0.004
		c0.986,0.012,2.131-0.254,2.917,0.157c0.99,0.519,0.37,1.801,0.431,2.743c0.056,0.859,0.444,1.109,1.214,1.102
		c1.662-0.016,3.333-0.113,4.982,0.027c1.616,0.137,2.109-0.576,1.815-1.984c-0.425-2.036,0.689-2.287,2.25-2.041
		c1.703,0.269,1.848-0.677,1.789-2.026c-0.089-1.989-0.023-3.986-0.023-5.98c0.496,0,0.996-0.041,1.488,0.008
		c1.676,0.165,2.979-0.012,2.521-2.258c-0.345-1.688,0.669-1.867,2.006-1.768c1.152,0.085,2.32-0.051,3.473,0.033
		c1.678,0.123,2.979-0.02,2.521-2.266c-0.345-1.688,0.671-1.898,2.006-1.762c0.655,0.067,1.322,0.012,1.984,0.012
		c0.162,0.133,0.323,0.267,0.488,0.396c1.012,2.006,2.018,1.979,3.02-0.013c0.163-0.131,0.328-0.257,0.492-0.383
		c2.152,0,4.312,0.094,6.457-0.032c1.461-0.086,1.661,0.622,1.544,1.765c-0.151,1.475-0.132,2.745,2.003,2.285
		c1.34-0.288,2.244,0.073,2.016,1.756c-0.111,0.812-0.018,1.653-0.02,2.481c-0.009,3.685-0.01,3.685-4.16,3.577
		c-0.479-0.505-0.756-0.884-1.082-1.208c-0.289-0.286-0.42-0.155-0.134,0.134c0.324,0.326,0.705,0.601,1.039,0.923
		c0.445,0.43,0.448,0.426,0.177,0.151c0.16,3.154,0.199,6.143,0.137,9.127c-0.02,0.949,0.516,2.146-0.342,2.791
		c-0.543,0.41-1.562,0.266-2.363,0.23c-1.168-0.049-1.352,0.566-1.283,1.531c0.059,0.826,0.012,1.658,0.012,2.488
		c-0.133,0.162-0.267,0.322-0.396,0.488c-2.005,1.012-1.979,2.018,0.014,3.02c0.131,0.162,0.257,0.328,0.383,0.492
		c0,0.496,0.014,0.992-0.002,1.488c-0.076,2.463-0.078,2.473-2.246,2.508c-1.323,0.02-2.658,0.113-3.967-0.023
		c-1.666-0.176-1.98,0.635-1.787,2.012c0.186,1.33-0.059,2.35-1.748,2.006c-2.246-0.459-2.423,0.846-2.258,2.521
		c0.049,0.49,0.008,0.992,0.008,1.488c-2.994,0-5.988-0.041-8.98,0.023c-0.947,0.021-2.152-0.533-2.791,0.359
		c-0.401,0.561-0.24,1.572-0.215,2.379c0.055,1.711-1.191,1.193-2.064,1.223c-0.928,0.031-2.18,0.35-1.94-1.32
		c0.299-2.084-0.464-3.027-2.63-2.672c-1.066,0.174-1.45-0.344-1.396-1.4c0.068-1.328,0.028-2.66,0.014-3.99
		c-0.03-2.787-0.064-2.756-2.68-2.631c-1.113,0.053-1.395,0.486-1.333,1.498c0.069,1.16,0.081,2.334-0.004,3.492
		c-0.07,0.953,0.518,2.152-0.351,2.797c-0.549,0.406-1.569,0.26-2.373,0.227c-1.711-0.07-1.294,1.174-1.228,2.043
		c0.107,1.42-0.211,2.182-1.848,1.998c-1.149-0.131-2.326-0.035-3.49-0.023c-2.351,0.025-2.426,0.023-2.654,2.592
		c-0.091,1.033-0.341,1.432-1.417,1.424c-5.488-0.039-10.979-0.1-16.465,0.029c-1.764,0.041-2.509-0.357-2.162-2.178
		c0.292-1.539-0.439-2.154-1.907-1.857c-1.938,0.389-2.366-0.562-2.085-2.213s-0.593-1.855-1.988-1.842
		c-1.354,0.012-2.292,0.121-2.019,1.814c0.256,1.586-0.039,2.629-2.057,2.258c-0.966-0.176-1.99-0.037-2.988-0.029
		c-2.439,0.02-2.478,0.016-2.924,2.836c-0.121,0.766-0.302,1.18-1.146,1.172c-2.495-0.023-4.99-0.002-7.485-0.012
		c-0.988-0.004-2.136,0.264-2.924-0.145c-0.988-0.512-0.389-1.797-0.446-2.74c-0.051-0.844-0.413-1.129-1.199-1.117
		c-1.497,0.02-3.015-0.152-4.486,0.043c-2.102,0.279-2.64-0.652-2.336-2.486c0.241-1.453-0.584-1.6-1.739-1.568
		c-2.161,0.059-4.324,0.012-6.486,0.018c-3.718,0.012-3.718,0.016-3.777,4c-1.986,0-3.994,0.184-5.952-0.051
		c-2.031-0.246-2.291,0.707-2.042,2.273c0.265,1.666-0.623,1.852-1.999,1.803c-2.645-0.092-5.309-0.193-7.938,0.029
		c-1.969,0.166-2.335-0.639-2.066-2.256c0.271-1.631-0.575-1.869-1.973-1.84c-1.304,0.029-2.073,0.059-2.092,1.777
		c-0.026,2.385-0.212,2.332-2.438,2.287c-0.964-0.02-1.567-0.141-1.518-1.299c0.034-0.799,0.178-1.814-0.229-2.359
		c-0.643-0.859-1.835-0.256-2.784-0.35c-0.82-0.08-1.661-0.084-2.479-0.002c-1.728,0.174-2.926-0.096-2.506-2.291
		c0.216-1.131-0.08-1.84-1.531-1.756c-2.144,0.125-4.301,0.033-6.453,0.033c-0.162-0.133-0.323-0.268-0.488-0.396
		c-1.012-2.006-2.019-1.979-3.021,0.014c-0.163,0.131-0.327,0.256-0.492,0.383c-1.974,0-3.963-0.158-5.916,0.045
		c-1.886,0.197-2.375-0.533-2.085-2.205c0.267-1.543-0.475-1.811-1.901-1.904c-1.847-0.123-2.402,0.506-2.101,2.211
		c0.269,1.52-0.416,1.963-1.892,1.883c-2.131-0.117-4.274-0.023-6.412-0.031c-3.633-0.012-3.633-0.016-3.693-3.998
		c1.658,0,3.319,0.057,4.974-0.023c0.949-0.045,2.146,0.521,2.787-0.35c0.405-0.551,0.256-1.564,0.222-2.365
		c-0.049-1.176,0.586-1.322,1.538-1.275c1.158,0.057,2.321,0.02,3.481,0.012c2.551-0.016,2.637-0.01,2.958-2.77
		c0.136-1.168,0.671-1.248,1.588-1.242c4.311,0.029,8.624,0.08,12.933-0.023c1.499-0.037,1.712,0.703,1.501,1.791
		c-0.443,2.281,0.889,2.342,2.548,2.266c1.82-0.086,3.647-0.02,5.471-0.02c0.162,0.133,0.323,0.266,0.488,0.395
		c1.012,2.006,2.018,1.98,3.02-0.012c0.163-0.131,0.327-0.258,0.492-0.383c1.333,0,2.667,0,6.018,1.289
		c2.475,1.271,3.339,1.045,3.185,0.83c-1.079-1.512-3.1-0.498-4.432-1.496c-0.133-0.098-0.25-0.234-0.428-0.264
		c1.038,1.059,1.915,2.379,1.674,0.93c-2.018-1.953-1.96-2.621-2.03-3.277c-0.143-1.35,0.079-2.264,1.777-2.031
		c0.813,0.111,1.655,0.023,2.483,0.018c3.692-0.021,3.692-0.023,4.445-4.615c0.929-0.953,0.837-1.045,0.549-0.76
		c-0.327,0.324-0.601,0.705-0.923,1.039c-0.43,0.445-0.428,0.447,0.018,0.018c0.334-0.322,0.679-0.633,0.356-0.297
		c-1.359,0.617-2.032,0.555-2.689,0.629c-1.379,0.156-2.286-0.121-2.008-1.797c0.269-1.619-0.085-2.461-2.075-2.285
		c-1.433,0.125-1.958,0.369-1.977,1.928c-0.026,2.215-0.318,2.203-2.591,2.176c-2.147-0.025-1.232-1.533-1.322-2.471
		c-0.126-1.318-0.127-2.668-0.006-3.988c0.131-1.428-0.571-1.787-1.739-1.561c-2.208,0.428-2.493-0.785-2.295-2.518
		c0.057-0.493,0.009-0.998,0.009-1.497c4.667-1.069,8.034-4.898,12.843-5.858c2.429-0.484,3.495-3.518,5.618-4.735
		c5.299-3.036,10.172-7.24,16.89-6.818C124.025,90.01,125.683,90.082,127,91.317z"/>
	<path fill-rule="evenodd" clip-rule="evenodd" fill="#FDFEFD" d="M339,139.318c-0.666,0-1.338,0.061-1.996-0.014
		c-1.379-0.156-2.285,0.123-2.008,1.799c0.27,1.619-0.086,2.459-2.074,2.285c-1.434-0.127-2.209-0.373-1.916-1.93
		c0.338-1.801-0.367-2.27-2.155-2.209c-1.562,0.055-2.002,0.541-1.884,2.006c0.057,0.709,0.492,1.826-0.697,2.021
		c-0.944,0.152-1.972,0.047-2.916-0.154c-0.596-0.127-0.388-0.861-0.337-1.314c0.198-1.762-0.134-2.895-2.319-2.52
		c-0.969,0.168-1.992,0.037-2.99,0.027c-2.374-0.027-2.449-0.023-2.67-2.58c-0.088-1.025-0.318-1.482-1.406-1.436
		c-1.494,0.066-3.012,0.156-4.488-0.018c-1.816-0.217-2.479,0.406-2.146,2.184c0.291,1.57-0.49,2.135-1.93,1.838
		c-1.997-0.41-2.323,0.637-2.062,2.236c0.276,1.689-0.649,1.916-2.018,1.795c-0.99-0.09-1.995-0.023-2.994-0.018
		c-2.519,0.018-2.551,0.016-2.971,2.795c-0.111,0.732-0.213,1.24-1.104,1.213c-1.164-0.035-2.33-0.016-3.495-0.006
		c-0.991,0.008-2.138-0.275-2.936,0.127c-1.003,0.504-0.403,1.793-0.464,2.734c-0.054,0.818-0.363,1.162-1.176,1.143
		c-1.164-0.025-2.329,0.006-3.494-0.01c-0.984-0.016-2.135,0.244-2.912-0.174c-0.979-0.527-0.368-1.811-0.416-2.754
		c-0.067-1.328-0.997-1.135-1.741-1.037c-0.818,0.107-2.333-0.686-2.231,0.975c0.135,2.207-0.148,3.512-2.854,3.037
		c-1.669-0.293-1.23,1.195-1.165,2.035c0.116,1.49-0.353,2-1.905,1.957c-3.991-0.107-7.992-0.141-11.98,0.012
		c-1.789,0.07-2.492-0.389-2.154-2.188c0.293-1.559-0.452-2.062-1.924-1.869c-1.256,0.164-2.42,0.076-2.062-1.705
		c0.444-2.205-0.778-2.492-2.511-2.295c-0.493,0.057-0.997,0.01-1.497,0.01c0-0.666,0.062-1.34-0.013-1.996
		c-0.157-1.381,0.124-2.287,1.8-2.008c1.622,0.271,2.455-0.092,2.283-2.076c-0.125-1.438-0.377-2.209-1.932-1.914
		c-1.807,0.342-2.264-0.377-2.206-2.158c0.051-1.568,0.565-2.131,2.003-1.834c2.004,0.412,2.274-0.641,2.074-2.242
		c-0.139-1.094-0.014-2.018,1.507-1.779c1.764,0.277,2.913-0.131,2.496-2.299c-0.231-1.199,0.188-1.867,1.581-1.715
		c0.987,0.107,1.996,0.029,2.994,0.02c0.991-0.01,2.139,0.27,2.932-0.137c0.997-0.508,0.426-1.797,0.455-2.736
		c0.038-1.287,0.881-1.125,1.689-1.125c5.326,0,10.652,0.014,15.979-0.008c2.467-0.01,2.357-0.041,2.398-2.422
		c0.024-1.428-0.595-1.781-1.758-1.557c-2.219,0.432-2.409-0.795-2.307-2.523c0.107-1.824,0.023-3.66,0.023-5.49
		c0.666,0,1.339-0.062,1.996,0.012c1.381,0.158,2.286-0.123,2.008-1.799c-0.271-1.621,0.1-2.627,2.072-2.226
		c1.454,0.297,2.211-0.293,1.918-1.848c-0.34-1.805,0.367-2.309,2.158-2.184c2.484,0.175,4.99,0.025,7.486,0.049
		c2.469,0.023,2.361,0.044,2.402,2.421c0.023,1.418-0.582,1.786-1.754,1.56c-2.207-0.428-2.494,0.784-2.296,2.517
		c0.057,0.494,0.009,0.998-0.685,2.113c-0.929,0.955-0.838,1.047-0.549,0.76c0.326-0.324,0.601-0.705,0.923-1.039
		c0.43-0.445,0.428-0.447-0.018-0.018c-0.334,0.322-0.679,0.633-0.356,0.297c2.358-0.615,4.023-0.609,5.688-0.617
		c2.539-0.014,2.569-0.014,2.984-2.785c0.108-0.725,0.193-1.247,1.095-1.223c1.331,0.035,2.664,0.017,3.996,0.007
		c2.396-0.018,2.497-0.008,2.891-2.861c0.23-1.666,1.348-1.042,2.188-1.12c0.999-0.093,1.847-0.175,1.91,1.419
		c0.101,2.539,0.263,2.538,2.666,2.562c1.332,0.013,2.667,0.049,3.995-0.013c1.171-0.054,1.408,0.561,1.277,1.527
		c-0.237,1.764,0.133,2.922,2.307,2.506c0.609-0.115,1.716-0.119,1.626,0.564c-0.366,2.803,0.617,3.721,3.456,3.539
		c1.071-0.068,0.465,1.646,0.603,2.549c0.17,1.107-0.429,1.377-1.449,1.354c-1.194-0.027-2.954-0.59-2.522,1.721
		c0.428,2.291-0.893,2.436-2.555,2.254c-2.102-0.23-1.302,1.355-1.458,2.328c-0.2,1.25,0.261,1.834,1.614,1.693
		c0.988-0.104,1.996-0.01,2.994-0.023c0.988-0.012,2.137,0.258,2.925-0.152c0.995-0.518,0.37-1.803,0.443-2.746
		c0.13-1.688,1.382-0.977,2.212-1.082c1.049-0.133,1.818-0.088,1.865,1.463c0.076,2.494,0.237,2.492,2.711,2.52
		c0.832,0.01,1.664-0.006,2.497,0.004c2.415,0.027,2.579,0.023,2.674,2.555c0.06,1.588,0.892,1.467,1.904,1.443
		c1.114-0.025,2.227,0.322,2.227-1.635c0-2.461,0.228-2.35,2.351-2.404c1.416-0.037,1.792,0.572,1.564,1.748
		c-0.428,2.205,0.779,2.5,2.516,2.299c0.494-0.057,0.998-0.008,1.498-0.008c0,0.664-0.06,1.334,0.012,1.99
		c0.15,1.363-0.096,2.1-1.785,2.049c-4.148-0.123-8.305,0.043-12.453-0.08c-1.689-0.051-1.936,0.686-1.785,2.049
		C339.06,137.982,339,138.654,339,139.318z"/>
	<path fill-rule="evenodd" clip-rule="evenodd" fill="#FDFEFD" d="M264.967,87.317c2.329,0,4.659-0.047,6.985,0.022
		c0.952,0.028,2.151-0.516,2.799,0.343c0.409,0.544,0.265,1.566,0.231,2.369c-0.049,1.179,0.586,1.326,1.541,1.279
		c1.162-0.058,2.328-0.02,3.492-0.013c2.506,0.017,2.595,0.009,2.943,2.802c0.148,1.198,0.745,1.223,1.627,1.206
		c1.277-0.022,2.611-0.437,2.506,1.866c-0.082,1.796-0.49,2.452-2.248,2.129c-1.579-0.29-2.125,0.503-1.83,1.935
		c0.414,2.006-0.649,2.314-2.239,2.057c-1.69-0.274-1.901,0.653-1.794,2.019c0.092,1.157,0.02,2.327,0.02,3.491
		c0,0.832,0.324,1.988-0.092,2.404s-1.584,0.182-2.4,0.072c-1.54-0.209-1.634,0.721-1.497,1.799
		c0.206,1.617-0.089,2.387-2.081,2.281c-3.98-0.207-7.981-0.004-11.972-0.092c-1.43-0.029-2.243,0.254-1.956,1.859
		c0.309,1.719-0.251,2.518-2.119,2.195c-0.809-0.141-1.66-0.033-2.491-0.021c-0.988,0.014-2.136-0.262-2.923,0.148
		c-0.986,0.512-0.411,1.799-0.443,2.74c-0.045,1.297-0.93,1.219-1.699,1.086c-2.121-0.371-2.582,0.67-2.337,2.486
		c0.085,0.633,0.165,1.443-0.741,1.508c-0.965,0.07-1.972,0.025-2.911-0.186c-0.574-0.129-0.328-0.854-0.329-1.32
		c-0.014-4.324,0.063-8.65-0.046-12.973c-0.039-1.553,0.771-1.619,1.831-1.48c1.646,0.219,2.448-0.133,2.26-2.098
		c-0.223-2.306-0.062-4.652-0.051-6.98c0.013-2.409,0.016-2.451,2.85-2.907c0.781-0.126,1.176-0.336,1.156-1.164
		c-0.029-1.163-0.02-2.328-0.004-3.493c0.012-0.985-0.252-2.133,0.16-2.917c0.521-0.987,1.807-0.385,2.748-0.427
		c1.311-0.059,1.195-0.971,1.062-1.72c-0.386-2.169,0.734-2.425,2.51-2.338C259.973,87.409,262.473,87.317,264.967,87.317z"/>
	<path fill-rule="evenodd" clip-rule="evenodd" fill="#FDFEFD" d="M211.172,155.318c-3.328,0-6.661-0.096-9.983,0.039
		c-1.695,0.068-2.574-0.242-2.198-2.143c0.295-1.494-0.353-1.969-1.879-1.932c-4.158,0.102-8.325-0.074-12.479,0.082
		c-1.97,0.074-1.605-1.094-1.632-2.205c-0.024-1.014-0.16-2.01,1.449-1.869c1.487,0.129,3.019-0.146,4.485,0.068
		c2.019,0.299,2.32-0.674,2.062-2.268c-0.275-1.693,0.657-1.9,2.021-1.793c1.158,0.092,2.336,0.104,3.492,0
		c1.76-0.162,2.927,0.135,2.506,2.316c-0.229,1.188,0.166,1.867,1.573,1.727c1.153-0.115,2.328-0.016,3.492-0.025
		c2.381-0.02,2.426-0.016,2.893-2.867c0.13-0.797,0.373-1.156,1.183-1.139c1.164,0.027,2.33,0.02,3.495,0.004
		c0.984-0.016,2.135,0.242,2.912-0.176c0.977-0.527,0.355-1.811,0.412-2.756c0.054-0.898,0.511-1.076,1.25-1.068
		c1.164,0.012,2.33,0.023,3.494-0.002c0.979-0.021,2.137,0.215,2.889-0.225c0.938-0.545,0.352-1.83,0.354-2.771
		c0.001-0.859,0.178-1.035,1.04-1.025c4.493,0.057,8.987,0.094,13.479-0.01c1.51-0.035,1.65,0.699,1.514,1.803
		c-0.195,1.586,0.044,2.668,2.064,2.248c1.428-0.297,1.968,0.246,2.01,1.826c0.047,1.76-0.37,2.516-2.197,2.166
		c-1.539-0.293-2.154,0.439-1.857,1.908c0.392,1.945-0.562,2.287-2.219,2.109c-1.151-0.123-2.352,0.127-3.486-0.057
		c-2.179-0.352-2.547,0.752-2.309,2.518c0.13,0.963-0.101,1.584-1.273,1.529c-1.328-0.061-2.662-0.025-3.993-0.012
		c-2.414,0.023-2.487,0.023-2.695,2.555c-0.083,1.008-0.274,1.475-1.38,1.461C218.163,155.287,214.667,155.318,211.172,155.318z"/>
	<path fill-rule="evenodd" clip-rule="evenodd" fill="#FDFEFD" d="M195,71.317c1.333,0,2.667,0,4,0c3,0,5.999-0.008,8.999,0.002
		c2.528,0.009,2.56,0.013,2.98,2.792c0.111,0.732,0.221,1.17,1.104,1.227c2.275,0.147,4.596-0.464,6.829,0.391
		c0.03,2.154,0.055,4.309,0.091,6.462c0.027,1.696,1.354,1.153,2.16,1.085c1.617-0.138,1.918,0.565,1.879,2.001
		c-0.035,1.313-0.055,2.319-1.793,2.049c-1.547-0.24-2.697-0.024-2.264,2.038c0.299,1.416-0.221,1.985-1.818,2.021
		c-1.75,0.039-2.527-0.354-2.174-2.195c0.297-1.541-0.422-2.027-1.914-1.896c-1.322,0.117-2.688-0.137-3.991,0.062
		c-1.971,0.3-2.36-0.611-2.084-2.248c0.282-1.675-0.624-1.832-2.006-1.817C198.999,83.354,193,83.317,187,83.317
		c-1.059-1.333-1.059-2.667,0-4c1.515-1.151,2.848-2.485,4-4C192.515,74.165,193.85,72.833,195,71.317z"/>
	<path fill-rule="evenodd" clip-rule="evenodd" fill="#FDFEFD" d="M191,91.317c0-0.662,0.057-1.331-0.012-1.986
		c-0.14-1.344,0.067-2.139,1.771-2.053c2.808,0.143,5.634,0.138,8.442,0.002c1.646-0.08,1.993,0.619,1.801,2.012
		c-0.182,1.317,0.036,2.363,1.74,2.017c2.239-0.456,2.436,0.833,2.265,2.52c-0.05,0.491-0.008,0.992-0.008,1.489
		c-2.987,0-5.975,0.039-8.96-0.022c-0.948-0.02-2.146,0.516-2.792-0.343c-0.409-0.543-0.264-1.562-0.23-2.363
		c0.049-1.168-0.565-1.352-1.53-1.283C192.663,91.363,191.83,91.317,191,91.317z"/>
	<path fill-rule="evenodd" clip-rule="evenodd" fill="#FDFEFD" d="M75,135.318c0,0.662-0.115,1.348,0.021,1.98
		c0.45,2.084-0.767,2.004-2.267,2.07c-1.708,0.076-1.902-0.732-1.766-2.066c0.067-0.656,0.012-1.322,0.012-1.984
		C72.334,134.259,73.667,134.259,75,135.318z"/>
	<path fill-rule="evenodd" clip-rule="evenodd" fill="#FDFEFD" d="M119,140.755c-0.244-1.193,0.239-1.525,1.465-1.471
		c2.559,0.119,2.466,0.049,2.568,2.178c0.071,1.484-0.402,1.959-1.888,1.889C119.018,143.25,119.013,143.345,119,140.755z"/>
	<path fill-rule="evenodd" clip-rule="evenodd" fill="#DBE5F5" d="M129.103,147.279c-1.921,0.455-2.245-0.496-2.129-2.109
		c0.139-1.932,0.052-1.938,2.368-1.852c1.768,0.064,1.71,0.127,1.691,3.023C131.02,148.283,129.625,146.843,129.103,147.279z"/>
	<path fill-rule="evenodd" clip-rule="evenodd" fill="#DBE5F5" d="M172.439,151.318c-1.195,0.244-1.527-0.24-1.47-1.465
		c0.118-2.561,0.049-2.467,2.176-2.568c1.486-0.07,1.959,0.402,1.888,1.889C174.932,151.3,175.028,151.304,172.439,151.318z"/>
	<path fill-rule="evenodd" clip-rule="evenodd" fill="#FDFEFD" d="M190.998,93.367c0.419,1.77-0.532,2.094-2.146,1.978
		c-1.931-0.14-1.938-0.052-1.852-2.369c0.065-1.768,0.128-1.802,3.024-1.658C191.055,91.368,191.055,91.368,190.998,93.367z"/>
	<path fill-rule="evenodd" clip-rule="evenodd" fill="#FDFEFD" d="M227,91.317c0-0.662,0.055-1.329-0.012-1.984
		c-0.137-1.335,0.058-2.143,1.766-2.066c1.5,0.066,2.717-0.014,2.268,2.07c-0.137,0.632-0.021,1.318-0.021,1.98
		C229.667,92.376,228.334,92.376,227,91.317z"/>
	<path fill-rule="evenodd" clip-rule="evenodd" fill="#DAE5F5" d="M219,68.756c-0.244-1.194,0.238-1.526,1.465-1.471
		c2.559,0.118,2.467,0.049,2.568,2.177c0.07,1.485-0.402,1.959-1.889,1.889C219.018,71.249,219.012,71.345,219,68.756z"/>
	<path fill-rule="evenodd" clip-rule="evenodd" fill="#FDFEFD" d="M359,127.318c0,1.332,0,2.666,0,4c-1.334,0-2.666,0-4,0
		c0-0.643,0.084-1.299-0.016-1.924c-0.271-1.709,0.383-2.365,2.092-2.092C357.703,127.402,358.358,127.318,359,127.318z"/>
	<path fill-rule="evenodd" clip-rule="evenodd" fill="#FDFEFD" d="M235,119.318c0.662,0,1.348,0.115,1.98-0.021
		c2.084-0.449,2.004,0.768,2.07,2.268c0.076,1.707-0.731,1.902-2.066,1.766c-0.655-0.068-1.322-0.012-1.984-0.012
		C233.942,121.984,233.942,120.65,235,119.318z"/>
	<path fill-rule="evenodd" clip-rule="evenodd" fill="#FDFEFD" d="M211,99.317c-0.642,0-1.298-0.084-1.924,0.016
		c-1.708,0.272-2.363-0.384-2.092-2.092c0.1-0.626,0.016-1.281,0.016-1.924c0.642,0,1.298,0.084,1.924-0.016
		c1.708-0.272,2.363,0.384,2.091,2.092C210.917,98.02,211,98.675,211,99.317z"/>
	<path fill-rule="evenodd" clip-rule="evenodd" fill="#FDFEFD" d="M363,135.318c-1.334,0-2.666,0-4,0c0-1.334,0-2.668,0-4
		c0.643,0,1.298,0.084,1.924-0.016c1.709-0.273,2.363,0.383,2.092,2.092C362.917,134.019,363,134.675,363,135.318z"/>
	<path fill-rule="evenodd" clip-rule="evenodd" fill="#FDFEFD" d="M343,143.318c-0.643,0-1.298-0.084-1.924,0.016
		c-1.709,0.271-2.363-0.385-2.092-2.092c0.1-0.627,0.016-1.281,0.016-1.924c0.643,0,1.298,0.084,1.924-0.016
		c1.709-0.273,2.363,0.383,2.092,2.092C342.917,142.019,343,142.675,343,143.318z"/>
	<path fill-rule="evenodd" clip-rule="evenodd" fill="#E6F0FA" d="M263,63.317c-1.463,0-2.927,0.005-4.391-0.001
		c-3.549-0.015-3.549-0.017-3.609-3.999c2.666,0,5.334,0,8,0C263,60.65,263,61.984,263,63.317z"/>
	<path fill-rule="evenodd" clip-rule="evenodd" fill="#E6F0FA" d="M267,67.317c-0.643,0-1.298-0.084-1.924,0.016
		c-1.709,0.272-2.363-0.384-2.092-2.092c0.1-0.626,0.016-1.281,0.016-1.924c1.334,0,2.666,0,4,0C267,64.65,267,65.984,267,67.317z"
		/>
	<path fill-rule="evenodd" clip-rule="evenodd" fill="#FDFEFD" d="M87,127.318c0-0.662,0.115-1.35-0.021-1.98
		c-0.45-2.084,0.767-2.004,2.267-2.07c1.708-0.076,1.902,0.73,1.766,2.066c-0.067,0.654-0.012,1.322-0.012,1.984
		C89.667,128.376,88.334,128.376,87,127.318z"/>
	<path fill-rule="evenodd" clip-rule="evenodd" fill="#E6F0FA" d="M187,79.317c0,1.333,0,2.667,0,4
		c-0.642,0-1.298-0.084-1.924,0.016c-1.708,0.272-2.363-0.384-2.092-2.092c0.1-0.626,0.016-1.281,0.016-1.924
		C184.334,79.317,185.667,79.317,187,79.317z"/>
	<path fill-rule="evenodd" clip-rule="evenodd" fill="#E6F0FA" d="M127,91.317c-3.312,0-6.634,0.156-9.933-0.059
		c-1.973-0.129-2.332,0.648-2.064,2.262c0.272,1.639-0.581,1.928-1.979,1.819c-1.317-0.104-2.675,0.145-3.967-0.061
		c-2.008-0.319-2.308,0.67-2.052,2.254c0.268,1.658-0.613,1.98-1.993,1.786c-1.338-0.188-2.348,0.07-2.002,1.754
		c0.465,2.268-0.872,2.39-2.533,2.256c-0.823-0.066-1.655-0.017-2.483-0.011c-2.549,0.018-2.635,0.01-2.953,2.768
		c-0.134,1.163-0.662,1.262-1.583,1.244c-2.152-0.04-4.306-0.013-6.458-0.013c0-1.333,0-2.667,0-4c0.642,0,1.298-0.084,1.924,0.016
		c1.708,0.272,2.363-0.384,2.092-2.092C90.917,100.615,91,99.96,91,99.317c0.642,0,1.298-0.084,1.924,0.016
		c1.708,0.272,2.363-0.384,2.092-2.092C94.917,96.615,95,95.96,95,95.317c0.642,0,1.298-0.084,1.924,0.016
		c1.708,0.272,2.363-0.384,2.092-2.092C98.917,92.615,99,91.96,99,91.317c1.463,0,2.927,0.005,4.39-0.001
		c3.549-0.015,3.549-0.017,3.61-3.999c6.667,0,13.333,0,20,0C127,88.65,127,89.984,127,91.317z"/>
	<path fill-rule="evenodd" clip-rule="evenodd" fill="#E6F0FA" d="M155,95.317c0,1.661,0.06,3.325-0.023,4.982
		c-0.048,0.949,0.531,2.15-0.358,2.788c-0.56,0.401-1.573,0.245-2.377,0.213c-1.196-0.049-1.292,0.634-1.253,1.561
		c0.048,1.161,0.005,2.325,0.013,3.488c0.017,2.482,0.015,2.515,2.81,2.945c0.742,0.115,1.217,0.244,1.198,1.117
		c-0.032,1.494,0,2.99-0.012,4.484c-0.01,1.266,0.447,2.625-1.861,2.51c-1.759-0.088-2.477-0.439-2.142-2.229
		c0.29-1.549-0.457-2.141-1.913-1.848c-1.942,0.391-2.358-0.57-2.08-2.213c0.279-1.646-0.589-1.857-1.985-1.842
		c-1.342,0.016-2.292,0.105-2.024,1.807c0.246,1.559-0.003,2.676-2.04,2.25c-1.406-0.293-2.145,0.195-1.98,1.814
		c0.134,1.314,0.046,2.654,0.023,3.984c-0.041,2.361-0.052,2.305-2.588,2.215c-1.043-0.037-1.447-0.326-1.426-1.404
		c0.054-2.822,0.139-5.654-0.026-8.469c-0.104-1.77,0.355-2.506,2.173-2.162c1.531,0.291,2.029-0.41,1.896-1.904
		c-0.117-1.319-0.174-2.677,0.011-3.98c0.268-1.892-0.513-2.41-2.212-2.109c-1.607,0.284-1.952-0.53-1.848-1.959
		c0.109-1.487-0.074-2.997,0.052-4.481c0.124-1.447-0.606-1.765-1.751-1.543c-2.221,0.43-2.473-0.806-2.285-2.521
		c0.054-0.492,0.008-0.996,0.008-1.494c2.667,0,5.333,0,8,0c0,0.496,0.04,0.995-0.007,1.486c-0.16,1.667-0.001,2.983,2.251,2.523
		c1.675-0.343,1.869,0.648,1.776,1.997c-0.091,1.315-0.038,2.644-0.016,3.965c0.034,2.077,0.052,1.952,2.225,2.068
		c1.678,0.09,1.962-0.674,1.772-2.034c-0.188-1.343,0.08-2.339,1.755-1.996c2.252,0.46,2.412-0.856,2.251-2.523
		c-0.047-0.491-0.007-0.99-0.007-1.486C152.334,95.317,153.667,95.317,155,95.317z"/>
	<path fill-rule="evenodd" clip-rule="evenodd" fill="#E6F0FA" d="M163,91.317c-0.061,3.982-0.061,3.984-3.61,3.999
		c-1.463,0.006-2.927,0.001-4.39,0.001c0-1.333,0-2.667,0-4C157.667,91.317,160.334,91.317,163,91.317z"/>
	<path fill-rule="evenodd" clip-rule="evenodd" fill="#E6F0FA" d="M195,71.317c0,0.643-0.083,1.298,0.016,1.924
		c0.271,1.708-0.384,2.364-2.092,2.092c-0.626-0.1-1.282-0.016-1.924-0.016c0-1.333,0-2.667,0-4
		C192.334,71.317,193.667,71.317,195,71.317z"/>
	<path fill-rule="evenodd" clip-rule="evenodd" fill="#E6F0FA" d="M191,75.317c0,0.643-0.083,1.298,0.016,1.924
		c0.271,1.708-0.384,2.364-2.092,2.092c-0.626-0.1-1.282-0.016-1.924-0.016c0-1.333,0-2.667,0-4
		C188.334,75.317,189.667,75.317,191,75.317z"/>
	<path fill-rule="evenodd" clip-rule="evenodd" fill="#DAE5F5" d="M304.439,151.318c-1.194,0.244-1.526-0.24-1.47-1.465
		c0.117-2.561,0.049-2.467,2.176-2.568c1.486-0.07,1.959,0.402,1.889,1.889C306.932,151.3,307.028,151.304,304.439,151.318z"/>
	<path fill-rule="evenodd" clip-rule="evenodd" fill="#E6F0FA" d="M99.165,131.318c-0.82,0-1.653-0.094-2.457,0.02
		c-1.75,0.242-1.626-0.809-1.759-2.047c-0.186-1.727,0.299-2.256,2.025-2.01c1.285,0.184,2.637,0.176,3.926,0.004
		c1.82-0.244,2.225,0.438,2.163,2.166c-0.053,1.48-0.436,2.08-1.932,1.881C100.486,131.246,99.82,131.318,99.165,131.318z"/>
	<path fill-rule="evenodd" clip-rule="evenodd" fill="#E6F0FA" d="M75,135.318c-1.333,0-2.667,0-4,0c0-0.662,0.055-1.33-0.012-1.984
		c-0.136-1.336,0.058-2.143,1.766-2.066c1.5,0.066,2.717-0.014,2.267,2.07C74.885,133.968,75,134.656,75,135.318z"/>
	<path fill-rule="evenodd" clip-rule="evenodd" fill="#E6F0FA" d="M227,91.317c1.334,0,2.666,0,4,0c0,0.662-0.055,1.329,0.012,1.984
		c0.137,1.335-0.058,2.143-1.766,2.066c-1.5-0.066-2.717,0.014-2.268-2.07C227.116,92.666,227,91.979,227,91.317z"/>
	<path fill-rule="evenodd" clip-rule="evenodd" fill="#E6F0FA" d="M87,127.318c1.333,0,2.667,0,4,0c0,0.662-0.055,1.328,0.012,1.984
		c0.136,1.334-0.058,2.143-1.766,2.066c-1.5-0.066-2.717,0.014-2.267-2.07C87.116,128.666,87,127.98,87,127.318z"/>
	<path fill-rule="evenodd" clip-rule="evenodd" fill="#E6F0FA" d="M235,119.318c0,1.332,0,2.666,0,4
		c-0.662,0-1.329-0.057-1.984,0.012c-1.335,0.137-2.143-0.059-2.066-1.766c0.066-1.5-0.014-2.717,2.07-2.268
		C233.653,119.433,234.338,119.318,235,119.318z"/>
	<path fill-rule="evenodd" clip-rule="evenodd" fill="#E6F0FA" d="M104.439,119.318c-1.195,0.244-1.527-0.24-1.47-1.465
		c0.118-2.561,0.049-2.467,2.176-2.568c1.486-0.07,1.959,0.402,1.888,1.889C106.932,119.3,107.028,119.304,104.439,119.318z"/>
	<path fill-rule="evenodd" clip-rule="evenodd" fill="#E6F0FA" d="M162.998,113.367c0.419,1.77-0.532,2.094-2.146,1.979
		c-1.931-0.141-1.938-0.053-1.852-2.369c0.065-1.768,0.128-1.803,3.024-1.658C163.055,111.369,163.055,111.369,162.998,113.367z"/>
	<path fill-rule="evenodd" clip-rule="evenodd" fill="#E6F0FA" d="M237.102,103.278c-1.921,0.455-2.244-0.496-2.129-2.109
		c0.14-1.932,0.053-1.938,2.369-1.852c1.768,0.065,1.709,0.127,1.69,3.024C239.02,104.282,237.625,102.843,237.102,103.278z"/>
	<path fill-rule="evenodd" clip-rule="evenodd" fill="#E6F0FA" d="M317.303,123.32c1.615-0.32,1.785,0.617,1.722,1.982
		c-0.096,2.061-0.032,1.941-2.253,2.055c-1.663,0.086-1.863-0.65-1.797-2.023C315.075,123.273,315.002,123.269,317.303,123.32z"/>
	<path fill-rule="evenodd" clip-rule="evenodd" fill="#E6F0FA" d="M294.961,113.214c0.455,1.922-0.496,2.246-2.109,2.131
		c-1.932-0.141-1.938-0.053-1.852-2.369c0.065-1.768,0.127-1.709,3.024-1.691C295.965,111.298,294.526,112.693,294.961,113.214z"/>
</g>
</svg>
