<?xml version="1.0" encoding="utf-8"?>
<!-- Generator: Adobe Illustrator 16.0.0, SVG Export Plug-In . SVG Version: 6.00 Build 0)  -->
<!DOCTYPE svg PUBLIC "-//W3C//DTD SVG 1.1//EN" "http://www.w3.org/Graphics/SVG/1.1/DTD/svg11.dtd">
<svg version="1.1" id="Lager_1" xmlns="http://www.w3.org/2000/svg" xmlns:xlink="http://www.w3.org/1999/xlink" x="0px" y="0px"
	 width="507.927px" height="619.89px" viewBox="0 0 507.927 619.89" enable-background="new 0 0 507.927 619.89"
	 xml:space="preserve">
<g id="ysIMI3.tif_1_">
	<g>
		<path fill-rule="evenodd" clip-rule="evenodd" fill="#75AB2F" d="M489.964,635.001c-8.709-0.131-17.028,2.459-25.53,3.744
			c-25.188,3.807-50.386,7.434-75.76,9.883c-28.214,2.721-56.442,4.436-84.767,2.727c-37.856-2.281-74.616-10.008-110.256-22.998
			c3.485-3.443,8.349-4.438,12.491-6.645c11.371-6.061,19.111-15.135,24.924-26.25c7.83-10.703,11.755-23.188,15.766-35.547
			c4.549-14.016,7.172-28.533,10.008-42.973c0.035,2.104,1.473,2.748,3.2,3.131c4.985,1.105,9.968,2.229,14.95,3.346
			c14.049,3.672,28.3,6.232,42.733,7.793c0.704,8.369,0.704,8.369,7.334,8.027c27.984,0.061,55.97,0.012,83.952,0.289
			c4.794,0.047,6.824-1.277,6.025-6.098c21.625-0.844,43.151-3.062,64.669-5.166c18.453-1.805,36.815-4.57,55.192-7.098
			c8.515-1.172,17.096-2.076,25.396-4.506c2.167,12.635,1.898,25.443,2.604,38.176c1.045,18.887,1.607,37.803,2.336,56.709
			c0.275,7.152,0.218,7.119-6.885,8.672c-6.468,1.414-12.916,2.914-19.371,4.375c-0.366,0.027-0.733,0.055-1.102,0.082
			c-0.706-1.225-1.652-0.664-2.567-0.348c-10.42,3.598-21.477,4.051-32.115,6.529C498.707,631.901,493.542,631.009,489.964,635.001z
			"/>
		<path fill-rule="evenodd" clip-rule="evenodd" fill="#75AB2F" d="M542.964,412.492c3.523,13.094,8.238,25.875,10.492,39.296
			c1.45,8.639,3.688,17.188,3.441,26.055c-0.332,0.137-0.665,0.271-0.998,0.404c-0.958-0.242-1.902-0.592-2.876-0.713
			c-14.269-1.771-28.551-3.43-42.808-5.287c-11.05-1.439-22.034-3.438-33.108-4.617c-20.635-2.199-41.312-3.982-61.973-5.939
			c-0.157-1.102-0.313-2.201-0.466-3.303c0.357-1.082,0.562-2.141-0.51-2.98c-0.393-0.402-0.786-0.805-1.179-1.207
			c-4.731-1.646-9.814-1.465-14.582-1.551c-19.214-0.34-38.405-1.859-57.64-1.275c-3.787,0.115-7.577-0.322-11.364-0.637
			c-3.798-0.314-8.306-2.262-11.578,1.811c-0.907,0.078-1.801,0.457-1.687,1.434c0.542,4.627-2.39,4.531-5.628,4.465
			c-5.66-0.113-11.326-0.059-16.987,0.025c-1.554,0.023-3.419-0.688-4.466,1.266c-1.674,0.162-3.348,0.324-5.022,0.486
			c-2.056-1.52-5.13-1.33-6.791-4.031c1.65-1.131,4.067-1.49,4.423-3.668c0.371-2.277,0.047-4.663,0.363-6.956
			c2.471-17.951-0.9-36.215,2.912-54.098c0.666-3.125-1.111-4.629-3.866-6.018c-4.776-2.41-9.86-3.318-14.909-4.744
			c-17.655-4.988-34.947-11.152-53.645-11.517c-4.41-0.086-8.918-0.521-13.371-0.886c-3.355-0.275-6.353-1.043-4.446-5.882
			c1.005-2.551,0.609-5.624,1.417-8.288c1.186-3.906,0.185-8.811,3.525-11.653c7.42-6.313,15.263-12.132,22.96-18.117
			c1.908-1.483,4.124-1.358,6.144-0.423c2.691,1.245,5.148,3.007,7.865,4.18c7.036,3.039,12.587,8.389,19.322,11.995
			c8.159,4.368,16.484,8.558,24.805,12.411c8.304,3.848,16.561,10.535,27.041,6.951c0.419-0.144,1.139-0.08,1.436,0.193
			c5.036,4.634,10.853,4.104,16.872,2.762c1.07-0.238,2.351,0,3.431,0.344c5.83,1.853,11.55,4.109,17.461,5.627
			c4.284,1.1,5.851,4.998,5.529,7.572c-0.472,3.783,1.369,4.314,3.997,4.994c-1.604,2.252-6.103,0.641-5.227,4.619
			c0.513,2.332,0.994,5.168,4.096,5.678c4.991,0.824,9.382,3.156,13.872,5.246c3.826,1.781,5.354-0.205,5.653-3.594
			c0.264-2.975,0.079-5.992,0.055-8.99c-0.027-3.469,0.51-7.158-3.902-8.742c-1.172-0.42-1.331-1.947-0.363-2.35
			c2.751-1.146,3.818-4.08,6.396-5.396c6.457-3.297,12.807-6.717,18.85-10.84c6.488-4.428,13.215-8.503,19.454-13.316
			c1.361-1.051,2.826-1.74,2.734-3.734c4.717-0.794,5.838-5.501,8.86-8.139c8.458-4.82,12.178-13.406,17.089-21.124
			c2.558-4.021,2.051-9.631,6.178-12.545c5.105-3.604,4.649-8.364,3.204-13.107c-2.642-8.663-3.067-17.549-3.436-26.452
			c-0.219-5.275,0.533-5.549,5.347-3.605c8.141,3.286,15.752,7.715,23.473,11.748c8.482,4.431,17.481,9.053,22.29,18.314
			c0.469,2.094,0.686,4.283,1.446,6.264c4.42,11.501,9.543,22.768,13.329,34.469c4.856,15.014,12.282,29.104,15.132,44.869
			c1.795,9.93,5.029,19.607,7.387,29.467C539.44,403.982,539.135,409.09,542.964,412.492z M363.881,410.125c0,0.006,0,0.01,0,0.016
			c2.329,0,4.659,0.039,6.987-0.014c1.502-0.033,2.569-0.783,2.753-2.344c0.175-1.49,0.298-3.014-1.392-3.908
			c-4.831-2.559-9.611-5.217-14.482-7.699c-2.442-1.244-4.077-0.637-4.549,2.4c-1.567,10.104-0.379,11.568,9.684,11.549
			C363.215,410.125,363.548,410.125,363.881,410.125z"/>
		<path fill-rule="evenodd" clip-rule="evenodd" fill="#624125" d="M342.363,59.061c11.134-1.854,21.923-5.236,33.021-7.349
			c8.557-1.628,14.162-0.683,19.102,7.723c7.775,13.233,16.925,25.711,26.107,38.052c7.681,10.323,16.155,20.064,24.47,29.901
			c2.322,2.748,3.142,5.49,2.917,9.034c-1.008,15.915-1.796,31.844-2.664,47.767c-0.612,1.354-1.001,2.726-1.151,4.249
			c-0.843,8.529-1.245,17.07-1.073,25.64c-0.642,0.41-1.282,0.816-1.924,1.225c-3.279-23.066-9.38-45.372-17.577-67.114
			c-1.142,8.288-0.324,16.567-2.128,25.752c-11.254-20.647-20.939-41.23-41.529-55.123c0.777,12.792,3.242,24.101,3.002,36.866
			c-4.473-7.277-8.533-13.318-13.24-18.866c-1.861-2.194-3.268-5.09-6.625-5.566l-0.013,0.126c0.106-0.806-0.242-1.157-1.05-1.047
			l0.085-0.043c-0.073-2.809-2.398-3.718-4.245-5.032c-5.691-6.543-13.605-9.135-21.42-11.739c-2.539-0.847-6.145-2.977-7.862-1.184
			c-2.306,2.407,1.526,5.203,1.963,8.054c0.164,1.074,1.048,2.038,1.604,3.052c0.362,2.852,1.43,5.427,3.046,7.789
			c-1.496,0.875-4.534,1.176-5.92,1.013c-2.132-0.251-4.429-1.457-6.362,0.605c-4.356-1.364-8.021-4.088-11.479-6.798
			c-10.335-8.099-21.688-14.081-34.171-18.018c-3.337-1.052-6.067-1.241-8.816,2.009c-6.304,7.45-11.68,15.44-14.395,24.784
			c-6.215,21.389-9.883,43.262-11.175,65.516c-0.274-0.021-0.548-0.004-0.818,0.05c-2.767-0.521-4.661-2.46-6.724-4.125l-0.19-0.07
			c-0.422-4.716-2.413-8.975-4.094-13.287c-1.104-2.833-1.167-5.394-0.135-8.198c5.552-15.094,11.026-30.215,19.886-43.809
			c4.069-6.245,7.729-12.798,12.238-18.703c4.065-5.322,9.039-9.949,13.612-14.883c11.442-10.338,24.118-18.818,37.796-25.966
			C323.49,66.609,333.436,64.017,342.363,59.061z"/>
		<path fill-rule="evenodd" clip-rule="evenodd" fill="#639532" d="M418.119,339.553c0.092,1.994-1.373,2.684-2.734,3.734
			c-6.239,4.813-12.966,8.889-19.454,13.316c-6.043,4.123-12.393,7.543-18.85,10.84c-2.577,1.316-3.645,4.25-6.396,5.396
			c-0.968,0.402-0.809,1.93,0.363,2.35c4.412,1.584,3.875,5.273,3.902,8.742c0.024,2.998,0.209,6.016-0.055,8.99
			c-0.3,3.389-1.827,5.375-5.653,3.594c-4.49-2.09-8.881-4.422-13.872-5.246c-3.102-0.51-3.583-3.346-4.096-5.678
			c-0.876-3.979,3.622-2.367,5.227-4.619c-2.628-0.68-4.469-1.211-3.997-4.994c0.321-2.574-1.245-6.473-5.529-7.572
			c-5.911-1.518-11.631-3.774-17.461-5.627c-1.08-0.344-2.36-0.582-3.431-0.344c-6.02,1.343-11.836,1.872-16.872-2.762
			c-0.297-0.273-1.017-0.337-1.436-0.193c-10.48,3.584-18.737-3.104-27.041-6.951c-8.32-3.854-16.646-8.043-24.805-12.411
			c-6.735-3.606-12.286-8.956-19.322-11.995c-2.717-1.173-5.174-2.935-7.865-4.18c-2.02-0.936-4.235-1.061-6.144,0.423
			c-7.697,5.985-15.54,11.804-22.96,18.117c-3.341,2.843-2.34,7.747-3.525,11.653c-0.808,2.664-0.412,5.737-1.417,8.288
			c-1.906,4.839,1.091,5.606,4.446,5.882c4.453,0.365,8.961,0.8,13.371,0.886c18.697,0.364,35.989,6.528,53.645,11.517
			c5.049,1.426,10.133,2.334,14.909,4.744c2.755,1.389,4.532,2.893,3.866,6.018c-3.812,17.883-0.441,36.146-2.912,54.098
			c-0.316,2.293,0.008,4.679-0.363,6.956c-0.355,2.178-2.772,2.537-4.423,3.668c1.661,2.701,4.735,2.512,6.791,4.033
			c-3.889,0.988-7.988-0.539-11.831,0.994c-3.158-0.023-6.317-0.045-9.477-0.066c0.021-1.66-0.025-3.326,0.072-4.982
			c1.291-21.935,1.273-43.886,0.746-65.843c-0.162-6.758-1.298-8.717-6.999-9.549c-17.729-2.594-35.372-5.955-53.29-7.033
			c-12.777-0.768-25.583-1.084-38.376-1.602c1.27-1.426,1.26-3.113,0.997-4.853c3.4-4.354,4.432-9.528,5.128-14.817
			c3.702-2.915,4.118-6.947,3.86-11.234c-1.136-18.998-2.893-37.971-2.431-57.038c13.62-12.261,28.644-22.661,43.795-32.874
			c5.362-3.615,10.581-7.499,16.513-10.209c0.173,5.996-0.904,11.912-2.227,17.65c-2.68,11.617-4.205,22.52,8.675,29.387
			c0.14,0.074,0.225,0.248,0.358,0.342c6.183,4.296,9.246,11.58,15.312,15.985c9.341,14.975,24.344,23.917,37.371,34.944
			c7.225,6.116,15.949,9.719,24.549,13.445c0.154,1.186,1.042,1.513,2.017,1.895c10.472,4.102,20.885,8.357,31.417,12.297
			c2.595,0.971,3.8,2.137,3.694,4.943c-0.124,3.33,1.958,4.098,4.608,2.896c5.223-2.367,11.741-2.176,15.225-8.135
			c0.975-1.666,3.485-2.322,5.421-3.29c8.225-4.11,15.99-8.966,23.587-14.194c4.965-3.417,9.048-8.354,15.267-9.854L418.119,339.553
			z M373.056,386.826c-0.033-7.934-1.145-8.76-8.73-6.145c-2.946,1.016-5.819,2.264-8.665,3.543
			c-2.601,1.17-2.283,2.602,0.035,3.699c3.132,1.486,6.371,2.744,9.526,4.184C371.443,394.943,373.085,393.855,373.056,386.826z"/>
		<path fill-rule="evenodd" clip-rule="evenodd" fill="#81AEC6" d="M924.05,663.921c-12.092-1.053-23.841-4.943-35.888-5.395
			c-9.885-0.371-15.06-7.285-21.504-12.312c-28.841-22.492-57.392-45.359-85.994-68.156c-32.514-25.916-64.97-51.902-97.452-77.857
			c-6.625-5.293-13.243-10.596-19.904-15.844c-0.602-0.475-1.495-0.576-2.253-0.852c-0.149-2.822-2.581-3.611-4.432-4.854
			c-1.018-0.682-2.403-1.588-1.427-2.586c3.463-3.537,5.689-8.592,11.258-9.682c2.174,1.818,4.098,4.307,7.512,2.805
			c-0.179,1.379,0.616,2.09,1.701,2.74c20.379,12.197,40.947,24.096,61.053,36.73c17.561,11.035,35.466,21.512,53.071,32.469
			c15.009,9.34,30.571,17.969,45.589,27.344c13.357,8.338,27.342,15.59,40.479,24.26c1.092,0.721,2.029,1.674,3.039,2.52
			c-0.291,3.936,3.537,3.264,5.396,4.785c0.855,0.701,2.387,0.875,2.188,2.346c-0.18,1.33-1.608,0.799-2.434,1.197
			c-5.028,2.424-8.685-1.414-11.551-3.793c-8.847-7.348-19.376-11.943-28.551-18.725c-8.584-6.344-17.868-11.744-26.897-17.475
			c-8.248-5.234-16.554-10.377-24.866-15.508c-1.68-1.035-4.729-2.471-5.142-0.303c-0.773,4.064-3.802,8-1.808,12.414
			c2.314,5.121,7.458,7.846,11.443,10.91c19.544,15.018,39.735,29.201,59.829,43.494c18.224,12.961,36.761,25.488,54.832,38.656
			C915.752,656.466,921.134,658.815,924.05,663.921z M895.372,648.036c-1.66-1.451-2.475-2.48-3.536-3.041
			c-7.354-3.873-14.008-8.752-20.646-13.715c-6.68-4.994-14.068-8.982-20.459-14.447c-2.122-1.814-5.056-2.697-7.982-3.002
			c-0.185,3.586,2.952,4.951,5.023,6.594c10.349,8.217,21.359,15.646,31.299,24.312
			C884.147,649.163,888.964,648.362,895.372,648.036z"/>
		<path fill-rule="evenodd" clip-rule="evenodd" fill="#332930" d="M415.135,461.69c20.66,1.957,41.338,3.74,61.973,5.939
			c11.074,1.18,22.059,3.178,33.108,4.617c14.257,1.857,28.539,3.516,42.808,5.287c0.974,0.121,1.918,0.471,2.877,0.715
			c-4.207,2.408-9.044-0.182-13.394,1.795c-4.257,1.936-9.334,0.318-13.563,2.732c-1.446,0.826-2.915,0.742-4.265-0.098
			c-2.589-1.611-5.439-1.182-8.247-1.311c-2.583-0.119-3.662,0.934-3.479,3.514c0.325,4.617,0.205,9.232,0.656,13.881
			c0.562,5.787,2.571,12.939-5.834,15.777c-0.762,0.258-1.493,0.924-1.273,1.881c0.238,1.033,1.226,0.969,2.032,0.975
			c4.827,0.031,9.731,0.568,14.458-0.117c4.254-0.615,7.475,2.74,11.457,2.025c4.886-0.879,9.835-1.309,14.708-2.096
			c3.704-0.6,8.202,0.135,10.851-3.805c0.095,1.084,0.189,2.17,0.284,3.256c-8.299,2.432-16.88,3.336-25.395,4.508
			c-18.377,2.527-36.739,5.293-55.192,7.098c-21.518,2.104-43.044,4.322-64.67,5.166c-0.099-9.133-0.351-18.266-0.261-27.396
			C414.918,491.253,414.176,476.464,415.135,461.69z M489.812,517.581c-4.42-0.82-8.45,0.404-12.545,0.836
			c-1.053,0.111-2.708-0.443-2.73,1.25c-0.018,1.363,1.399,1.66,2.615,1.691c1.318,0.033,2.675,0.203,3.851-0.629
			c3.101-2.195,6.114-1.047,9.425-0.275c4.939,1.152,9.731,4.256,15.164,1.975c0.707-0.297,1.822,0.002,1.888-1.117
			c0.071-1.23-0.978-1.896-1.933-1.779C500.02,520.204,495.192,515.833,489.812,517.581z M513.808,475.979
			c2.247,2.109,4.316,0.99,5.935,1.873c5.322,2.9,11.093,1.119,16.651,1.545c0.767,0.059,1.827,0.135,2.021-0.934
			c0.229-1.271-0.796-1.828-1.78-1.896C529.316,476.062,522.013,474.433,513.808,475.979z M491.314,472.931
			c-2.212-1.691-4.552-2.674-7.188-2.453c-0.834,0.07-1.698,0.217-1.826,1.23c-0.171,1.365,0.847,1.658,1.861,1.629
			C486.547,473.265,488.93,473.073,491.314,472.931z"/>
		<path fill-rule="evenodd" clip-rule="evenodd" fill="#91603A" d="M254.854,304.484c-6.066-4.406-9.13-11.69-15.312-15.986
			c-0.134-0.094-0.219-0.268-0.358-0.342c-12.88-6.867-11.354-17.77-8.675-29.387c1.322-5.738,2.399-11.654,2.227-17.65
			c1.729-2.303,1.396-5.223,2.316-7.766c2.462-10.961,5.963-21.702,6.989-32.968c0.271-0.054,0.544-0.071,0.819-0.05
			c0.09,4.979,0.832,9.932,0.994,14.873c0.482,14.687,5.744,27.344,15.07,38.461c4.126,4.921,4.927,4.639,7.198-1.384
			c3.408-9.036,8.677-16.456,18.548-19.28c9.922-2.838,19.977-4.478,30.317-2.591c-1.759,3.698-2.644,7.547-3.419,11.616
			c-0.821,4.312,1.24,8.166,0.315,12.223c-2.954,0.394-5.909,0.788-8.863,1.182c-7.325-0.02-14.65-0.07-21.976-0.035
			c-1.547,0.006-3.547-0.571-3.986,1.865c-1.715,9.515-1.508,18.87,3.26,27.551c1.741,3.169,4.193,6.574,8.223,6.461
			c10.684-0.299,20.194-4.104,28.451-10.941c10.901,2.271,21.816,3.117,32.77,0.336c0.465,3.114,4.833,2.627,5.297,5.741
			c-16.193-1.415-31.601,0.979-45.809,9.349c-1.732,1.021-4.245,1.844-4.053,3.943c0.574,6.252-2.527,12.427-0.238,18.656
			c-12.145-1.259-23.812-4.325-35.125-8.927C264.97,307.456,260.118,305.309,254.854,304.484z"/>
		<path fill-rule="evenodd" clip-rule="evenodd" fill="#91603A" d="M501.124,284.643c2.676-0.59,4.565,1.513,6.919,2.021
			c8.554,8.374,17.347,16.52,25.621,25.16c30.666,32.021,58.232,66.637,84.729,102.127c5.572,7.465,11.115,14.955,16.494,22.559
			c1.38,1.949,4.029,4.1,1.041,6.879c-0.327-0.035-0.641,0.016-0.939,0.152c0.797-5.879-4.248-8.85-7.177-12.238
			c-4.537-5.248-10.379-9.256-15.229-14.562c-15.941-17.439-33.734-33-53.238-46.482c-1.05-0.727-1.826-2.176-3.394-1.484
			c-1.375,0.607-0.903,2-0.962,3.1c-0.617,11.561-1.324,23.133-5.154,34.176c-1.731,4.994,0.042,8.039,4.443,9.922
			c1.704,0.729,3.003,1.34,2.725,3.439c-4.679-2.307-9.357-4.611-14.037-6.918c-3.83-3.402-3.525-8.51-4.548-12.781
			c-2.357-9.859-5.592-19.537-7.387-29.467c-2.85-15.766-10.275-29.855-15.132-44.869c-3.786-11.701-8.909-22.968-13.329-34.469
			C501.809,288.926,501.592,286.736,501.124,284.643z"/>
		<path fill-rule="evenodd" clip-rule="evenodd" fill="#6194B4" d="M924.05,663.921c-2.916-5.105-8.298-7.455-12.711-10.67
			c-18.071-13.168-36.608-25.695-54.832-38.656c-20.094-14.293-40.285-28.477-59.829-43.494c-3.985-3.064-9.129-5.789-11.443-10.91
			c-1.994-4.414,1.034-8.35,1.808-12.414c0.413-2.168,3.462-0.732,5.142,0.303c8.312,5.131,16.618,10.273,24.866,15.508
			c9.029,5.73,18.313,11.131,26.897,17.475c9.175,6.781,19.704,11.377,28.551,18.725c2.866,2.379,6.522,6.217,11.551,3.793
			c0.825-0.398,2.254,0.133,2.434-1.197c0.198-1.471-1.333-1.645-2.188-2.346c-1.858-1.521-5.687-0.85-5.396-4.785
			c11.312,5.836,21.945,12.834,32.941,19.211c2.324,1.35,3.576,3.035,4.2,5.713c3.117,13.379,6.494,26.695,9.649,40.066
			C925.997,661.54,927.613,664.069,924.05,663.921z"/>
		<path fill-rule="evenodd" clip-rule="evenodd" fill="#81AEC6" d="M129.204,607.874c-1.662-3.494-5.172-5.105-7.841-7.545
			c-19.912-18.184-36.223-39.383-50.975-61.75c-21.551-32.67-40.061-67.053-55.898-102.862c-0.717-1.621-1.64-2.801,0.077-4.314
			c8.201-7.227,16.157-14.762,25.855-20.057c1.94-0.301,3.871-0.686,5.821-0.869c1.406-0.133,3.303,0.432,2.387,2.039
			c-4.586,8.041,2.121,3.691,4.234,3.793c1.561,0.076,3.146-0.873,4.754-1.199c2.369-0.48,4.611-0.473,5.465,2.48
			c-10.992,6.123-21.954,12.303-32.996,18.334c-2.93,1.602-3.447,3.111-1.758,6.219c15.639,28.757,32.109,57.015,49.648,84.661
			c16.338,25.75,35.576,48.74,60.931,66.17c2.837,1.949,6.215,3.289,8.217,6.35c-0.596,1.52-4.205,1.789-2.328,4.111
			c1.904,2.354,1.021,3.285-0.941,4.539c-1.874,1.197-4.41,1.758-4.854,4.514c-1.969,0.268-2.902-1.316-4.135-2.338
			C133.215,608.778,131.681,607.169,129.204,607.874z"/>
		<path fill-rule="evenodd" clip-rule="evenodd" fill="#AE7951" d="M557.002,419.41c0.278-2.1-1.021-2.711-2.725-3.439
			c-4.401-1.883-6.175-4.928-4.443-9.922c3.83-11.043,4.537-22.615,5.154-34.176c0.059-1.1-0.413-2.492,0.962-3.1
			c1.567-0.691,2.344,0.758,3.394,1.484c19.504,13.482,37.297,29.043,53.238,46.482c4.851,5.307,10.692,9.314,15.229,14.562
			c2.929,3.389,7.974,6.359,7.176,12.236c-1.953,4.686-6.85,7.097-8.999,11.632c-1.524,1.039-2.83,0.242-4.163-0.475
			c-21.096-11.351-42.197-22.692-63.287-34.054C557.97,420.336,557.512,419.824,557.002,419.41z"/>
		<path fill-rule="evenodd" clip-rule="evenodd" fill="#91603A" d="M172.427,284.202c-0.462,19.067,1.295,38.04,2.431,57.038
			c0.258,4.287-0.158,8.319-3.86,11.233c0.079-8.585-6.707-12.786-11.853-17.788c-2.793-2.715-5.941-1.631-8.149,2.055
			c-2.115,3.53-4.536,6.982-7.369,9.947c-3.233,3.385-5.596,7.283-7.993,11.184c-2.48,4.037-1.604,5.485,3.068,5.496
			c8.264,0.019,16.646-0.85,24.225,3.762c0.74,0.451,1.951,0.127,2.943,0.163c0.263,1.739,0.272,3.427-0.996,4.853
			c-6.277,0.533-12.555,1.064-18.832,1.598c-9.428-0.379-18.625,1.32-27.814,3.086c-3.999,0.77-7.903,2.408-12.106,1.33
			c9.231-31.342,25.99-57.98,50.099-79.99C161.485,293.36,166.569,288.328,172.427,284.202z"/>
		<path fill-rule="evenodd" clip-rule="evenodd" fill="#BCAC33" d="M276.633,97.31c-4.572,4.934-9.546,9.561-13.611,14.883
			c-4.51,5.905-8.169,12.458-12.238,18.703c-8.859,13.594-14.334,28.715-19.886,43.809c-1.032,2.805-0.97,5.365,0.135,8.198
			c1.681,4.312,3.672,8.571,4.094,13.287c-2.827,0.476-3.464-1.529-4.542-3.548c-7.234-13.544-8.055-28.6-10.461-43.286
			c-0.026-0.164-0.021-0.333-0.057-0.495c-1.983-9.152-3.481-18.25,2.955-26.462c4.146-2.435,5.852-6.844,7.885-10.704
			c7.123-13.524,18.763-22.674,30.043-32.23c0.011,2.802,0.12,5.608,0.008,8.405c-0.139,3.499,1.37,4.249,4.121,2.465
			c2.994-1.942,6.049-2.854,9.6-1.968c1.219,0.304,2.805-0.214,3.156,1.595c0.279,1.433-0.247,2.561-1.645,3.232
			C272.504,94.964,274.433,96.159,276.633,97.31z"/>
		<path fill-rule="evenodd" clip-rule="evenodd" fill="#6194B4" d="M106.121,378.158c4.203,1.078,8.107-0.561,12.106-1.33
			c9.189-1.766,18.387-3.465,27.814-3.088c-1.472,3.205-5.893,1.676-7.709,4.799c3.612,3.035,8.248,1.127,12.658,2.439
			c-0.83,0.73-1.102,1.154-1.469,1.264c-3.354,0.998-7.363,2.355-8.705,5.023c-1.232,2.451,4.451,0.863,5.088,3.791
			c0.035,0.16,0.045,0.328,0.066,0.492c-0.744,0.287-1.467,0.727-2.236,0.842c-17.881,2.658-35.225,7.316-52.048,13.916
			c-9.542,3.744-19.07,7.521-28.604,11.283c-0.854-2.953-3.096-2.961-5.465-2.48c-1.607,0.326-3.193,1.275-4.754,1.199
			c-2.113-0.102-8.82,4.248-4.234-3.793c0.916-1.607-0.98-2.172-2.387-2.039c-1.95,0.184-3.881,0.568-5.821,0.869
			c8.667-7.711,18.945-12.865,29.099-18.18c10.176-5.326,20.836-9.51,31.872-12.715C103.103,379.955,105.029,379.92,106.121,378.158
			z"/>
		<path fill-rule="evenodd" clip-rule="evenodd" fill="#6194B4" d="M139.002,612.489c0.443-2.758,2.979-3.318,4.854-4.516
			c1.963-1.254,2.846-2.186,0.941-4.539c-1.877-2.322,1.732-2.592,2.328-4.111c1.19,0.021,2.203,0.469,3.263,1.033
			c9.563,5.09,18.745,10.943,29.339,13.945c3.45,0.979,6.096,0.916,9.281-1.129c5.498-3.531,10.255-7.83,15.005-12.215
			c7.481-6.904,12.899-15.445,18.856-23.562c1.051,0.311,2.71-1.414,3.158,0.869c1.154,5.889,4.887,11.018,5.039,17.197
			c-5.812,11.115-13.553,20.189-24.924,26.25c-4.143,2.207-9.006,3.201-12.491,6.645c-6.419,0.082-12.836,0.166-19.253,0.248
			c-7.068-2.166-14.629-2.994-21.006-7.061C148.614,618.497,142.569,617.448,139.002,612.489z"/>
		<path fill-rule="evenodd" clip-rule="evenodd" fill="#385591" d="M666.455,466.384c-5.568,1.09-7.795,6.145-11.258,9.682
			c-0.977,0.998,0.409,1.904,1.427,2.586c1.851,1.242,4.282,2.031,4.432,4.854c-7.575,8.053-7.514,8.008-1.286,16.895
			c1.255,1.791,4.469,3.861,3.106,5.592c-2.266,2.883-5.808,4.832-9.008,6.867c-1.05,0.668-1.994-0.879-2.823-1.621
			c-6.684-5.973-13.293-12.029-20.033-17.936c-1.737-1.523-2.222-2.805-1.36-5.105c1.849-4.941,2.956-10.152,5.26-14.941
			c5.335-0.529,5.845-4.852,6.886-8.758l0.239-0.35c0.175-0.199,0.351-0.398,0.525-0.598c1.938-1.65,4.186-2.797,6.696-2.914
			c4.024-0.189,5.619-2.109,5.012-6.014c6.622,0.277,12.145-3.242,17.666-5.914c5.854-2.833,10.689-2.812,15.124,1.664
			c4.821,4.863,11.396,6.676,16.889,10.363c3.259,2.186,3.852,3.662,0.543,5.984c-0.403-0.104-0.809-0.201-1.215-0.299
			c0.059,0.459,0.117,0.92,0.175,1.381l-0.169-0.188c0,0,0.113,0.225,0.112,0.221c-2.738-0.529-5.558-0.793-8.196-1.627
			c-6.51-2.061-12.778-4.881-19.525-6.203C671.785,459.241,667.326,462.333,666.455,466.384z"/>
		<path fill-rule="evenodd" clip-rule="evenodd" fill="#4B4050" d="M560.007,513.403c-2.648,3.939-7.146,3.205-10.851,3.805
			c-4.873,0.787-9.822,1.217-14.708,2.096c-3.982,0.715-7.203-2.641-11.457-2.025c-4.727,0.686-9.631,0.148-14.458,0.117
			c-0.807-0.006-1.794,0.059-2.032-0.975c-0.22-0.957,0.512-1.623,1.273-1.881c8.405-2.838,6.396-9.99,5.834-15.777
			c-0.451-4.648-0.331-9.264-0.656-13.881c-0.183-2.58,0.896-3.633,3.479-3.514c2.808,0.129,5.658-0.301,8.247,1.311
			c1.35,0.84,2.818,0.924,4.265,0.098c4.229-2.414,9.307-0.797,13.563-2.732c4.35-1.977,9.187,0.613,13.394-1.795
			c0.332-0.135,0.665-0.27,0.997-0.406c1.562,8.393,2.2,16.871,2.389,25.393c-1.779,2.867-2.549,5.656,0.629,8.141
			C559.946,512.052,559.977,512.728,560.007,513.403z"/>
		<path fill-rule="evenodd" clip-rule="evenodd" fill="#639532" d="M260.95,79.465c-11.28,9.556-22.92,18.706-30.043,32.23
			c-2.033,3.86-3.738,8.269-7.885,10.704c-0.639-11.936-1.221-23.875-1.957-35.805c-0.167-2.697,0.696-4.664,2.422-6.695
			c9.561-11.255,19.154-22.493,28.355-34.04c2.715-3.406,5.036-4.742,9.08-2.762c2.207,1.081,4.686,1.605,7.041,2.381
			c-0.514,0.641-0.896,1.587-1.563,1.875c-6.729,2.901-9.78,9.656-14.958,14.178c-3.385,2.955,0.307,4.981,1.483,7.156
			c0.533,0.984,1.294,3.595,3.131,1.904c3.224-2.967,7.681-2.97,11.118-5.296c4.67-3.159,9.908-1.941,15.003-1.723
			c-0.811,1.397-2.241,2.001-3.626,2.387C270.846,68.1,266.156,74.107,260.95,79.465z"/>
		<path fill-rule="evenodd" clip-rule="evenodd" fill="#D1C450" d="M260.95,79.465c5.206-5.357,9.896-11.365,17.602-13.507
			c1.385-0.385,2.815-0.99,3.624-2.388c7.568-1.451,14.437-5.195,22.157-6.389c5.266-0.814,10.874-0.796,15.707-3.686
			c6.877,1.328,13.756,2.648,20.631,3.991c0.853,0.167,1.453,0.696,1.688,1.574c-8.923,4.956-18.869,7.548-27.929,12.283
			c-13.678,7.148-26.354,15.628-37.796,25.966c-2.201-1.151-4.13-2.346-0.444-4.116c1.397-0.671,1.924-1.799,1.645-3.232
			c-0.352-1.81-1.938-1.291-3.156-1.595c-3.551-0.886-6.605,0.026-9.6,1.968c-2.751,1.784-4.26,1.034-4.121-2.465
			C261.07,85.073,260.96,82.267,260.95,79.465z"/>
		<path fill-rule="evenodd" clip-rule="evenodd" fill="#4B4050" d="M163.989,683.349c0.682,2.125,2.387,3.807,2.068,6.408
			c-0.246,2-0.113,3.652-2.843,3.434c-0.917-0.074-2.315-0.15-2.411,1.131c-0.402,5.426-4.649,4.611-8.08,5.156
			c-6.404,1.014-12.861,1.062-19.312,0.875c-7.919-0.229-10.774-3.129-11.167-11c-0.049-0.986-0.175-1.969-0.266-2.953
			c-0.537-4.453,0.906-7.502,4.796-10.375c3.589-2.654,3.859-8.246,7.215-11.57c4.212,0.762,8.492,1.266,12.613,2.365
			c3.252,0.867,5.768,0.438,7.875-2.176c5.871,1.799,5.396,6.836,5.852,11.418C160.615,678.944,159.3,682.665,163.989,683.349z"/>
		<path fill-rule="evenodd" clip-rule="evenodd" fill="#75AB2F" d="M320.04,53.496c-4.833,2.89-10.441,2.872-15.707,3.686
			c-7.721,1.194-14.589,4.938-22.157,6.389c-5.093-0.217-10.331-1.435-15.001,1.724c-3.438,2.326-7.895,2.329-11.118,5.296
			c-1.837,1.691-2.598-0.92-3.131-1.904c-1.177-2.175-4.868-4.201-1.483-7.156c5.178-4.521,8.229-11.276,14.958-14.178
			c0.667-0.287,1.05-1.234,1.563-1.875C285.847,44.743,303.443,45.873,320.04,53.496z"/>
		<path fill-rule="evenodd" clip-rule="evenodd" fill="#D49968" d="M154.477,664.644c-2.107,2.613-4.623,3.043-7.875,2.176
			c-4.121-1.1-8.401-1.604-12.613-2.365c-2.924-2.619-0.981-6.076-1.255-9.041c-0.95-10.303-2.313-20.602-2.215-30.986
			c5.685,3.791,11.382,7.594,16.965,11.504c5.462,3.824,11.906,5.15,17.474,8.471c-2.107,5.34-5.534,9.947-8.277,14.932
			C155.761,661.005,154.235,662.474,154.477,664.644z"/>
		<path fill-rule="evenodd" clip-rule="evenodd" fill="#D49968" d="M538.617,639.444c0.462,7.455,0.924,14.91,1.386,22.365
			c-0.271,1.488,0.399,3.611-2.119,3.709c-8.947,0.35-17.866,1.803-26.853,0.754c-0.357-4.85-5.136-7.229-6.456-11.541
			c1.646-0.119,3.301-0.406,4.935-0.314c2.521,0.143,4.12-0.492,5.581-2.93c3.99-6.656,4.168-6.541,3.288-14.371
			c-0.049-0.432,0.207-1.043,0.531-1.35c2.511-2.367,4.73-5.34,7.69-6.875c6.621-3.436,10.229-0.809,10.492,6.682
			C537.133,636.763,534.999,639.456,538.617,639.444z"/>
		<path fill-rule="evenodd" clip-rule="evenodd" fill="#C0774C" d="M164.958,644.401c-5.567-3.32-12.012-4.646-17.474-8.471
			c-5.583-3.91-11.28-7.713-16.965-11.504c-0.438-5.52-0.878-11.039-1.315-16.555c2.478-0.703,4.012,0.906,5.664,2.277
			c1.232,1.021,2.166,2.605,4.135,2.338c3.566,4.961,9.611,6.01,14.391,9.057c6.377,4.066,13.938,4.895,21.006,7.061
			C171.426,633.976,168.598,639.431,164.958,644.401z"/>
		<path fill-rule="evenodd" clip-rule="evenodd" fill="#332930" d="M511.031,666.272c8.986,1.049,17.905-0.404,26.853-0.754
			c2.519-0.098,1.848-2.221,2.119-3.709c1.26,0.027,2.263,0.562,3.041,1.539c-1.221,3.322-3.873,4.08-7.059,4.092
			c-1.205,0.006-2.921-0.705-3.476,0.945c-0.412,1.225,1.016,1.92,1.757,2.75c3.158,3.541,2.552,5.846-1.952,7.248
			c-1.097,0.34-2.214,0.615-3.33,0.889c-1.329,0.326-2.683,0.723-2.778,2.354c-0.12,2.035,1.669,1.582,2.818,1.953
			c3.729,1.199,7.661,2,9.029,6.615c0.294,0.992,1.899,1.596,2.901,2.379c-9.562,0.113-19.124,0.172-28.684,0.381
			c-2.404,0.053-3.287-0.818-3.085-3.158c0.185-2.131,0.192-4.277,0.278-6.416c0.107-0.109,0.325-0.283,0.305-0.318
			c-0.138-0.236-0.326-0.445-0.498-0.664C512.524,677.313,508.983,671.489,511.031,666.272z"/>
		<path fill-rule="evenodd" clip-rule="evenodd" fill="#C0774C" d="M538.617,639.444c-3.618,0.012-1.483-2.682-1.524-3.871
			c-0.263-7.49-3.871-10.117-10.492-6.682c-2.96,1.535-5.18,4.508-7.69,6.875c-0.324,0.307-0.58,0.918-0.531,1.35
			c0.88,7.83,0.702,7.715-3.288,14.371c-1.461,2.438-3.06,3.072-5.581,2.93c-1.634-0.092-3.288,0.195-4.935,0.314
			c-5.336-6.232-9.936-13.012-14.612-19.73c3.58-3.992,8.744-3.1,13.229-4.145c10.639-2.479,21.695-2.932,32.115-6.529
			c0.915-0.316,1.861-0.877,2.568,0.346c0.072,0.498,0.144,1,0.215,1.5C539.025,630.567,538.66,635.011,538.617,639.444z"/>
		<path fill-rule="evenodd" clip-rule="evenodd" fill="#4B4050" d="M540.955,692.573c-1.002-0.783-2.607-1.387-2.901-2.379
			c-1.368-4.615-5.3-5.416-9.029-6.615c-1.149-0.371-2.938,0.082-2.818-1.953c0.096-1.631,1.449-2.027,2.778-2.354
			c1.116-0.273,2.233-0.549,3.33-0.889c4.504-1.402,5.11-3.707,1.952-7.248c-0.741-0.83-2.169-1.525-1.757-2.75
			c0.555-1.65,2.271-0.939,3.476-0.945c3.186-0.012,5.838-0.77,7.059-4.092c2.023,2.123,1.406,4.908,1.637,7.387
			c0.383,4.115,1.728,7.041,5.845,8.846c4.365,1.916,7.39,5.445,8.531,10.285c0.455,1.93,0.172,3.209-2.296,3.115
			C551.495,692.778,546.204,693.501,540.955,692.573z"/>
		<path fill-rule="evenodd" clip-rule="evenodd" fill="#D49968" d="M654.269,454.622c0.607,3.904-0.987,5.824-5.012,6.014
			c-2.511,0.117-4.758,1.264-6.692,2.912c-0.308,0.08-0.485,0.279-0.529,0.6c0,0-0.239,0.35-0.238,0.348
			c-3.151,1.35-2.223,6.672-6.623,6.812c-4.053-1.83-6.487-4.648-6.813-9.379c-0.158-2.303-0.135-5.025-2.372-6.756
			c2.149-4.537,7.046-6.948,8.999-11.634c0.3-0.135,0.613-0.186,0.94-0.15c2.897,2.996,5.027,6.626,10.562,5.726
			C649.656,448.599,651.516,452.901,654.269,454.622z"/>
		<path fill-rule="evenodd" clip-rule="evenodd" fill="#C0774C" d="M242.041,200.386c-1.026,11.266-4.527,22.007-6.989,32.968
			c0.114-2.141-0.938-3.637-2.335-5.205c-4.507-5.064-7.813-10.738-7.661-17.838c0.15-7.062,3.793-11.592,10.262-14.05
			C237.379,197.926,239.274,199.865,242.041,200.386z"/>
		<path fill-rule="evenodd" clip-rule="evenodd" fill="#4B4050" d="M666.455,466.384c0.871-4.051,5.33-7.143,9.218-6.379
			c6.747,1.322,13.016,4.143,19.525,6.203c2.639,0.834,5.458,1.098,8.196,1.627c-0.855,2.492-2.39,3.09-4.956,2.297
			c-4.858-1.498-9.93-2.369-14.688-4.113c-4.387-1.605-7.541-1.039-9.784,3.172C670.552,470.69,668.628,468.202,666.455,466.384z"/>
		<path fill-rule="evenodd" clip-rule="evenodd" fill="#4B4050" d="M635.174,471.308c4.4-0.141,3.472-5.463,6.623-6.812
			c-1.042,3.908-1.552,8.23-6.887,8.76C634.999,472.604,635.086,471.956,635.174,471.308z"/>
		<path fill-rule="evenodd" clip-rule="evenodd" fill="#332930" d="M559.916,511.376c-3.178-2.484-2.408-5.273-0.629-8.141
			C560.084,505.903,559.94,508.644,559.916,511.376z"/>
		<path fill-rule="evenodd" clip-rule="evenodd" fill="#D6CCCC" d="M511.648,698.706c-0.992-0.68-1.803-1.77-1.122-2.48
			c1.002-1.049,1.258,0.254,1.372,1.008C511.964,697.677,511.75,698.161,511.648,698.706z"/>
		<path fill-rule="evenodd" clip-rule="evenodd" fill="#4B4050" d="M703.451,467.802c-0.058-0.461-0.116-0.922-0.175-1.381
			c0.406,0.098,0.812,0.195,1.215,0.299C704.143,467.083,703.796,467.442,703.451,467.802z"/>
		<path fill-rule="evenodd" clip-rule="evenodd" fill="#D49968" d="M538.09,626.173c-0.071-0.5-0.143-1.002-0.215-1.5
			c0.367-0.025,0.734-0.053,1.101-0.08C538.679,625.12,538.385,625.647,538.09,626.173z"/>
		<path fill-rule="evenodd" clip-rule="evenodd" fill="#4B4050" d="M509.271,682.397c0.172,0.219,0.36,0.428,0.498,0.664
			c0.021,0.035-0.197,0.209-0.305,0.318C509.4,683.052,509.335,682.724,509.271,682.397z"/>
		<path fill-rule="evenodd" clip-rule="evenodd" fill="#81AEC6" d="M231.067,595.462c-0.152-6.18-3.885-11.309-5.039-17.197
			c-0.448-2.283-2.107-0.559-3.157-0.869c3.245-8.166,7.611-15.842,10.156-24.33c3.999-13.338,7.099-26.855,9.13-40.627
			c1.272-8.627,2.694-17.232,3.865-25.871c1.539-11.35,2.172-22.791,3.197-34.189c1.641-18.226,1.846-36.481,2.592-54.729
			c0.119-2.938-1.029-3.963-3.958-4.391c-12.005-1.754-24.06-2.965-36.159-3.615c-21.953-1.18-43.842,0.344-65.723,1.906
			c-0.021-0.164-0.031-0.332-0.066-0.492c-0.637-2.928-6.32-1.34-5.088-3.791c1.342-2.668,5.352-4.025,8.705-5.023
			c0.367-0.109,0.639-0.533,1.469-1.264c-4.41-1.312-9.046,0.596-12.658-2.439c1.816-3.123,6.237-1.594,7.709-4.799
			c6.277-0.531,12.555-1.062,18.832-1.596c12.792,0.518,25.598,0.834,38.375,1.602c17.918,1.078,35.561,4.439,53.29,7.033
			c5.701,0.832,6.837,2.791,6.999,9.549c0.527,21.957,0.545,43.908-0.746,65.843c-0.098,1.656-0.051,3.322-0.07,4.982
			c-2.758,1.398-1.68,4.104-1.862,6.188c-1.447,16.523-2.704,33.062-4.019,49.596c-2.836,14.445-5.459,28.963-10.008,42.979
			C242.822,572.274,238.897,584.759,231.067,595.462z"/>
		<path fill-rule="evenodd" clip-rule="evenodd" fill="#D1C450" d="M415.135,461.69c-0.959,14.773-0.217,29.562-0.361,44.344
			c-0.09,9.131,0.162,18.264,0.261,27.396c0.8,4.82-1.23,6.145-6.024,6.098c-27.982-0.277-55.968-0.229-83.953-0.287
			c1.801-1.295,4.777-0.711,5.009-4.439c0.527-8.488,0.775-8.48,9.439-8.416c1.989,0.014,3.96,0.379,5.92,0.555
			c8.545,0.762,16.99,1.816,25.738,0.887c7.74-0.824,15.075-3.443,22.949-3.68c8.472-0.254,8.438-0.898,8.877-9.5
			c0.059-1.148,0.316-2.291,0.542-3.424c2.113-10.621,3.516-21.264,1.485-32.088c-0.329-1.756,0.247-3.875-2.699-3.652
			c-2.597,0.199-3.52,1.301-3.396,4.078c0.543,12.123-0.698,24.285,0.708,36.398c0.134,1.152-0.758,1.295-1.598,1.432
			c-0.131-0.367-0.262-0.734-0.392-1.102c0.021-5.277,0.042-10.555,0.063-15.832c0.021-0.684,0.044-1.369,0.065-2.055
			c0.011-5.008,0.021-10.018,0.03-15.025c0.001-0.652,0.001-1.307,0.002-1.959c0.002-0.67,0.004-1.34,0.006-2.008
			c0.262-0.527,0.117-0.92-0.396-1.188c-0.434-0.16-0.868-0.32-1.303-0.48c-2.019-0.631-4.044-0.473-6.07-0.043
			c-13.032-0.021-26.063-0.043-39.096-0.064c-0.97-0.012-1.94-0.021-2.91-0.033c-0.678-0.102-1.355-0.203-2.033-0.305
			c0.385-0.5,0.771-1.002,1.155-1.502c-0.278-0.092-0.567-0.289-0.832-0.26c-1.019,0.105-1.297,0.832-1.312,1.732
			c-1.326,0.031-2.652,0.064-3.979,0.096c0.749-0.566,2.184-1.23,2.12-1.682c-0.205-1.43-1.689-1.125-2.784-1.332
			c-8.869-1.678-8.732-1.684-8.476-9.338c0.097-2.883,1.195-3.713,3.887-3.674c5.789,0.086,11.596-0.654,17.328-0.713
			c20.547-0.209,40.978-3.375,61.558-2.238C414.822,459.489,414.978,460.589,415.135,461.69z"/>
		<path fill-rule="evenodd" clip-rule="evenodd" fill="#BCAC33" d="M398.034,517.392c0.839-0.137,1.73-0.279,1.597-1.432
			c-1.406-12.113-0.165-24.275-0.708-36.398c-0.124-2.777,0.799-3.879,3.396-4.078c2.946-0.223,2.37,1.896,2.699,3.652
			c2.03,10.824,0.628,21.467-1.485,32.088c-0.226,1.133-0.483,2.275-0.542,3.424c-0.438,8.602-0.405,9.246-8.877,9.5
			c-7.874,0.236-15.209,2.855-22.949,3.68c-8.748,0.93-17.193-0.125-25.738-0.887c-1.96-0.176-3.931-0.541-5.92-0.555
			c-8.664-0.064-8.912-0.072-9.439,8.416c-0.231,3.729-3.208,3.145-5.009,4.439c-6.629,0.34-6.629,0.34-7.332-8.029
			c0.023-23.865,0.045-47.729,0.067-71.594c0.007-2.355,0.015-4.711,0.022-7.068c3.274-4.074,7.782-2.127,11.58-1.812
			c3.787,0.314,7.577,0.752,11.364,0.637c19.234-0.584,38.426,0.936,57.64,1.275c4.768,0.086,9.851-0.096,14.582,1.553
			c0.393,0.402,0.786,0.805,1.179,1.205c1.072,0.84,0.867,1.898,0.51,2.98c-20.584-1.137-41.015,2.029-61.562,2.238
			c-5.732,0.059-11.539,0.799-17.328,0.713c-2.691-0.039-3.79,0.791-3.887,3.674c-0.257,7.654-0.394,7.66,8.476,9.338
			c1.095,0.207,2.579-0.098,2.784,1.332c0.063,0.451-1.371,1.115-2.121,1.682c-0.546,0.707-1.092,1.416-1.637,2.125
			c-0.571,11.646-0.643,23.295,0.035,34.941c0.032,0.926,0.065,1.854,0.095,2.779c0.195,1.654,1.686,0.93,2.539,1.377
			c1.065,1.137,2.464,0.771,3.757,0.805c16.589,0.406,33.197-0.734,49.773,0.662c1.146,0.096,1.249-0.828,1.383-1.654
			C397.33,518.063,397.681,517.728,398.034,517.392z"/>
		<path fill-rule="evenodd" clip-rule="evenodd" fill="#4B4050" d="M317.792,459.618c-0.022,23.865-0.044,47.729-0.067,71.594
			c-14.435-1.561-28.686-4.121-42.734-7.793c2.863-3.438,2.794-7.822,2.824-11.738c0.106-13.875,0.5-27.699,2.075-41.506
			c0.992-8.703,0.676-8.738-7.694-8.955c3.843-1.533,7.942-0.006,11.831-0.994c1.675-0.164,3.349-0.326,5.022-0.49
			C298.63,459.694,308.211,459.657,317.792,459.618z"/>
		<path fill-rule="evenodd" clip-rule="evenodd" fill="#332930" d="M272.196,461.22c8.37,0.217,8.687,0.252,7.694,8.955
			c-1.575,13.807-1.969,27.631-2.075,41.506c-0.03,3.916,0.039,8.301-2.824,11.738c-4.982-1.117-9.965-2.24-14.95-3.346
			c-1.728-0.383-3.165-1.027-3.2-3.131c1.314-16.539,2.571-33.078,4.019-49.602c0.183-2.084-0.896-4.789,1.862-6.188
			C265.878,461.175,269.038,461.196,272.196,461.22z"/>
		<path fill-rule="evenodd" clip-rule="evenodd" fill="#D49968" d="M363.881,410.125c-0.333,0-0.666,0-0.999,0
			c-10.062,0.02-11.251-1.445-9.684-11.549c0.472-3.037,2.106-3.645,4.549-2.4c4.871,2.482,9.651,5.141,14.482,7.699
			c1.689,0.895,1.566,2.418,1.392,3.908c-0.184,1.561-1.251,2.311-2.753,2.344c-2.328,0.053-4.658,0.014-6.987,0.014
			C363.881,410.135,363.881,410.131,363.881,410.125z"/>
		<path fill-rule="evenodd" clip-rule="evenodd" fill="#639532" d="M317.792,459.618c-9.581,0.039-19.162,0.076-28.743,0.117
			c1.047-1.951,2.912-1.24,4.466-1.264c5.661-0.084,11.327-0.139,16.987-0.025c3.238,0.066,6.17,0.162,5.628-4.465
			c-0.114-0.977,0.779-1.355,1.687-1.434C317.807,454.907,317.799,457.263,317.792,459.618z"/>
		<path fill-rule="evenodd" clip-rule="evenodd" fill="#639532" d="M426.979,331.414c-3.022,2.638-4.144,7.345-8.86,8.139
			l-0.109-0.121c2.114-3.633,4.521-6.945,8.877-8.131L426.979,331.414z"/>
		<path fill-rule="evenodd" clip-rule="evenodd" fill="#D1C450" d="M414.16,455.407c-0.393-0.4-0.786-0.803-1.179-1.205
			C413.374,454.603,413.767,455.005,414.16,455.407z"/>
		<path fill-rule="evenodd" clip-rule="evenodd" fill="#D49968" d="M335.179,131.224c-1.618-2.36-2.686-4.936-3.049-7.788
			c5.555-2.017,10.169-0.419,14.72,3.099c2.609,2.017,5.294,3.795,7.487,6.35c1.812,2.111,4.156,3.768,6.292,5.595
			c0.772,0.662,1.693,1.254,2.652,0.437c0.86-0.733,0.29-1.781-0.25-2.173c-2.651-1.923-0.316-3.679,0.038-5.494
			c3.357,0.476,4.764,3.372,6.625,5.566c4.707,5.548,8.768,11.589,13.24,18.866c0.24-12.765-2.225-24.074-3.002-36.866
			c20.59,13.892,30.275,34.475,41.529,55.123c1.804-9.185,0.986-17.464,2.128-25.752c8.197,21.742,14.298,44.048,17.577,67.114
			c-0.775,0.478-0.945,1.251-1.177,2.074c-3.521,12.544-7.107,25.07-14.119,36.25c-0.82,1.308-0.969,3.581-3.148,3.34
			c-1.853-0.205-1.607-2.283-2.245-3.547c-3.992-7.922-8.448-15.445-17.266-18.915c-14.503-5.707-29.645-4.263-44.672-3.677
			c-1.422,0.055-3.375,0.1-4.568,1.553c-1.465,0.217-2.922,0.504-4.394,0.639c-5.91,0.538-11.718,1.178-17.146-2.538
			c-7.408-5.07-9.003-12.605-9.371-20.653c-0.258-5.643-1.174-11.102-2.893-16.453c-2.362-8.731-6.235-16.323-15.155-20.112
			c2.481-2.206,4.089,0.19,5.973,1.135c0.358,0.406,0.577,1.313,1.312,0.365c-0.441-0.118-0.882-0.236-1.322-0.354
			c-0.237-2.663,4.289-2.196,3.485-4.687c-1.344-4.165,0.154-6.914,3.152-9.521c2.872-2.498,5.574-4.656,9.78-5.012
			c6.443-0.545,9.281-3.702,9.567-9.062c0.521,0.409,1.07,0.785,1.556,1.231c1.074,0.988,2.168,2.739,3.699,1.668
			c1.607-1.125,0.078-2.707-0.424-4.006C339.95,140.25,338.092,135.482,335.179,131.224z M387.911,198.452
			c5.757,3.272,4.401,8.89,4.581,14.372c2.12-7.385,7.774-5.271,12.381-4.871c9.339,0.811,10.067,0.383,10.089-8.598
			c-2.668-7.026-7.442-12.512-12.979-17.36c-5.973-5.229-12.829-8.288-20.982-7.44c-12.14,1.262-20.794,7.317-25.442,18.756
			c-0.483,1.19-1.339,2.576-0.075,3.652c0.679,0.578,1.494-0.22,2.041-0.865c-1.427,4.204-0.994,8.187,1.25,12.037
			c0.564,0.969,0.768,2.678,2.227,1.627c4.601-3.312,11.418,1.44,15.263-4.316c0.051-0.076,0.314-0.01,0.479-0.01
			c0.111,1.993,0.108,4,0.36,5.976c0.448,3.513,2.69,5.591,6.012,6.194c3.121,0.566,4.876-1.566,6.151-4.066
			C391.97,208.238,391.021,203.242,387.911,198.452z"/>
		<path fill-rule="evenodd" clip-rule="evenodd" fill="#C0774C" d="M310.986,174.396c-1.884-0.944-3.491-3.341-5.973-1.134
			c-19.319-4.503-34.565,8.266-35.687,21.481c1.695-0.026,2.533-1.472,3.615-2.347c11.535-9.32,23.696-10.061,36.463-2.822
			c2.877,1.631,5.718,3.363,8.388,5.307c2.476,1.802,2.258,0.044,2.376-1.507c1.719,5.352,2.635,10.811,2.893,16.453
			c0.368,8.048,1.963,15.583,9.371,20.653c5.429,3.716,11.236,3.076,17.146,2.538c1.472-0.135,2.929-0.422,4.394-0.639
			c0.114,2.938-1.269,4.438-4.177,5.11c-3.021,0.698-5.921,1.919-8.874,2.911c-2.101-1.71-4.284-2.824-6.885-0.964
			c-4.042-0.886-8.294-2.024-10.655-5.438c-2.286-3.306-4.947-3.916-8.394-3.583c-10.341-1.887-20.396-0.247-30.317,2.591
			c-9.871,2.824-15.14,10.244-18.548,19.28c-2.271,6.022-3.072,6.305-7.198,1.384c-9.326-11.117-14.588-23.774-15.07-38.461
			c-0.162-4.941-0.904-9.895-0.994-14.873c1.291-22.254,4.959-44.127,11.174-65.516c2.715-9.344,8.091-17.334,14.395-24.784
			c2.749-3.25,5.479-3.061,8.816-2.009c12.482,3.937,23.836,9.919,34.171,18.018c3.459,2.71,7.123,5.434,11.479,6.794
			c0.494,2.292,2.43,3.485,4.012,4.798c3.376,2.801,7.304,4.94,10.055,8.488c-0.286,5.36-3.124,8.517-9.567,9.062
			c-4.206,0.356-6.908,2.514-9.78,5.012c-2.998,2.607-4.496,5.356-3.152,9.521c0.804,2.491-3.723,2.024-3.485,4.687L310.986,174.396
			z M289.995,206.858c-0.107,6.251,3.047,10.933,7.212,10.704c4.13-0.227,7.139-5.299,6.657-11.223
			c-0.425-5.228-3.839-9.68-7.229-9.426C293.139,197.176,290.083,201.752,289.995,206.858z"/>
		<path fill-rule="evenodd" clip-rule="evenodd" fill="#AE7951" d="M340.921,240.4c2.953-0.992,5.854-2.213,8.874-2.911
			c2.908-0.672,4.291-2.173,4.177-5.11c1.193-1.453,3.146-1.498,4.568-1.553c15.027-0.586,30.169-2.03,44.672,3.677
			c8.817,3.47,13.273,10.993,17.266,18.915c0.638,1.264,0.393,3.342,2.245,3.547c2.18,0.241,2.328-2.032,3.148-3.34
			c7.012-11.18,10.599-23.706,14.119-36.25c0.231-0.823,0.401-1.597,1.177-2.074c0.642-0.408,1.282-0.814,1.924-1.225
			c0.001-0.002-0.026,0.268-0.026,0.268c1.167,9.17,0.778,18.624,5.016,27.227c-1.568,7.682-1.389,15.344,0.156,23.014
			c1.771,8.795,2.277,17.707,1.705,26.631c-0.208,3.238-3.557,5.086-4.853,7.955c-3.531,0.049-6.053,2.564-9.098,3.801
			c-20.477,8.319-41.525,14.596-63.332,18.253c-5.052,0.848-10.131,1.929-15.221,2.077c-10.479,0.309-20.976,0.061-31.464,0.041
			c-0.729-0.326-1.432-0.734-2.189-0.967c-6.157-1.885-12.741-1.779-18.826-4.014c-2.289-6.229,0.812-12.404,0.238-18.656
			c-0.192-2.1,2.32-2.922,4.053-3.943c14.208-8.37,29.615-10.764,45.808-9.35c4.959,1.33,9.92,2.66,14.88,3.99
			c1.642-0.154,3.402,0.025,4.905-0.515c15.044-5.407,25.611-16.564,28.049-32.585c1.098-7.215-0.216-8.043-7.036-5.352
			c-7.743,3.054-15.913,5.438-24.083,5.133C359.117,256.611,348.805,250.41,340.921,240.4z"/>
		<path fill-rule="evenodd" clip-rule="evenodd" fill="#C0774C" d="M363.07,131.25c-0.354,1.815-2.689,3.571-0.038,5.494
			c0.54,0.392,1.11,1.439,0.25,2.173c-0.959,0.817-1.88,0.225-2.652-0.437c-2.136-1.827-4.48-3.484-6.292-5.595
			c-2.193-2.555-4.878-4.333-7.487-6.35c-4.551-3.518-9.165-5.116-14.72-3.099c-0.555-1.014-1.438-1.978-1.603-3.052
			c-0.437-2.851-4.269-5.647-1.963-8.054c1.718-1.793,5.323,0.337,7.862,1.184c7.814,2.604,15.729,5.196,21.422,11.741
			c0.545,2.412-2.57,7.907,4.243,5.03l-0.085,0.043c0.351,0.349,0.7,0.698,1.05,1.047L363.07,131.25z"/>
		<path fill-rule="evenodd" clip-rule="evenodd" fill="#91603A" d="M336.961,146.125c-2.751-3.548-6.679-5.687-10.055-8.488
			c-1.582-1.313-3.518-2.506-4.012-4.798c1.934-2.058,4.23-0.852,6.362-0.601c1.386,0.163,4.424-0.137,5.92-1.013
			c2.915,4.257,4.772,9.024,6.615,13.793c0.502,1.3,2.031,2.881,0.424,4.006c-1.531,1.071-2.625-0.68-3.699-1.668
			C338.032,146.91,337.482,146.534,336.961,146.125z"/>
		<path fill-rule="evenodd" clip-rule="evenodd" fill="#D49968" d="M362.092,130.286c-6.813,2.877-3.698-2.618-4.243-5.03
			C359.694,126.568,362.019,127.477,362.092,130.286z"/>
		<path fill-rule="evenodd" clip-rule="evenodd" fill="#D49968" d="M363.057,131.376c-0.35-0.349-0.699-0.698-1.05-1.047
			C362.815,130.22,363.164,130.57,363.057,131.376z"/>
		<path fill-rule="evenodd" clip-rule="evenodd" fill="#D49968" d="M325.975,323.342c10.488,0.02,20.984,0.268,31.464-0.041
			c5.09-0.148,10.169-1.229,15.221-2.077c21.807-3.657,42.855-9.934,63.332-18.253c3.045-1.236,5.566-3.752,9.098-3.801
			c-1.24,6.968-4.893,12.826-8.713,18.571c-3.054,4.593-6.318,9.046-9.49,13.56c-4.355,1.186-6.763,4.498-8.877,8.131
			c-6.219,1.5-10.302,6.437-15.267,9.854c-7.597,5.229-15.362,10.084-23.587,14.194c-1.936,0.968-4.446,1.624-5.421,3.29
			c-3.483,5.959-10.002,5.768-15.225,8.135c-2.65,1.201-4.732,0.434-4.608-2.896c0.105-2.807-1.1-3.973-3.694-4.943
			c-10.532-3.939-20.945-8.195-31.417-12.297c-0.975-0.382-1.862-0.709-2.016-1.898c3.902-4.261,3.662-10.379,3.928-15.003
			c0.242-4.212,0.284-5.018,4.056-5.452c0.9-0.104,1.27-2.178,1.242-3.574C325.964,327.008,325.981,325.174,325.975,323.342z"/>
		<path fill-rule="evenodd" clip-rule="evenodd" fill="#C0774C" d="M325.975,323.342c0.006,1.832-0.011,3.666,0.025,5.498
			c0.027,1.396-0.342,3.471-1.242,3.574c-3.771,0.435-3.813,1.24-4.056,5.452c-0.266,4.624-0.025,10.742-3.928,15.003
			c-8.601-3.723-17.325-7.325-24.55-13.441c-13.027-11.027-28.03-19.97-37.371-34.944c5.264,0.825,10.116,2.973,14.98,4.951
			c11.313,4.602,22.98,7.668,35.125,8.927c6.085,2.234,12.669,2.129,18.826,4.014C324.543,322.607,325.247,323.016,325.975,323.342z
			"/>
		<path fill-rule="evenodd" clip-rule="evenodd" fill="#AE7951" d="M165.87,367.292c-0.992-0.036-2.203,0.288-2.943-0.163
			c-7.578-4.611-15.961-3.743-24.225-3.762c-4.672-0.011-5.549-1.459-3.068-5.496c2.397-3.9,4.76-7.799,7.993-11.184
			c2.833-2.965,5.254-6.417,7.369-9.947c2.208-3.686,5.356-4.77,8.149-2.055c5.146,5.002,11.932,9.203,11.853,17.788
			C170.301,357.764,169.27,362.938,165.87,367.292z"/>
		<path fill-rule="evenodd" clip-rule="evenodd" fill="#D49968" d="M373.056,386.826c0.029,7.029-1.613,8.117-7.834,5.281
			c-3.155-1.439-6.395-2.697-9.526-4.184c-2.318-1.098-2.636-2.529-0.035-3.699c2.846-1.279,5.719-2.527,8.665-3.543
			C371.912,378.066,373.023,378.893,373.056,386.826z"/>
		<path fill-rule="evenodd" clip-rule="evenodd" fill="#D6CCCC" d="M895.372,648.036c-6.407,0.326-11.225,1.127-16.302-3.299
			c-9.939-8.666-20.95-16.096-31.299-24.312c-2.071-1.643-5.208-3.008-5.023-6.594c2.927,0.305,5.86,1.188,7.982,3.002
			c6.391,5.465,13.779,9.453,20.459,14.447c6.639,4.963,13.293,9.842,20.646,13.715
			C892.897,645.556,893.711,646.585,895.372,648.036z"/>
		<path fill-rule="evenodd" clip-rule="evenodd" fill="#4B4050" d="M489.812,517.581c5.38-1.748,10.208,2.623,15.734,1.951
			c0.955-0.117,2.004,0.549,1.933,1.779c-0.065,1.119-1.181,0.82-1.888,1.117c-5.433,2.281-10.225-0.822-15.164-1.975
			c-3.311-0.771-6.324-1.92-9.425,0.275c-1.176,0.832-2.532,0.662-3.851,0.629c-1.216-0.031-2.633-0.328-2.615-1.691
			c0.022-1.693,1.678-1.139,2.73-1.25C481.362,517.985,485.392,516.761,489.812,517.581z"/>
		<path fill-rule="evenodd" clip-rule="evenodd" fill="#4B4050" d="M513.808,475.979c8.205-1.547,15.508,0.082,22.826,0.588
			c0.984,0.068,2.01,0.625,1.78,1.896c-0.193,1.068-1.254,0.992-2.021,0.934c-5.559-0.426-11.329,1.355-16.651-1.545
			C518.125,476.97,516.055,478.089,513.808,475.979z"/>
		<path fill-rule="evenodd" clip-rule="evenodd" fill="#4B4050" d="M491.314,472.931c-2.384,0.143-4.767,0.334-7.152,0.406
			c-1.015,0.029-2.032-0.264-1.861-1.629c0.128-1.014,0.992-1.16,1.826-1.23C486.762,470.257,489.102,471.239,491.314,472.931z"/>
		<path fill-rule="evenodd" clip-rule="evenodd" fill="#C0774C" d="M448.081,241.57c-4.237-8.603-3.849-18.057-5.016-27.227
			c8.656-0.076,11.942,3.157,11.919,11.805C454.966,232.298,453.737,237.932,448.081,241.57z"/>
		<path fill-rule="evenodd" clip-rule="evenodd" fill="#D49968" d="M340.921,240.4c7.884,10.01,18.195,16.211,30.852,16.684
			c8.17,0.306,16.34-2.079,24.083-5.133c6.82-2.691,8.134-1.863,7.036,5.352c-2.438,16.021-13.005,27.178-28.049,32.585
			c-1.503,0.54-3.264,0.36-4.904,0.515c0.152-1.91,1.377-3.297,2.261-4.883c1.923-3.45,3.709-6.986,5.376-10.568
			c0.612-1.316,1.013-3.074-0.39-4.112c-1.248-0.923-2.644,0.1-3.627,0.865c-7.017,5.462-15.978,5.692-23.797,8.968
			c-10.953,2.781-21.868,1.935-32.77-0.336c-2.114-2.279-5.741-1.85-7.736-3.969c-2.642-2.805-7.726-1.582-9.23-5.941
			c12.716,2.557,25.562,3.951,38.388,1.597c3.864-0.709,8.011,0.548,11.595-1.716l-0.114,0.057c1.443-0.271,3.291,0.564,4.081-1.492
			c4.078-1.99,9.277-0.402,12.844-4.023c2.326-1.256,5.774-0.223,7.113-3.49c1.039-2.029-0.645-1.783-1.659-1.863
			c-13.054-1.035-26.108-1.36-39.16,0.053c-6.397-0.311-12.789-0.26-19.172,0.32c-3.636-0.145-7.272-0.289-10.908-0.434
			c-0.004-1.332-0.008-2.665-0.012-3.998c2.954-0.394,5.909-0.788,8.864-1.181c3.306-0.958,7.032-1.255,9.82-3.026
			c4.803-3.053,10.524-5.482,12.331-11.792C336.637,237.576,338.821,238.69,340.921,240.4z"/>
		<path fill-rule="evenodd" clip-rule="evenodd" fill="#C0774C" d="M303.021,255.436c0.004,1.333,0.008,2.666,0.011,3.998
			c-4.143,0.188-8.285,0.377-12.428,0.565c-3.412,0.513-2.14,1.827-0.547,3.196c2.753,3.195,6.945,4.408,9.969,7.23
			c1.505,4.359,6.589,3.137,9.23,5.941c1.995,2.119,5.622,1.689,7.736,3.969c-8.257,6.838-17.768,10.643-28.451,10.941
			c-4.029,0.113-6.481-3.292-8.223-6.461c-4.768-8.681-4.975-18.036-3.26-27.551c0.439-2.437,2.439-1.859,3.986-1.865
			C288.371,255.365,295.696,255.416,303.021,255.436z"/>
		<path fill-rule="evenodd" clip-rule="evenodd" fill="#AE7951" d="M334.037,239.437c-1.807,6.31-7.528,8.739-12.331,11.792
			c-2.788,1.771-6.515,2.068-9.82,3.026c0.924-4.058-1.138-7.911-0.316-12.224c0.775-4.069,1.66-7.918,3.419-11.616
			c3.446-0.333,6.107,0.277,8.394,3.583C325.743,237.412,329.995,238.551,334.037,239.437z"/>
		<path fill-rule="evenodd" clip-rule="evenodd" fill="#C0774C" d="M349.762,280.672c7.819-3.275,16.78-3.506,23.797-8.968
			c0.983-0.766,2.379-1.788,3.627-0.865c1.402,1.038,1.002,2.796,0.39,4.112c-1.667,3.582-3.453,7.118-5.376,10.568
			c-0.884,1.586-2.108,2.973-2.261,4.883c-4.961-1.33-9.922-2.66-14.881-3.99C354.595,283.299,350.227,283.786,349.762,280.672z"/>
		<path fill-rule="evenodd" clip-rule="evenodd" fill="#385591" d="M145.971,391.549c21.881-1.562,43.77-3.086,65.723-1.906
			c12.1,0.65,24.154,1.861,36.159,3.615c2.929,0.428,4.077,1.453,3.958,4.391c-0.746,18.248-0.951,36.504-2.592,54.729
			c-1.025,11.398-1.658,22.84-3.197,34.189c-1.171,8.639-2.593,17.244-3.865,25.871c-2.031,13.771-5.131,27.289-9.13,40.627
			c-2.545,8.488-6.911,16.164-10.156,24.33c-5.958,8.117-11.376,16.658-18.857,23.562c-4.75,4.385-9.507,8.684-15.005,12.215
			c-3.186,2.045-5.831,2.107-9.281,1.129c-10.594-3.002-19.775-8.855-29.339-13.945c-1.06-0.564-2.072-1.012-3.263-1.033
			c-2.002-3.061-5.38-4.4-8.217-6.35c-25.354-17.43-44.593-40.42-60.931-66.17c-17.539-27.646-34.01-55.904-49.648-84.661
			c-1.689-3.107-1.172-4.617,1.758-6.219c11.042-6.031,22.004-12.211,32.996-18.334c9.533-3.762,19.062-7.539,28.604-11.283
			c16.823-6.6,34.167-11.258,52.048-13.916C144.504,392.275,145.227,391.836,145.971,391.549z M208.703,491.726
			c-0.005-0.668-0.356-1.043-0.993-1.178l0.055,0.123c-0.633-2.92-2.255-4.975-5.162-5.906l0.082-0.006
			c-0.037-0.652-0.355-0.979-1.031-0.891c-0.352-0.414-0.703-0.826-1.055-1.24c0.599-1.533,0.133-2.346-1.572-2.318l0.047,0.053
			c0.051-1.025-0.336-1.658-1.461-1.635l0.197-0.299l-0.16,0.32c-0.234-1.643-0.482-3.275-2.662-3.395l0.037,0.033
			c-0.025-0.639-0.381-0.961-0.993-1.037c-1.409-1.631-2.901-3.195-4.208-4.904c-2.044-2.674-3.291-2.654-4.699,0.666
			c-7.195,16.965-14.561,33.859-21.834,50.791c-0.564,1.311-2.121,2.793-0.973,4.074c1.168,1.301,3.148,0.539,4.768,0.275
			c10.006-1.619,20.02-3.1,30.119-4.096c8.74-0.861,17.423-2.318,26.121-3.578c2.509-0.363,4.326-1.025,1.836-4.02
			c-2.627-3.162-4.873-6.641-7.286-9.979c-1.44-4.338-3.167-8.449-7.956-10.166l0.043,0.047c0.064-0.996-0.256-1.699-1.367-1.805
			L208.703,491.726z M145.618,415.549c-0.593,0.771-0.984,1.119-1.178,1.555c-8.017,18.064-16.033,36.128-23.999,54.216
			c-1.27,2.881,0.542,3.094,2.716,2.795c19.562-2.699,39.127-5.385,58.686-8.123c1.209-0.17,2.965,0.193,3.301-1.531
			c0.277-1.422-0.939-2.4-1.879-3.32c-2.12-2.076-3.896-4.457-5.77-6.688C166.821,441.75,157.272,428.113,145.618,415.549z
			 M96.56,534.644c0.318-0.029,0.484-0.039,0.65-0.061c19.76-2.602,39.521-5.193,59.276-7.814c3.412-0.451,2.674-1.805,0.988-3.855
			c-12.113-14.732-24.142-29.537-36.163-44.348c-1.492-1.838-2.518-2.592-3.766,0.268c-7.643,17.504-15.365,34.971-23.086,52.439
			C93.392,533.688,94.144,534.729,96.56,534.644z"/>
		<path fill-rule="evenodd" clip-rule="evenodd" fill="#4B4050" d="M642.036,464.147c0.044-0.32,0.222-0.52,0.529-0.6
			C642.386,463.749,642.21,463.948,642.036,464.147z"/>
		<path fill-rule="evenodd" clip-rule="evenodd" fill="#332930" d="M339.528,517.21c-0.032-0.926-0.065-1.854-0.1-2.779
			c0.869-11.646,0.839-23.295-0.033-34.941c0.545-0.709,1.091-1.418,1.637-2.125c1.327-0.031,2.653-0.064,3.979-0.096
			c0.33,0.01,0.659,0.02,0.989,0.029c0.678,0.102,1.355,0.203,2.031,0.305c0.96,0.926,1.932,0.893,2.912,0.033
			c13.032,0.021,26.063,0.043,39.094,0.064c2.017,1.006,4.042,0.836,6.072,0.043c0.435,0.16,0.869,0.32,1.3,0.48
			c0.132,0.396,0.266,0.791,0.399,1.188c-0.002,0.668-0.004,1.338-0.006,2.008c-0.756,0.65-0.779,1.305-0.002,1.959
			c-0.01,5.008-0.02,10.018-0.029,15.025c-0.296,0.662-0.592,1.324-0.887,1.986c-1.456,0.234-2.904,0.57-4.369,0.688
			c-11.505,0.922-23.079-0.412-34.59,1.176c-2.907,0.402-4.184,1.027-3.992,4.082c0.228,3.639,0.141,7.297,0.188,10.947
			C349.256,517.259,344.392,517.235,339.528,517.21z"/>
		<path fill-rule="evenodd" clip-rule="evenodd" fill="#4B4050" d="M354.124,517.28c-0.05-3.648,0.037-7.307-0.19-10.945
			c-0.191-3.055,1.085-3.68,3.992-4.082c11.511-1.588,23.085-0.254,34.59-1.176c1.465-0.117,2.913-0.453,4.369-0.688
			c0.271,0.049,0.545,0.072,0.82,0.068c-0.021,5.277-0.043,10.555-0.063,15.832c-1.159,0.182-2.4,0.232-2.732,1.725
			c-0.644,0.012-1.287,0.023-1.931,0.035c-0.33-0.424-0.66-0.426-0.988,0.002c-0.693-0.008-1.387-0.018-2.079-0.027
			c-1.495-1.096-3.216-0.615-4.839-0.625C374.756,517.329,364.44,517.313,354.124,517.28z"/>
		<path fill-rule="evenodd" clip-rule="evenodd" fill="#91603A" d="M394.909,518.015c0.332-1.492,1.573-1.543,2.732-1.725
			c0.13,0.367,0.261,0.734,0.392,1.102c-0.352,0.336-0.703,0.672-1.056,1.008C396.288,518.271,395.598,518.144,394.909,518.015z"/>
		<path fill-rule="evenodd" clip-rule="evenodd" fill="#91603A" d="M396.109,477.743c-2.03,0.793-4.056,0.963-6.072-0.043
			C392.065,477.271,394.09,477.112,396.109,477.743z"/>
		<path fill-rule="evenodd" clip-rule="evenodd" fill="#BCAC33" d="M346,477.298c-0.33-0.01-0.659-0.02-0.989-0.029
			c0.016-0.9,0.294-1.627,1.312-1.732c0.265-0.029,0.554,0.168,0.832,0.26C346.77,476.296,346.384,476.798,346,477.298z"/>
		<path fill-rule="evenodd" clip-rule="evenodd" fill="#91603A" d="M350.943,477.636c-0.98,0.859-1.952,0.893-2.912-0.033
			C349.002,477.614,349.973,477.624,350.943,477.636z"/>
		<path fill-rule="evenodd" clip-rule="evenodd" fill="#91603A" d="M397.705,500.458c-0.275,0.004-0.549-0.02-0.82-0.068
			c0.295-0.662,0.591-1.324,0.887-1.986C397.749,499.089,397.726,499.774,397.705,500.458z"/>
		<path fill-rule="evenodd" clip-rule="evenodd" fill="#91603A" d="M397.8,483.378c-0.777-0.654-0.754-1.309,0.002-1.959
			C397.801,482.071,397.801,482.726,397.8,483.378z"/>
		<path fill-rule="evenodd" clip-rule="evenodd" fill="#91603A" d="M397.808,479.411c-0.134-0.396-0.268-0.791-0.399-1.188
			C397.925,478.491,398.07,478.884,397.808,479.411z"/>
		<path fill-rule="evenodd" clip-rule="evenodd" fill="#D1C450" d="M394.909,518.015c0.689,0.129,1.379,0.256,2.068,0.385
			c-0.134,0.826-0.237,1.75-1.383,1.654c-16.576-1.396-33.185-0.256-49.773-0.662c-1.293-0.033-2.691,0.332-3.757-0.805
			c15.948-0.188,31.897-0.375,47.847-0.562c0.692,0.01,1.386,0.02,2.078,0.029c0.329-0.002,0.659-0.002,0.989-0.004
			C393.622,518.038,394.265,518.026,394.909,518.015z"/>
		<path fill-rule="evenodd" clip-rule="evenodd" fill="#91603A" d="M389.911,518.024c-15.949,0.188-31.898,0.375-47.847,0.562
			c-0.854-0.447-2.344,0.277-2.539-1.377c4.867,0.025,9.731,0.049,14.597,0.072c10.318,0.031,20.635,0.047,30.95,0.117
			C386.695,517.409,388.416,516.929,389.911,518.024z"/>
		<path fill-rule="evenodd" clip-rule="evenodd" fill="#91603A" d="M339.395,479.489c0.872,11.646,0.902,23.295,0.033,34.941
			C338.752,502.784,338.824,491.136,339.395,479.489z"/>
		<path fill-rule="evenodd" clip-rule="evenodd" fill="#C0774C" d="M376.742,205.436c-0.165,0-0.429-0.066-0.479,0.01
			c-3.845,5.757-10.662,1.004-15.263,4.316c-1.459,1.051-1.662-0.658-2.227-1.627c-2.244-3.851-2.677-7.833-1.248-12.025
			c3.676-4.928,9.062-7.119,14.672-8.642c8.894-2.414,17.024,0.958,25.046,4.122c5.994,2.365,11.819,5.161,17.719,7.767
			c-0.021,8.98-0.75,9.408-10.089,8.598c-4.606-0.4-10.261-2.514-12.381,4.871c-0.18-5.482,1.176-11.1-4.581-14.372l0.042,0.026
			c-0.113-0.463-0.227-0.926-0.34-1.389c-0.259,0.162-0.517,0.323-0.774,0.485C380.859,196.359,379.529,197.395,376.742,205.436z"/>
		<path fill-rule="evenodd" clip-rule="evenodd" fill="#624125" d="M414.961,199.355c-5.899-2.605-11.725-5.402-17.719-7.767
			c-8.021-3.164-16.152-6.536-25.046-4.122c-5.61,1.523-10.996,3.714-14.672,8.642c-0.549,0.634-1.364,1.432-2.043,0.854
			c-1.264-1.076-0.408-2.462,0.075-3.652c4.648-11.439,13.303-17.494,25.442-18.756c8.153-0.848,15.01,2.211,20.982,7.44
			C407.519,186.843,412.293,192.33,414.961,199.355z"/>
		<path fill-rule="evenodd" clip-rule="evenodd" fill="#624125" d="M320.168,193.373c-0.118,1.551,0.1,3.31-2.376,1.507
			c-2.67-1.943-5.511-3.676-8.388-5.307c-12.767-7.239-24.928-6.498-36.463,2.822c-1.082,0.875-1.92,2.321-3.615,2.347
			c1.121-13.216,16.367-25.984,35.687-21.481C313.933,177.05,317.806,184.642,320.168,193.373z"/>
		<path fill-rule="evenodd" clip-rule="evenodd" fill="#332930" d="M376.742,205.436c2.787-8.041,4.117-9.076,10.098-7.861
			c0.371,0.302,0.742,0.604,1.113,0.904l-0.042-0.026c3.11,4.79,4.06,9.786,1.354,15.087c-1.275,2.5-3.03,4.633-6.151,4.066
			c-3.321-0.604-5.563-2.682-6.012-6.194C376.85,209.436,376.853,207.429,376.742,205.436z M387.624,203.265
			c-0.561-1.807-1.363-3.462-3.48-3.567c-1.347-0.068-2.088,0.963-1.889,2.271c0.271,1.782,1.528,2.954,3.206,3.265
			C386.652,205.453,387.628,204.713,387.624,203.265z"/>
		<path fill-rule="evenodd" clip-rule="evenodd" fill="#C0774C" d="M310.976,174.407c0.44,0.118,0.881,0.236,1.322,0.354
			c-0.735,0.949-0.954,0.042-1.312-0.365L310.976,174.407z"/>
		<path fill-rule="evenodd" clip-rule="evenodd" fill="#332930" d="M289.995,206.858c0.089-5.106,3.145-9.683,6.641-9.944
			c3.39-0.254,6.804,4.198,7.229,9.426c0.481,5.924-2.527,10.996-6.657,11.223C293.042,217.791,289.887,213.109,289.995,206.858z"/>
		<path fill-rule="evenodd" clip-rule="evenodd" fill="#FFFFFF" d="M366.819,264.848c-3.566,3.621-8.766,2.033-12.844,4.025
			c-1.388,0.424-3.152-0.186-4.081,1.49l0.113-0.057c-7.322,0.279-14.645,0.559-21.966,0.838c5.457-2.906,6.763-5.893,5.071-11.598
			c13.052-1.413,26.106-1.088,39.16-0.053c1.015,0.08,2.698-0.166,1.659,1.863c-6.633,0.714-13.267,1.428-21.331,2.295
			C358.287,265.012,362.58,264.535,366.819,264.848z"/>
		<path fill-rule="evenodd" clip-rule="evenodd" fill="#D6CCCC" d="M333.113,259.547c1.691,5.705,0.386,8.691-5.071,11.6
			c-0.783,0.389-1.548,0.341-2.297-0.096c-0.146-0.138-0.307-0.156-0.481-0.055c-2.367,0.871-4.799,0.092-7.193,0.277
			c-0.302-2.364-3.047-2.016-4.029-3.624c-1.049-2.581-1.688-5.167-0.1-7.782C320.324,259.287,326.715,259.236,333.113,259.547z"/>
		<path fill-rule="evenodd" clip-rule="evenodd" fill="#AE7951" d="M318.071,271.271c2.394-0.184,4.825,0.596,7.191-0.275
			c-0.002,0.002,0.228,0.144,0.228,0.144l0.255-0.089c0.749,0.437,1.514,0.484,2.297,0.096c7.321-0.281,14.644-0.561,21.966-0.84
			c-3.583,2.264-7.729,1.007-11.594,1.716c-12.825,2.354-25.672,0.96-38.388-1.597c-3.023-2.822-7.216-4.035-9.969-7.23
			c3.197,0.57,6.528,0.551,9.483,2.176C305.328,268.562,311.458,270.674,318.071,271.271z"/>
		<path fill-rule="evenodd" clip-rule="evenodd" fill="#6194B4" d="M313.941,259.867c-1.588,2.615-0.949,5.201,0.099,7.779
			c-2.531-0.799-5.86,1.146-7.639-2.229c0.023-0.492,2.715-0.167,0.65-0.904c-5.34-1.906-10.947-3.061-16.447-4.515
			c4.143-0.188,8.285-0.377,12.428-0.565C306.668,259.578,310.305,259.723,313.941,259.867z"/>
		<path fill-rule="evenodd" clip-rule="evenodd" fill="#624125" d="M366.819,264.848c-4.239-0.312-8.532,0.164-14.218-1.195
			c8.064-0.867,14.698-1.581,21.331-2.295C372.593,264.625,369.145,263.592,366.819,264.848z"/>
		<path fill-rule="evenodd" clip-rule="evenodd" fill="#AE7951" d="M349.894,270.363c0.929-1.676,2.693-1.066,4.081-1.49
			C353.185,270.928,351.337,270.093,349.894,270.363z"/>
		<path fill-rule="evenodd" clip-rule="evenodd" fill="#624125" d="M290.604,259.999c5.5,1.454,11.107,2.608,16.447,4.515
			c2.064,0.737-0.627,0.412-0.644,0.904c-2.284-0.016-4.576-0.031-6.867-0.047c-2.955-1.625-6.286-1.605-9.483-2.176
			C288.464,261.826,287.192,260.512,290.604,259.999z"/>
		<path fill-rule="evenodd" clip-rule="evenodd" fill="#D1C450" d="M217.875,503.581c2.413,3.338,4.659,6.816,7.286,9.979
			c2.49,2.994,0.673,3.656-1.836,4.02c-8.698,1.26-17.381,2.717-26.121,3.578c-10.1,0.996-20.113,2.477-30.119,4.096
			c-1.619,0.264-3.6,1.025-4.768-0.275c-1.148-1.281,0.408-2.764,0.973-4.074c7.273-16.932,14.639-33.826,21.834-50.791
			c1.408-3.32,2.655-3.34,4.699-0.666c1.307,1.709,2.799,3.273,4.208,4.904c0.034,0.631,0.346,0.994,0.993,1.037l-0.037-0.033
			c0.545,1.4,1.105,2.789,2.662,3.395l0.16-0.32c0,0-0.197,0.299-0.195,0.299c0.209,0.791,0.611,1.41,1.459,1.635l-0.047-0.053
			c0.256,0.955,0.652,1.814,1.572,2.318c0.352,0.414,0.703,0.826,1.054,1.236c0.344,0.297,0.688,0.596,1.032,0.895
			c0,0-0.082,0.006-0.08,0.006c1.26,2.369,2.571,4.695,5.16,5.906c0,0-0.055-0.123-0.053-0.123
			c-0.053,0.717,0.283,1.104,0.991,1.178c0,0-0.108-0.068-0.106-0.068c-0.04,0.977,0.447,1.553,1.365,1.805
			c0,0-0.043-0.047-0.043-0.045C211.663,497.515,214.723,500.583,217.875,503.581z"/>
		<path fill-rule="evenodd" clip-rule="evenodd" fill="#D1C450" d="M145.618,415.549c11.654,12.564,21.203,26.201,31.877,38.903
			c1.874,2.23,3.649,4.611,5.77,6.688c0.939,0.92,2.156,1.898,1.879,3.32c-0.336,1.725-2.092,1.361-3.301,1.531
			c-19.559,2.738-39.123,5.424-58.686,8.123c-2.174,0.299-3.985,0.086-2.716-2.795c7.966-18.088,15.982-36.151,23.999-54.216
			C144.633,416.668,145.025,416.32,145.618,415.549z"/>
		<path fill-rule="evenodd" clip-rule="evenodd" fill="#D1C450" d="M96.56,534.644c-2.416,0.086-3.168-0.955-2.1-3.371
			c7.721-17.469,15.443-34.936,23.086-52.439c1.248-2.859,2.273-2.105,3.766-0.268c12.021,14.811,24.05,29.615,36.163,44.348
			c1.686,2.051,2.424,3.404-0.988,3.855c-19.756,2.621-39.517,5.213-59.276,7.814C97.044,534.604,96.878,534.614,96.56,534.644z"/>
		<path fill-rule="evenodd" clip-rule="evenodd" fill="#4B4050" d="M217.875,503.581c-3.151-2.998-6.212-6.066-7.956-10.164
			C214.708,495.132,216.434,499.243,217.875,503.581z"/>
		<path fill-rule="evenodd" clip-rule="evenodd" fill="#4B4050" d="M207.764,490.671c-2.589-1.211-3.9-3.537-5.16-5.906
			C205.509,485.696,207.131,487.751,207.764,490.671z"/>
		<path fill-rule="evenodd" clip-rule="evenodd" fill="#4B4050" d="M197.649,478.749c-1.557-0.605-2.117-1.994-2.662-3.395
			C197.167,475.474,197.415,477.106,197.649,478.749z"/>
		<path fill-rule="evenodd" clip-rule="evenodd" fill="#4B4050" d="M200.598,482.628c-0.92-0.504-1.316-1.363-1.572-2.318
			C200.731,480.282,201.197,481.095,200.598,482.628z"/>
		<path fill-rule="evenodd" clip-rule="evenodd" fill="#4B4050" d="M199.073,480.362c-0.848-0.225-1.25-0.844-1.459-1.635
			C198.737,478.704,199.124,479.337,199.073,480.362z"/>
		<path fill-rule="evenodd" clip-rule="evenodd" fill="#4B4050" d="M209.961,493.462c-0.918-0.252-1.405-0.828-1.365-1.805
			C209.706,491.763,210.026,492.466,209.961,493.462z"/>
		<path fill-rule="evenodd" clip-rule="evenodd" fill="#4B4050" d="M195.024,475.388c-0.647-0.043-0.959-0.406-0.993-1.037
			C194.643,474.427,194.999,474.749,195.024,475.388z"/>
		<path fill-rule="evenodd" clip-rule="evenodd" fill="#4B4050" d="M208.703,491.726c-0.708-0.074-1.044-0.461-0.991-1.178
			C208.346,490.683,208.698,491.058,208.703,491.726z"/>
		<path fill-rule="evenodd" clip-rule="evenodd" fill="#4B4050" d="M202.684,484.759c-0.344-0.299-0.688-0.598-1.032-0.895
			C202.329,483.78,202.647,484.106,202.684,484.759z"/>
		<path fill-rule="evenodd" clip-rule="evenodd" fill="#91603A" d="M392.978,518.05c-0.33,0.002-0.66,0.002-0.989,0.004
			C392.318,517.624,392.648,517.626,392.978,518.05z"/>
		<path fill-rule="evenodd" clip-rule="evenodd" fill="#D49968" d="M387.953,198.479c-0.371-0.301-0.742-0.603-1.113-0.904
			c0.257-0.161,0.515-0.322,0.773-0.484C387.726,197.553,387.839,198.016,387.953,198.479z"/>
		<path fill-rule="evenodd" clip-rule="evenodd" fill="#D6CCCC" d="M387.624,203.265c0.005,1.448-0.972,2.188-2.163,1.968
			c-1.678-0.311-2.936-1.482-3.206-3.265c-0.199-1.308,0.542-2.339,1.889-2.271C386.26,199.803,387.063,201.458,387.624,203.265z"/>
		<path fill-rule="evenodd" clip-rule="evenodd" fill="#D49968" d="M299.541,265.371c2.291,0.016,4.583,0.031,6.867,0.047
			c1.771,3.374,5.101,1.43,7.632,2.229c0.983,1.611,3.729,1.263,4.03,3.627C311.458,270.674,305.328,268.562,299.541,265.371z"/>
		<path fill-rule="evenodd" clip-rule="evenodd" fill="#FFFFFF" d="M325.745,271.051l-0.255,0.089c0,0-0.229-0.142-0.228-0.144
			C325.438,270.895,325.598,270.913,325.745,271.051z"/>
	</g>
</g>
</svg>
