<?xml version="1.0" encoding="utf-8"?>
<!-- Generator: Adobe Illustrator 16.0.0, SVG Export Plug-In . SVG Version: 6.00 Build 0)  -->
<!DOCTYPE svg PUBLIC "-//W3C//DTD SVG 1.1//EN" "http://www.w3.org/Graphics/SVG/1.1/DTD/svg11.dtd">
<svg version="1.1" id="Lager_1" xmlns="http://www.w3.org/2000/svg" xmlns:xlink="http://www.w3.org/1999/xlink" x="0px" y="0px"
	 width="389.98px" height="220.489px" viewBox="0 0 389.98 220.489" enable-background="new 0 0 389.98 220.489"
	 xml:space="preserve">
<g>
	<path fill="#010202" d="M61.233,34.229l-15.504,0.772l-0.231,27.896H29.567c0,0,2,16.533,15.833,16.859
		c13.833,0.326,16.127-12.696,15.833-13.861s-0.114-30.894-0.114-30.894"/>
	<polyline fill="#010202" points="83.709,35.5 59.733,79.062 107.4,79.757 85.067,35.5 	"/>
	<polyline fill="#010202" points="109.981,35.5 132.733,59.062 133.634,34.86 148.08,34.86 149.26,80.276 109.981,80.276 	"/>
	<circle fill="#010202" cx="199.517" cy="56.563" r="22.45"/>
	<polyline fill="#010202" points="224.699,34.113 242.5,34.113 242.5,65.562 259.212,66.727 259.212,78.53 224.699,79.014 	"/>
	<polygon fill="#010202" points="287.035,35.211 260.535,79.014 308.15,78.577 	"/>
	<polyline fill="#010202" points="291.567,33.491 315.623,78.05 340.967,34.113 	"/>
	<path fill="#010202" d="M364.4,41.69c0,0-8.86-12.962-18.333-6.479s-9.54,15.23-4.659,19.685s6.122,7.286,6.122,7.286l-8.855,6.987
		c0,0,4.727,12.464,14.394,9.846c9.667-2.618,11.609-8.801,11.333-11.285c-0.275-2.484,0.167-7.546-3.666-10.94
		s-5.167-5.394-5.167-5.394"/>
</g>
<text transform="matrix(1 0 0 1 35.7317 182.396)" fill="#681300" font-family="'PacFont'" font-size="89.4596">QUIZ</text>
<g enable-background="new    ">
	<path fill="none" stroke="#8A1002" stroke-width="17" d="M125.907,187.496l-13.508,11.54l-6.889-7.693
		c-7.575,4.89-16.281,7.335-26.122,7.335c-6.322,0-11.958-1.162-16.908-3.488c-6.322-2.983-11.779-7.277-16.371-12.883
		c-4.772-5.844-7.754-12.046-8.946-18.607c-0.478-2.862-0.715-5.694-0.715-8.498c0-12.167,4.353-22.663,13.061-31.49
		c8.11-8.23,18.458-12.346,31.042-12.346c6.142,0,11.898,1.163,17.266,3.489c7.395,3.221,13.717,8.351,18.965,15.387
		c4.95,6.681,7.425,14.882,7.425,24.602c0,8.768-1.999,16.581-5.994,23.438C120.061,180.249,122.626,183.32,125.907,187.496z
		 M122.06,186.699l-6.889-7.604c0-1.552,0.656-3.609,1.968-6.174c1.55-2.803,2.445-4.86,2.684-6.173
		c1.252-3.578,1.879-7.396,1.879-11.452c0-8.529-2.565-16.523-7.693-23.979c-3.757-5.426-8.738-9.691-14.94-12.794
		c-5.964-2.922-12.316-4.384-19.055-4.384c-7.098,0-13.569,1.643-19.413,4.926c-6.62,3.643-11.869,8.672-15.745,15.091
		c-3.877,6.419-5.786,13.33-5.726,20.732c0.059,7.881,2.085,15.136,6.079,21.763c4.231,6.984,9.894,12.029,16.986,15.135
		c4.768,2.866,10.399,4.299,16.896,4.299c9.894,0,18.803-2.851,26.73-8.548l7.102,7.663L122.06,186.699z M78.315,119.864
		c-6.799,0.955-12.913,3.251-18.339,6.889c-6.144,4.115-10.169,9.214-12.077,15.297c-0.418,1.194-0.805,2.357-1.163,3.489
		c-0.478,1.312-0.715,2.505-0.715,3.578h-1.61c1.013-6.202,3.607-11.927,7.783-17.176c4.353-5.486,9.452-9.154,15.298-11.004
		c4.294-1.371,7.902-2.116,10.825-2.236V119.864z M83.593,155.558c-0.179,2.147-1.073,3.578-2.684,4.294
		c-0.299,0.061-0.568,0.09-0.805,0.09c-1.194,0-2.416-0.953-3.668-2.863c-0.12-0.237-0.179-0.506-0.179-0.805
		c0-1.789,1.073-3.042,3.22-3.758c0.895,0,1.774,0.284,2.639,0.851C82.98,153.934,83.472,154.664,83.593,155.558z"/>
	<path fill="none" stroke="#8A1002" stroke-width="17" d="M201.409,169.693c-0.895,5.428-2.923,10.438-6.083,15.029
		c-3.281,4.831-7.38,8.558-12.301,11.183c-4.92,2.623-10.512,3.936-16.773,3.936c-7.873,0-14.642-1.938-20.308-5.814
		c-6.204-4.235-10.587-9.871-13.15-16.908c-2.028-5.605-3.042-12.703-3.042-21.291c0-3.758,0.253-9.438,0.76-17.042
		c0.506-7.604,0.76-13.225,0.76-16.863c0-3.697-0.179-7.007-0.537-9.93h70.673V169.693z M198.994,115.123H133.42
		c0.537,3.28,0.805,7.038,0.805,11.271c0,3.341-0.239,8.47-0.715,15.388c-0.479,6.919-0.716,12.047-0.716,15.387
		c0,8.23,1.042,15,3.131,20.308c2.624,6.56,7.097,11.688,13.419,15.387c4.771,2.803,10.347,4.204,16.729,4.204
		c5.368,0,10.302-1.028,14.806-3.086c4.502-2.058,8.394-5.323,11.674-9.796c3.042-4.174,5.1-8.767,6.173-13.776L198.994,115.123z
		 M194.879,153.679c0.237,1.969,0.358,3.907,0.358,5.815c0,14.194-5.07,24.064-15.208,29.61c-1.252,0.716-2.923,1.401-5.01,2.058
		c-1.73,0.596-3.489,1.163-5.278,1.7c-0.239-0.12-0.329-0.357-0.269-0.716c0-0.478,0-0.746,0-0.805
		c10.675-2.863,17.355-7.575,20.039-14.135c2.624-4.89,3.936-11.152,3.936-18.787c0-1.489,0-3.07,0-4.741H194.879z"/>
	<path fill="none" stroke="#8A1002" stroke-width="17" d="M244.44,200.288h-36.68l0.27-89.102h36.41V200.288z M241.666,197.694
		v-83.913h-31.4v83.913H241.666z M227.531,119.685h-10.917c-0.296,5.13-0.444,12.942-0.444,23.438
		c0,10.556-0.15,18.399-0.447,23.527h-0.805l-0.358-48.576c2.981-0.119,7.305,0.03,12.972,0.447V119.685z"/>
	<path fill="none" stroke="#8A1002" stroke-width="17" d="M346.958,113.244l-34.173,58.864l14.671,0.269l0.536,27.375l-74.698,0.269
		c0.118-0.418,0.029-0.896-0.269-1.432h-0.895c3.16-6.263,7.842-14.613,14.045-25.049c7.098-12.046,11.898-20.396,14.403-25.049
		l-30.059-0.447v-36.32h96.438V113.244z M342.714,114.675h-89.688v30.863h30.868l1.517,1.073
		c-0.775,1.373-5.785,9.782-15.029,25.228c-6.084,10.199-10.914,18.697-14.492,25.496h68.258v-21.917
		c-1.071-0.059-2.916-0.059-5.533,0c-2.381,0.06-4.226,0.06-5.533,0c-1.965-0.115-3.689-0.376-5.177-0.783
		C315.539,161.272,327.143,141.285,342.714,114.675z M298.382,193.22h-34.89l14.045-24.601l1.074,0.268
		c-1.016,2.863-2.924,6.62-5.726,11.272c-3.341,5.486-5.487,9.214-6.441,11.183c3.579,0.298,8.915,0.432,16.014,0.402
		c7.097-0.031,12.403,0.104,15.924,0.402V193.22z M334.792,118.522l-13.329,23.527l-1.074-0.358
		c3.279-6.766,7.186-13.742,11.719-20.93l-0.805-0.808h-22.275v-1.432H334.792z"/>
</g>
<text transform="matrix(1 0 0 1 18.7322 171.895)" fill="#CC2017" font-family="'PacFont'" font-size="100">QUIZ</text>
<g enable-background="new    ">
	<path fill="none" stroke="#E30613" stroke-width="17" d="M119.532,177.595l-15.1,12.899l-7.7-8.6c-8.467,5.466-18.2,8.2-29.2,8.2
		c-7.067,0-13.367-1.3-18.9-3.9c-7.067-3.334-13.167-8.134-18.3-14.399c-5.334-6.533-8.667-13.466-10-20.801
		c-0.535-3.199-0.8-6.365-0.8-9.5c0-13.6,4.866-25.332,14.6-35.199c9.066-9.2,20.633-13.801,34.7-13.801
		c6.866,0,13.3,1.301,19.3,3.9c8.266,3.6,15.333,9.334,21.2,17.2c5.533,7.467,8.3,16.634,8.3,27.5c0,9.8-2.234,18.534-6.7,26.2
		C112.998,169.495,115.865,172.928,119.532,177.595z M115.232,176.705l-7.7-8.5c0-1.734,0.733-4.034,2.2-6.901
		c1.733-3.133,2.733-5.434,3-6.9c1.4-4,2.1-8.268,2.1-12.802c0-9.534-2.867-18.47-8.6-26.805c-4.2-6.065-9.767-10.833-16.7-14.302
		c-6.667-3.266-13.767-4.899-21.3-4.899c-7.935,0-15.167,1.836-21.7,5.506c-7.4,4.072-13.267,9.694-17.6,16.869
		c-4.334,7.175-6.467,14.899-6.4,23.175c0.066,8.81,2.332,16.919,6.795,24.326c4.73,7.809,11.06,13.447,18.988,16.919
		c5.33,3.203,11.625,4.805,18.887,4.805c11.06,0,21.019-3.186,29.88-9.555l7.939,8.565L115.232,176.705z M66.332,101.995
		c-7.6,1.067-14.435,3.635-20.5,7.7c-6.867,4.601-11.367,10.3-13.5,17.101c-0.467,1.334-0.9,2.634-1.3,3.899
		c-0.534,1.468-0.8,2.8-0.8,4h-1.8c1.133-6.933,4.033-13.333,8.7-19.2c4.866-6.133,10.566-10.232,17.1-12.3
		c4.8-1.532,8.833-2.365,12.1-2.5V101.995z M72.232,141.895c-0.2,2.4-1.2,4-3,4.8c-0.334,0.067-0.634,0.101-0.9,0.101
		c-1.334,0-2.7-1.066-4.1-3.2c-0.134-0.266-0.2-0.565-0.2-0.9c0-2,1.2-3.399,3.6-4.2c1,0,1.983,0.317,2.95,0.95
		C71.548,140.08,72.098,140.895,72.232,141.895z"/>
	<path fill="none" stroke="#E30613" stroke-width="17" d="M203.93,157.695c-1,6.067-3.267,11.667-6.799,16.8
		c-3.667,5.4-8.25,9.566-13.75,12.5s-11.75,4.4-18.75,4.4c-8.8,0-16.367-2.167-22.7-6.5c-6.934-4.734-11.834-11.034-14.7-18.9
		c-2.267-6.266-3.4-14.199-3.4-23.8c0-4.2,0.283-10.55,0.85-19.05c0.566-8.5,0.85-14.783,0.85-18.85c0-4.133-0.2-7.833-0.6-11.101
		h79V157.695z M201.231,96.695h-73.3c0.6,3.667,0.9,7.867,0.9,12.601c0,3.734-0.268,9.467-0.8,17.199
		c-0.534,7.734-0.8,13.468-0.8,17.2c0,9.2,1.166,16.768,3.5,22.7c2.933,7.333,7.933,13.065,15,17.2c5.333,3.133,11.565,4.7,18.7,4.7
		c6,0,11.516-1.15,16.55-3.45c5.033-2.3,9.383-5.95,13.05-10.95c3.399-4.666,5.7-9.8,6.899-15.4L201.231,96.695z M196.631,139.795
		c0.266,2.199,0.399,4.367,0.399,6.5c0,15.867-5.667,26.899-17,33.1c-1.4,0.8-3.267,1.565-5.6,2.3c-1.934,0.666-3.9,1.3-5.9,1.9
		c-0.267-0.135-0.367-0.4-0.3-0.8c0-0.535,0-0.835,0-0.9c11.933-3.2,19.4-8.467,22.4-15.8c2.933-5.466,4.4-12.466,4.4-21
		c0-1.666,0-3.433,0-5.3H196.631z"/>
	<path fill="none" stroke="#E30613" stroke-width="17" d="M252.03,191.895h-41l0.301-99.6h40.699V191.895z M248.93,188.995v-93.8
		h-35.1v93.8H248.93z M233.13,101.795h-12.203c-0.331,5.734-0.497,14.467-0.497,26.199c0,11.801-0.167,20.567-0.5,26.301h-0.9
		l-0.399-54.301c3.333-0.133,8.165,0.035,14.5,0.5V101.795z"/>
	<path fill="none" stroke="#E30613" stroke-width="17" d="M366.629,94.595l-38.199,65.8l16.398,0.3l0.602,30.601l-83.501,0.3
		c0.133-0.468,0.032-1-0.3-1.601h-1c3.532-7,8.766-16.334,15.699-28c7.934-13.465,13.301-22.8,16.101-28l-33.601-0.5v-40.6h107.801
		V94.595z M361.885,96.195H261.629v34.5h34.504l1.695,1.2c-0.867,1.534-6.467,10.935-16.8,28.2c-6.8,11.399-12.2,20.899-16.2,28.5
		h76.301v-24.5c-1.197-0.065-3.26-0.065-6.184,0c-2.662,0.067-4.725,0.067-6.188,0c-2.195-0.128-4.123-0.421-5.785-0.875
		C331.508,148.283,344.479,125.94,361.885,96.195z M312.328,183.995h-39l15.7-27.5l1.2,0.301c-1.135,3.199-3.268,7.399-6.4,12.6
		c-3.734,6.133-6.134,10.3-7.199,12.5c4,0.333,9.965,0.482,17.899,0.45c7.933-0.034,13.866,0.115,17.8,0.45V183.995z
		 M353.03,100.495l-14.9,26.301l-1.199-0.402c3.664-7.562,8.031-15.36,13.1-23.395l-0.9-0.903h-24.9v-1.601H353.03z"/>
</g>
<path fill="#FFE121" d="M118.232,141.146c0,16.31-8.263,30.688-20.833,39.181c-7.541,5.096-16.632,8.069-26.417,8.069
	c-26.095,0-47.25-21.153-47.25-47.25s21.155-47.25,47.25-47.25C97.077,93.896,118.232,115.049,118.232,141.146z"/>
<polyline fill="#FFE121" points="104.4,188.396 118.232,176.896 110.401,167.208 94.9,171.895 "/>
<path fill="#FFE121" d="M127.9,93.896v61.5c0,0,2.25,33,23.5,33c11.512,0,49.5,2,51-28.5s0-66,0-66"/>
<polyline fill="#FFE121" points="213.4,93.896 213.4,190.896 250.4,190.896 250.4,93.896 "/>
<polyline fill="#FFE121" points="261.9,93.896 364.4,96.396 326.4,161.896 342.4,161.896 343.9,188.401 261.9,190.896 
	297.4,133.896 261.9,132.896 "/>
<g enable-background="new    ">
	<path stroke="#000000" stroke-width="3" d="M120.443,177.647l-15.1,12.898l-7.701-8.6c-8.467,5.467-18.2,8.201-29.2,8.201
		c-7.067,0-13.367-1.301-18.9-3.9c-7.067-3.334-13.167-8.135-18.3-14.4c-5.334-6.533-8.667-13.465-10-20.801
		c-0.535-3.199-0.8-6.365-0.8-9.5c0-13.6,4.866-25.332,14.6-35.199c9.066-9.199,20.633-13.8,34.7-13.8c6.866,0,13.3,1.301,19.3,3.9
		c8.266,3.599,15.333,9.333,21.2,17.201c5.532,7.467,8.3,16.633,8.3,27.5c0,9.799-2.234,18.533-6.699,26.199
		C113.907,169.545,116.775,172.979,120.443,177.647z M116.142,176.756l-7.699-8.5c0-1.734,0.732-4.035,2.199-6.902
		c1.733-3.133,2.733-5.434,3-6.9c1.4-4,2.101-8.268,2.101-12.801c0-9.535-2.867-18.471-8.601-26.805
		c-4.199-6.066-9.767-10.834-16.7-14.303c-6.667-3.266-13.767-4.899-21.3-4.899c-7.935,0-15.167,1.836-21.7,5.506
		c-7.4,4.072-13.267,9.693-17.6,16.869c-4.334,7.174-6.467,14.898-6.4,23.174c0.066,8.811,2.332,16.92,6.795,24.326
		c4.73,7.809,11.06,13.447,18.988,16.92c5.33,3.203,11.625,4.805,18.887,4.805c11.06,0,21.019-3.186,29.88-9.555l7.938,8.564
		L116.142,176.756z M67.242,102.045c-7.6,1.068-14.435,3.635-20.5,7.701c-6.867,4.6-11.367,10.299-13.5,17.1
		c-0.467,1.334-0.9,2.635-1.3,3.9c-0.534,1.467-0.8,2.799-0.8,4h-1.8c1.133-6.934,4.033-13.334,8.7-19.201
		c4.866-6.133,10.566-10.232,17.1-12.299c4.8-1.533,8.833-2.365,12.1-2.5V102.045z M73.142,141.946c-0.2,2.4-1.2,4-3,4.801
		c-0.334,0.066-0.634,0.1-0.9,0.1c-1.334,0-2.7-1.066-4.1-3.199c-0.134-0.266-0.2-0.566-0.2-0.9c0-2,1.2-3.4,3.6-4.201
		c1,0,1.983,0.318,2.95,0.951C72.458,140.131,73.008,140.946,73.142,141.946z"/>
	<path stroke="#000000" stroke-width="3" d="M204.84,157.747c-1,6.066-3.267,11.666-6.799,16.799
		c-3.667,5.4-8.251,9.566-13.751,12.5s-11.75,4.4-18.75,4.4c-8.799,0-16.367-2.166-22.699-6.5c-6.935-4.734-11.834-11.033-14.7-18.9
		c-2.267-6.266-3.399-14.199-3.399-23.799c0-4.201,0.282-10.551,0.85-19.051c0.565-8.5,0.85-14.783,0.85-18.85
		c0-4.133-0.199-7.833-0.6-11.1h78.999V157.747z M202.141,96.746h-73.3c0.6,3.667,0.9,7.868,0.9,12.6
		c0,3.734-0.268,9.467-0.801,17.199c-0.534,7.734-0.8,13.469-0.8,17.201c0,9.199,1.165,16.768,3.5,22.699
		c2.933,7.334,7.933,13.066,15,17.201c5.333,3.133,11.565,4.699,18.7,4.699c6,0,11.516-1.15,16.55-3.449
		c5.032-2.301,9.383-5.951,13.05-10.951c3.399-4.666,5.7-9.799,6.899-15.4L202.141,96.746z M197.541,139.846
		c0.266,2.199,0.399,4.367,0.399,6.5c0,15.867-5.667,26.9-17,33.1c-1.4,0.801-3.268,1.566-5.6,2.301c-1.935,0.666-3.9,1.299-5.9,1.9
		c-0.268-0.135-0.367-0.4-0.3-0.801c0-0.535,0-0.834,0-0.9c11.933-3.199,19.399-8.467,22.399-15.799c2.934-5.467,4.4-12.467,4.4-21
		c0-1.666,0-3.434,0-5.301H197.541z"/>
	<path stroke="#000000" stroke-width="3" d="M252.94,191.946h-41l0.301-99.599h40.699V191.946z M249.84,189.045V95.246h-35.1v93.799
		H249.84z M234.04,101.846h-12.203c-0.331,5.734-0.497,14.467-0.497,26.199c0,11.801-0.167,20.568-0.5,26.301h-0.9l-0.399-54.301
		c3.333-0.133,8.165,0.035,14.5,0.5V101.846z"/>
	<path stroke="#000000" stroke-width="3" d="M367.539,94.646l-38.199,65.799l16.398,0.301l0.602,30.6l-83.501,0.301
		c0.133-0.469,0.032-1-0.3-1.602h-1c3.532-7,8.766-16.334,15.699-28c7.934-13.465,13.301-22.799,16.101-28l-33.601-0.5V92.946
		h107.801V94.646z M362.795,96.246H262.539v34.5h34.504l1.695,1.199c-0.867,1.535-6.467,10.936-16.8,28.201
		c-6.8,11.398-12.2,20.898-16.2,28.5h76.301v-24.5c-1.197-0.066-3.26-0.066-6.184,0c-2.662,0.066-4.725,0.066-6.188,0
		c-2.195-0.129-4.123-0.422-5.785-0.875C332.418,148.334,345.389,125.991,362.795,96.246z M313.239,184.045h-39l15.7-27.5l1.2,0.301
		c-1.135,3.199-3.268,7.4-6.4,12.6c-3.734,6.133-6.134,10.301-7.199,12.5c4,0.334,9.965,0.482,17.899,0.451
		c7.933-0.035,13.866,0.115,17.8,0.449V184.045z M353.94,100.545l-14.9,26.301l-1.199-0.402c3.664-7.562,8.031-15.359,13.1-23.395
		l-0.9-0.902h-24.9v-1.602H353.94z"/>
</g>
<g>
	<path fill="#FFFFFF" d="M62.346,66.6c-0.44,2.326-1.425,4.511-2.95,6.556c-1.526,2.042-3.376,3.693-5.547,4.951
		c-2.267,1.352-4.941,2.028-8.026,2.028c-3.493,0-6.522-0.803-9.088-2.408c-2.564-1.604-4.541-3.651-5.925-6.137
		c-1.385-2.486-2.077-5.146-2.077-7.978c0-0.473,0.031-0.944,0.095-1.417H44.17l0.378-28.846h17.798V66.6z M61.119,35.001H45.729
		l-0.236,28.562H30.243c0.252,3.998,1.542,7.302,3.872,9.914c3.115,3.525,6.939,5.288,11.472,5.288c1.479,0,2.941-0.221,4.391-0.66
		c2.675-0.786,5.035-2.279,7.082-4.48c2.046-2.202,3.335-4.652,3.871-7.356L61.119,35.001z M58.9,51.855c0,2.896,0,5.776,0,8.64
		c-0.094,3.336-0.565,6.027-1.416,8.073c-1.039,2.611-2.771,4.595-5.192,5.948c-1.574,0.85-3.541,1.464-5.901,1.841v-0.661
		c2.778-0.882,4.776-1.669,5.994-2.36c2.154-1.228,3.544-2.864,4.169-4.91c1.029-1.763,1.545-4.296,1.545-7.601
		c0-0.597,0-1.471,0-2.62s0-2.006,0-2.573c0-1.479,0.078-2.738,0.236-3.777H58.9z"/>
	<path fill="#FFFFFF" d="M58.049,80.087l26.816-46.596c3.398,6.075,7.521,13.77,12.369,23.086l12.134,23.37L58.049,80.087z
		 M106.938,78.577L84.864,36.524L60.5,78.671L106.938,78.577z M86.14,61.959c0.094,0.755-0.032,1.433-0.378,2.03
		c-0.409,0.693-0.991,1.039-1.747,1.039c-0.944,0-1.668-0.503-2.172-1.511c-0.094-0.598-0.047-1.18,0.143-1.747
		c0.251-0.691,0.677-1.116,1.274-1.274c0.188-0.031,0.378-0.047,0.566-0.047C84.802,60.448,85.574,60.952,86.14,61.959z
		 M103.041,76.311L93.363,76.5v-0.614l8.073-0.236c-0.347-1.133-1.117-2.785-2.312-4.957c-1.26-2.297-2.077-4.013-2.455-5.146
		l0.565-0.331L103.041,76.311z"/>
	<path fill="#FFFFFF" d="M149.26,80.276h-39.279V33.349l22.048,24.645l0.426-24.739h16.807L149.26,80.276L149.26,80.276z
		 M148.08,78.907V34.86h-14.445l-0.189,26.627c-3.021-3.065-6.752-7.079-11.188-12.04c-3.714-4.14-7.412-8.264-11.094-12.372v41.832
		H148.08z M144.775,75.225h-12.32v-0.614c1.445-0.158,3.319-0.236,5.617-0.236h5.713l0.378-13.785h0.425L144.775,75.225z"/>
	<path fill="#FFFFFF" d="M220.832,65.013c-1.229,3.592-3.525,6.757-6.894,9.499c-3.369,2.74-6.925,4.395-10.67,4.962
		c-1.322,0.188-2.629,0.283-3.919,0.283c-4.249,0-8.167-1.04-11.755-3.119c-3.588-2.08-6.468-4.994-8.64-8.743
		c-1.889-3.245-2.832-7.058-2.832-11.437c0-3.938,0.802-7.373,2.406-10.303c2.142-3.906,5.06-6.994,8.758-9.263
		c3.697-2.269,7.72-3.403,12.062-3.403c3.871,0,7.49,0.882,10.858,2.646c3.368,1.765,6.121,4.237,8.262,7.419
		c2.707,3.97,4.061,8.428,4.061,13.374C222.531,59.894,221.964,62.587,220.832,65.013z M220.076,62.869
		c0.598-1.955,0.896-3.989,0.896-6.104c0-4.668-1.307-8.879-3.919-12.633c-4.438-6.275-11.062-9.32-19.875-9.131
		c-3.966,0.474-7.617,1.972-10.953,4.495c-3.398,2.619-5.823,5.804-7.271,9.557c-0.913,2.397-1.369,4.938-1.369,7.618
		c0,5.804,1.855,10.709,5.569,14.715c4.374,4.667,9.694,7.002,15.958,7.002c1.572,0,3.162-0.157,4.769-0.473
		c3.619-0.757,6.939-2.548,9.961-5.37C216.866,69.722,218.943,66.497,220.076,62.869z M201.003,56.86
		c-0.095,1.133-0.583,1.904-1.464,2.313c-0.126,0.032-0.27,0.047-0.426,0.047c-0.599,0-1.243-0.503-1.936-1.511
		c-0.032-0.157-0.047-0.314-0.047-0.473c0-0.912,0.549-1.573,1.652-1.982c0.502,0,0.975,0.158,1.416,0.472
		C200.64,56.042,200.909,56.419,201.003,56.86z M217.054,63.375c-0.85,3.557-3.037,6.515-6.562,8.875
		c-3.084,2.045-6.595,3.289-10.527,3.73v-0.85c3.777-0.535,7.112-1.746,10.009-3.635c3.367-2.172,5.522-4.925,6.468-8.262
		C216.472,63.328,216.676,63.375,217.054,63.375z"/>
	<path fill="#FFFFFF" d="M260.535,79.898h-36.068l0.236-46.549h18.032l0.236,31.584l0.331,0.425h17.231L260.535,79.898
		L260.535,79.898z M259.212,78.53V66.727h-17.276l-0.427-0.424V34.954h-15.58V78.53H259.212z M233.153,76.311h-4.814l0.188-11.425
		h0.426l0.188,10.34l4.013,0.329V76.311z"/>
	<path fill="#FFFFFF" d="M259.261,80.087l26.815-46.596c3.398,6.075,7.521,13.77,12.369,23.086l12.134,23.37L259.261,80.087z
		 M308.15,78.577l-22.074-42.053L261.71,78.671L308.15,78.577z M287.351,61.959c0.094,0.755-0.032,1.433-0.378,2.03
		c-0.409,0.693-0.991,1.039-1.747,1.039c-0.942,0-1.668-0.503-2.171-1.511c-0.095-0.598-0.048-1.18,0.142-1.747
		c0.252-0.691,0.677-1.116,1.274-1.274c0.188-0.031,0.378-0.047,0.566-0.047C286.013,60.448,286.785,60.952,287.351,61.959z
		 M304.251,76.311l-9.679,0.189v-0.614l8.074-0.236c-0.348-1.133-1.118-2.785-2.314-4.957c-1.259-2.297-2.076-4.013-2.454-5.146
		l0.566-0.331L304.251,76.311z"/>
	<path fill="#FFFFFF" d="M341.407,33.349l-26.769,46.408l-24.032-46.408H341.407z M338.82,34.718h-45.907l21.854,41.893
		C316.75,73.241,324.768,59.278,338.82,34.718z M308.36,37.598h-10.009l0.021,0.791l6.217,11.387l-0.378,0.381
		c-1.104-1.542-2.362-3.619-3.779-6.232c-1.166-2.171-2.331-4.343-3.497-6.515l0.236-0.661h11.188L308.36,37.598L308.36,37.598z"/>
	<path fill="#FFFFFF" d="M365.107,69.701c-0.66,2.266-1.842,4.327-3.541,6.185c-1.826,1.983-3.826,3.242-5.998,3.777
		c-1.322,0.314-2.645,0.472-3.967,0.472c-3.147,0-6.043-0.944-8.688-2.834c-2.833-2.047-4.423-4.582-4.769-7.604l8.124-8.116
		c-3.146-3.146-5.225-5.476-6.23-6.987c-1.889-2.801-2.708-5.648-2.455-8.544c0.22-2.77,1.299-5.351,3.233-7.743
		c1.937-2.391,4.227-3.949,6.87-4.674c1.289-0.346,2.58-0.519,3.871-0.519c4.374,0,8.01,1.81,10.904,5.429
		c1.291,1.574,2.03,2.975,2.221,4.202l-8.451,8.545c3.021,2.77,5.162,5.036,6.42,6.799c1.951,2.738,2.928,5.46,2.928,8.167
		C365.579,67.388,365.421,68.537,365.107,69.701z M364.163,66.066c0-2.675-1.086-5.351-3.258-8.026
		c-0.817-1.039-2.989-3.241-6.516-6.609c0.944-1.258,2.329-2.801,4.154-4.627c2.801-2.769,4.312-4.264,4.532-4.484
		c-0.504-0.881-1.008-1.763-1.511-2.644c-0.631-1.007-1.339-1.81-2.124-2.408c-2.268-1.73-4.928-2.597-7.979-2.597
		c-2.487,0-4.705,0.614-6.656,1.841c-1.794,1.133-3.229,2.714-4.297,4.745c-1.069,2.031-1.604,4.131-1.604,6.303
		c0,2.486,1.085,5.021,3.257,7.601c2.047,2.077,4.092,4.155,6.139,6.232l-7.933,8.12c-0.22,0.377-0.33,0.755-0.33,1.132
		c0,0.693,0.299,1.479,0.896,2.361c0.567,0.724,1.133,1.447,1.699,2.172c2.581,2.329,5.603,3.493,9.064,3.493
		c1.951,0,3.792-0.409,5.522-1.228c2.078-0.913,3.762-2.486,5.053-4.721C363.532,70.615,364.163,68.396,364.163,66.066z
		 M360.008,41.989c-0.473,0.566-0.944,1.133-1.416,1.7c-0.661,0.692-1.261,0.991-1.794,0.896c0-0.375,0.377-0.875,1.133-1.5
		c0.755-0.625,1.133-1.094,1.133-1.407c0-0.375-0.268-0.735-0.802-1.079c-2.896-1.938-5.382-2.907-7.46-2.907
		c-0.881,0-1.716,0.142-2.502,0.425c0.313-0.691,1.133-1.086,2.455-1.18C355.507,37.158,358.592,38.842,360.008,41.989z
		 M360.905,67.058c0.094-0.252,0.143-0.52,0.143-0.803c0-0.409-0.148-0.968-0.447-1.676c-0.301-0.708-0.449-1.204-0.449-1.487
		c0-0.314,0.095-0.598,0.283-0.85c0.85,1.102,1.275,2.376,1.275,3.824c0,2.108-0.898,4.469-2.691,7.081
		c-0.692,0.724-1.59,1.353-2.691,1.889c-0.125,0.062-1.117,0.44-2.974,1.133c-0.126-0.033-0.206-0.095-0.236-0.189
		c0-0.063,0-0.158,0-0.283c0.063-0.126,0.096-0.221,0.096-0.284c1.963-0.347,3.656-1.338,5.082-2.974
		C359.654,70.897,360.524,69.104,360.905,67.058z"/>
</g>
<g>
	<path fill="#010202" d="M545.233-113.039l-15.504,0.772l-0.231,27.896h-15.931c0,0,2,16.533,15.833,16.859
		c13.833,0.326,16.127-12.696,15.833-13.861s-0.114-30.894-0.114-30.894"/>
	<polyline fill="#010202" points="567.709,-111.768 543.733,-68.206 591.4,-67.511 569.067,-111.768 	"/>
	<polyline fill="#010202" points="593.981,-111.768 616.733,-88.206 617.634,-112.408 632.08,-112.408 633.26,-66.992 
		593.981,-66.992 	"/>
	<circle fill="#010202" cx="683.517" cy="-90.705" r="22.45"/>
	<polyline fill="#010202" points="708.699,-113.155 726.5,-113.155 726.5,-81.706 743.212,-80.541 743.212,-68.737 708.699,-68.253 
			"/>
	<polygon fill="#010202" points="771.035,-112.057 744.535,-68.253 792.15,-68.69 	"/>
	<polyline fill="#010202" points="775.567,-113.776 799.623,-69.218 824.967,-113.155 	"/>
	<path fill="#010202" d="M848.4-105.578c0,0-8.86-12.962-18.333-6.479s-9.54,15.23-4.659,19.685s6.122,7.286,6.122,7.286
		l-8.855,6.987c0,0,4.727,12.464,14.394,9.846c9.667-2.618,11.609-8.801,11.333-11.285c-0.275-2.484,0.167-7.546-3.666-10.94
		s-5.167-5.394-5.167-5.394"/>
</g>
<text transform="matrix(1 0 0 1 519.7317 35.1284)" fill="#681300" font-family="'PacFont'" font-size="89.4596">QUIZ</text>
<text transform="matrix(1 0 0 1 519.7317 35.1284)" fill="none" stroke="#8A1002" stroke-width="17" font-family="'PacFont'" font-size="89.4596">QUIZ</text>
<text transform="matrix(1 0 0 1 502.7327 24.6274)" fill="#CC2017" font-family="'PacFont'" font-size="100">QUIZ</text>
<text transform="matrix(1 0 0 1 502.7327 24.6274)" fill="none" stroke="#E30613" stroke-width="17" font-family="'PacFont'" font-size="100">QUIZ</text>
<path fill="#FFE121" d="M602.232-6.122c0,16.31-8.263,30.688-20.833,39.181c-7.541,5.096-16.632,8.069-26.417,8.069
	c-26.095,0-47.25-21.153-47.25-47.25s21.155-47.25,47.25-47.25C581.077-53.372,602.232-32.218,602.232-6.122z"/>
<polyline fill="#FFE121" points="588.4,41.128 602.232,29.628 594.401,19.94 578.9,24.627 "/>
<path fill="#FFE121" d="M611.9-53.372v61.5c0,0,2.25,33,23.5,33c11.512,0,49.5,2,51-28.5s0-66,0-66"/>
<polyline fill="#FFE121" points="697.4,-53.372 697.4,43.628 734.4,43.628 734.4,-53.372 "/>
<polyline fill="#FFE121" points="745.9,-53.372 848.4,-50.872 810.4,14.628 826.4,14.628 827.9,41.133 745.9,43.628 781.4,-13.372 
	745.9,-14.372 "/>
<text transform="matrix(1 0 0 1 502.7327 24.6274)" font-family="'PacFont'" font-size="100">QUIZ</text>
<text transform="matrix(1 0 0 1 502.7327 24.6274)" fill="none" stroke="#000000" stroke-width="3" font-family="'PacFont'" font-size="100">QUIZ</text>
<g>
	<path fill="#FFFFFF" d="M546.346-80.667c-0.44,2.326-1.425,4.511-2.95,6.556c-1.526,2.042-3.376,3.693-5.547,4.951
		c-2.267,1.352-4.941,2.028-8.026,2.028c-3.493,0-6.522-0.803-9.088-2.408c-2.564-1.604-4.541-3.651-5.925-6.137
		c-1.385-2.486-2.077-5.146-2.077-7.978c0-0.473,0.031-0.944,0.095-1.417h15.343l0.378-28.846h17.798V-80.667z M545.119-112.267
		h-15.391l-0.236,28.562h-15.249c0.252,3.998,1.542,7.302,3.872,9.914c3.115,3.525,6.939,5.288,11.472,5.288
		c1.479,0,2.941-0.221,4.391-0.66c2.675-0.786,5.035-2.279,7.082-4.48c2.046-2.202,3.335-4.652,3.871-7.356L545.119-112.267z
		 M542.9-95.413c0,2.896,0,5.776,0,8.64c-0.094,3.336-0.565,6.027-1.416,8.073c-1.039,2.611-2.771,4.595-5.192,5.948
		c-1.574,0.85-3.541,1.464-5.901,1.841v-0.661c2.778-0.882,4.776-1.669,5.994-2.36c2.154-1.228,3.544-2.864,4.169-4.91
		c1.029-1.763,1.545-4.296,1.545-7.601c0-0.597,0-1.471,0-2.62s0-2.006,0-2.573c0-1.479,0.078-2.738,0.236-3.777H542.9z"/>
	<path fill="#FFFFFF" d="M542.049-67.181l26.816-46.596c3.398,6.075,7.521,13.77,12.369,23.086l12.134,23.37L542.049-67.181z
		 M590.938-68.69l-22.074-42.053L544.5-68.597L590.938-68.69z M570.14-85.309c0.094,0.755-0.032,1.433-0.378,2.03
		c-0.409,0.693-0.991,1.039-1.747,1.039c-0.944,0-1.668-0.503-2.172-1.511c-0.094-0.598-0.047-1.18,0.143-1.747
		c0.251-0.691,0.677-1.116,1.274-1.274c0.188-0.031,0.378-0.047,0.566-0.047C568.802-86.819,569.574-86.315,570.14-85.309z
		 M587.041-70.957l-9.679,0.189v-0.614l8.073-0.236c-0.347-1.133-1.117-2.785-2.312-4.957c-1.26-2.297-2.077-4.013-2.455-5.146
		l0.565-0.331L587.041-70.957z"/>
	<path fill="#FFFFFF" d="M633.26-66.992h-39.279v-46.927l22.048,24.645l0.426-24.739h16.807L633.26-66.992L633.26-66.992z
		 M632.08-68.36v-44.047h-14.445l-0.189,26.627c-3.021-3.065-6.752-7.079-11.188-12.04c-3.714-4.14-7.412-8.264-11.094-12.372
		v41.832H632.08z M628.775-72.042h-12.32v-0.614c1.445-0.158,3.319-0.236,5.617-0.236h5.713l0.378-13.785h0.425L628.775-72.042z"/>
	<path fill="#FFFFFF" d="M704.832-82.254c-1.229,3.592-3.525,6.757-6.894,9.499c-3.369,2.74-6.925,4.395-10.67,4.962
		c-1.322,0.188-2.629,0.283-3.919,0.283c-4.249,0-8.167-1.04-11.755-3.119c-3.588-2.08-6.468-4.994-8.64-8.743
		c-1.889-3.245-2.832-7.058-2.832-11.437c0-3.938,0.802-7.373,2.406-10.303c2.142-3.906,5.06-6.994,8.758-9.263
		c3.697-2.269,7.72-3.403,12.062-3.403c3.871,0,7.49,0.882,10.858,2.646c3.368,1.765,6.121,4.237,8.262,7.419
		c2.707,3.97,4.061,8.428,4.061,13.374C706.531-87.374,705.964-84.681,704.832-82.254z M704.076-84.398
		c0.598-1.955,0.896-3.989,0.896-6.104c0-4.668-1.307-8.879-3.919-12.633c-4.438-6.275-11.062-9.32-19.875-9.131
		c-3.966,0.474-7.617,1.972-10.953,4.495c-3.398,2.619-5.823,5.804-7.271,9.557c-0.913,2.397-1.369,4.938-1.369,7.618
		c0,5.804,1.855,10.709,5.569,14.715c4.374,4.667,9.694,7.002,15.958,7.002c1.572,0,3.162-0.157,4.769-0.473
		c3.619-0.757,6.939-2.548,9.961-5.37C700.866-77.545,702.943-80.771,704.076-84.398z M685.003-90.408
		c-0.095,1.133-0.583,1.904-1.464,2.313c-0.126,0.032-0.27,0.047-0.426,0.047c-0.599,0-1.243-0.503-1.936-1.511
		c-0.032-0.157-0.047-0.314-0.047-0.473c0-0.912,0.549-1.573,1.652-1.982c0.502,0,0.975,0.158,1.416,0.472
		C684.64-91.226,684.909-90.849,685.003-90.408z M701.054-83.893c-0.85,3.557-3.037,6.515-6.562,8.875
		c-3.084,2.045-6.595,3.289-10.527,3.73v-0.85c3.777-0.535,7.112-1.746,10.009-3.635c3.367-2.172,5.522-4.925,6.468-8.262
		C700.472-83.939,700.676-83.893,701.054-83.893z"/>
	<path fill="#FFFFFF" d="M744.535-67.37h-36.068l0.236-46.549h18.032l0.236,31.584l0.331,0.425h17.231L744.535-67.37L744.535-67.37z
		 M743.212-68.737v-11.803h-17.276l-0.427-0.424v-31.349h-15.58v43.576H743.212z M717.153-70.957h-4.814l0.188-11.425h0.426
		l0.188,10.34l4.013,0.329V-70.957z"/>
	<path fill="#FFFFFF" d="M743.261-67.181l26.815-46.596c3.398,6.075,7.521,13.77,12.369,23.086l12.134,23.37L743.261-67.181z
		 M792.15-68.69l-22.074-42.053L745.71-68.597L792.15-68.69z M771.351-85.309c0.094,0.755-0.032,1.433-0.378,2.03
		c-0.409,0.693-0.991,1.039-1.747,1.039c-0.942,0-1.668-0.503-2.171-1.511c-0.095-0.598-0.048-1.18,0.142-1.747
		c0.252-0.691,0.677-1.116,1.274-1.274c0.188-0.031,0.378-0.047,0.566-0.047C770.013-86.819,770.785-86.315,771.351-85.309z
		 M788.251-70.957l-9.679,0.189v-0.614l8.074-0.236c-0.348-1.133-1.118-2.785-2.314-4.957c-1.259-2.297-2.076-4.013-2.454-5.146
		l0.566-0.331L788.251-70.957z"/>
	<path fill="#FFFFFF" d="M825.407-113.918l-26.769,46.408l-24.032-46.408H825.407z M822.82-112.55h-45.907l21.854,41.893
		C800.75-74.026,808.768-87.99,822.82-112.55z M792.36-109.669h-10.009l0.021,0.791l6.217,11.387l-0.378,0.381
		c-1.104-1.542-2.362-3.619-3.779-6.232c-1.166-2.171-2.331-4.343-3.497-6.515l0.236-0.661h11.188L792.36-109.669L792.36-109.669z"
		/>
	<path fill="#FFFFFF" d="M849.107-77.566c-0.66,2.266-1.842,4.327-3.541,6.185c-1.826,1.983-3.826,3.242-5.998,3.777
		c-1.322,0.314-2.645,0.472-3.967,0.472c-3.147,0-6.043-0.944-8.688-2.834c-2.833-2.047-4.423-4.582-4.769-7.604l8.124-8.116
		c-3.146-3.146-5.225-5.476-6.23-6.987c-1.889-2.801-2.708-5.648-2.455-8.544c0.22-2.77,1.299-5.351,3.233-7.743
		c1.937-2.391,4.227-3.949,6.87-4.674c1.289-0.346,2.58-0.519,3.871-0.519c4.374,0,8.01,1.81,10.904,5.429
		c1.291,1.574,2.03,2.975,2.221,4.202l-8.451,8.545c3.021,2.77,5.162,5.036,6.42,6.799c1.951,2.738,2.928,5.46,2.928,8.167
		C849.579-79.879,849.421-78.73,849.107-77.566z M848.163-81.202c0-2.675-1.086-5.351-3.258-8.026
		c-0.817-1.039-2.989-3.241-6.516-6.609c0.944-1.258,2.329-2.801,4.154-4.627c2.801-2.769,4.312-4.264,4.532-4.484
		c-0.504-0.881-1.008-1.763-1.511-2.644c-0.631-1.007-1.339-1.81-2.124-2.408c-2.268-1.73-4.928-2.597-7.979-2.597
		c-2.487,0-4.705,0.614-6.656,1.841c-1.794,1.133-3.229,2.714-4.297,4.745c-1.069,2.031-1.604,4.131-1.604,6.303
		c0,2.486,1.085,5.021,3.257,7.601c2.047,2.077,4.092,4.155,6.139,6.232l-7.933,8.12c-0.22,0.377-0.33,0.755-0.33,1.132
		c0,0.693,0.299,1.479,0.896,2.361c0.567,0.724,1.133,1.447,1.699,2.172c2.581,2.329,5.603,3.493,9.064,3.493
		c1.951,0,3.792-0.409,5.522-1.228c2.078-0.913,3.762-2.486,5.053-4.721C847.532-76.652,848.163-78.872,848.163-81.202z
		 M844.008-105.278c-0.473,0.566-0.944,1.133-1.416,1.7c-0.661,0.692-1.261,0.991-1.794,0.896c0-0.375,0.377-0.875,1.133-1.5
		c0.755-0.625,1.133-1.094,1.133-1.407c0-0.375-0.268-0.735-0.802-1.079c-2.896-1.938-5.382-2.907-7.46-2.907
		c-0.881,0-1.716,0.142-2.502,0.425c0.313-0.691,1.133-1.086,2.455-1.18C839.507-110.109,842.592-108.426,844.008-105.278z
		 M844.905-80.209c0.094-0.252,0.143-0.52,0.143-0.803c0-0.409-0.148-0.968-0.447-1.676c-0.301-0.708-0.449-1.204-0.449-1.487
		c0-0.314,0.095-0.598,0.283-0.85c0.85,1.102,1.275,2.376,1.275,3.824c0,2.108-0.898,4.469-2.691,7.081
		c-0.692,0.724-1.59,1.353-2.691,1.889c-0.125,0.062-1.117,0.44-2.974,1.133c-0.126-0.033-0.206-0.095-0.236-0.189
		c0-0.063,0-0.158,0-0.283c0.063-0.126,0.096-0.221,0.096-0.284c1.963-0.347,3.656-1.338,5.082-2.974
		C843.654-76.371,844.524-78.164,844.905-80.209z"/>
</g>
</svg>
