<?xml version="1.0" encoding="utf-8"?>
<!-- Generator: Adobe Illustrator 16.0.0, SVG Export Plug-In . SVG Version: 6.00 Build 0)  -->
<!DOCTYPE svg PUBLIC "-//W3C//DTD SVG 1.1//EN" "http://www.w3.org/Graphics/SVG/1.1/DTD/svg11.dtd">
<svg version="1.1" id="Lager_1" xmlns="http://www.w3.org/2000/svg" xmlns:xlink="http://www.w3.org/1999/xlink" x="0px" y="0px"
	 width="389.98px" height="220.489px" viewBox="0 0 389.98 220.489" enable-background="new 0 0 389.98 220.489"
	 xml:space="preserve">
<polyline fill="#FFE121" points="104.4,173.396 118.232,161.896 110.401,152.208 94.9,156.895 "/>
<g id="Y0dh5M.tif">
	<g>
		<path fill-rule="evenodd" clip-rule="evenodd" fill="#CB3838" d="M76.562,124.146c0.006-0.235,0.017-0.471,0.017-0.705
			c0.001-26.8,0.001-53.6,0.001-80.399c0-0.135,0.011-0.27-0.002-0.404c-0.038-0.364,0.062-0.456,0.449-0.35
			c2.071,0.567,4.151,1.102,6.228,1.65c11.175,2.955,22.353,5.899,33.524,8.871c6.276,1.669,12.372,3.829,18.129,6.869
			c5.182,2.736,9.895,6.095,13.805,10.504c4.559,5.141,7.393,11.116,8.619,17.868c0.784,4.312,0.819,8.653,0.541,13.011
			c-0.265,4.135-0.838,8.218-2.06,12.188c-1.214,3.945-2.996,7.584-5.881,10.606c-3.069,3.215-6.854,5.064-11.195,5.83
			c-4.436,0.783-8.838,0.414-13.221-0.443c-1.565-0.307-3.109-0.702-4.649-1.115c-0.383-0.104-0.49-0.259-0.489-0.646
			c0.013-6.743,0.009-13.485,0.009-20.227c0-10.861,0-21.722,0-32.584c0-3.062-1.38-4.859-4.358-5.613
			c-1.987-0.503-3.936-0.425-5.767,0.591c-1.362,0.757-2.057,1.926-2.058,3.502c-0.003,9.298-0.011,18.595-0.019,27.892
			c-0.007,8.727-0.016,17.452-0.026,26.177c-0.005,4.893-0.015,9.785-0.022,14.677c0.118,0.177,0.126,0.379,0.125,0.581
			c-0.004,5.925,0.018,11.85-0.01,17.773c0.015,3.424,0.024,6.846-0.004,10.27c0.015,0.556,0.02,1.112,0.001,1.668
			c0.031,3.575,0.009,7.15,0.013,10.727c0.002,2.383,0.009,4.767-0.003,7.15c-0.03,0.194-0.009,0.403-0.16,0.562
			c-0.034,0-0.067,0-0.101,0c-1.021-0.202-2.001-0.545-2.986-0.871c-5.022-1.656-10.059-3.27-15.084-4.918
			c-3.972-1.303-7.955-2.572-11.925-3.882c-0.335-0.11-0.679-0.19-1.012-0.306c-0.227-0.077-0.448-0.164-0.493-0.445
			c-0.017-0.117-0.018-0.236-0.017-0.353c0.013-5.772-0.036-11.546-0.023-17.316c0-0.118,0.002-0.235,0.015-0.353
			c-0.022-3.162-0.026-6.324,0.001-9.486c-0.035-2.596-0.01-5.189-0.014-7.785c-0.002-1.239-0.021-2.479,0.013-3.717
			c-0.031-2.969-0.027-5.939-0.006-8.908c0.018-2.449,0.001-4.896,0.014-7.346C76.479,124.673,76.454,124.402,76.562,124.146z"/>
		<path fill-rule="evenodd" clip-rule="evenodd" fill="#EBBF3D" d="M76.592,180.289c-0.094-0.156-0.044-0.329-0.044-0.492
			c-0.004-2.74-0.01-5.48,0.005-8.221c0.002-0.42-0.042-0.561-0.51-0.396c-4.384,1.533-8.884,2.607-13.479,3.271
			c-2.26,0.327-4.533,0.541-6.815,0.661c-1.967,0.104-3.932,0.11-5.898,0.078c-4.104-0.068-8.173-0.511-12.223-1.168
			c-3.295-0.534-6.599-1.021-9.895-1.556c-5.02-0.815-10.028-1.691-14.889-3.235c-2.471-0.785-4.879-1.725-6.991-3.28
			c-1.46-1.075-2.59-2.39-2.978-4.225c-0.012-0.057-0.068-0.104-0.104-0.154c0-0.102,0-0.203,0-0.303
			c0.084-0.27,0.084-0.539,0-0.808c0-0.302,0-0.604,0-0.907c0.083-0.202,0.083-0.404,0-0.606c0-0.067,0-0.134,0-0.202
			c0.231-0.295,0.177-0.663,0.248-0.998c0.677-3.216,2.424-5.797,4.795-7.98c3.012-2.775,6.564-4.632,10.41-5.963
			c0.093-0.031,0.193-0.041,0.29-0.062c0.731,0.044,1.401,0.329,2.085,0.548c3.934,1.254,7.87,2.5,11.805,3.754
			c4.078,1.299,8.161,2.581,12.237,3.887c0.251,0.08,0.528,0.121,0.717,0.34c-0.042,0.331-0.348,0.338-0.562,0.414
			c-1.632,0.576-3.262,1.16-4.89,1.75c-1.135,0.411-2.309,0.736-3.343,1.393c-0.413,0.263-0.811,0.546-1.137,0.912
			c-1.238,1.389-0.965,3.04,0.483,4.296c1.536,1.333,3.392,1.915,5.399,2.126c2.531,0.268,4.894-0.354,7.24-1.188
			c2.186-0.778,4.396-1.487,6.599-2.212c2.108-0.693,4.205-1.419,6.305-2.136c0.237-0.081,0.47-0.19,0.732-0.166
			c1.775,0.556,3.546,1.127,5.319,1.692c2.859,0.912,5.718,1.824,8.58,2.727c0.193,0.061,0.388,0.113,0.515,0.289
			c0.006,2.652,0.015,5.303,0.017,7.953c0.003,3.223,0,6.444-0.002,9.666C76.613,179.955,76.599,180.123,76.592,180.289z"/>
		<path fill-rule="evenodd" clip-rule="evenodd" fill="#EBBF3D" d="M108.104,190.122c-0.005-1.966-0.014-3.931-0.013-5.896
			c0.002-4.016,0.01-8.029,0.016-12.045c0.206-0.108,0.394-0.002,0.582,0.055c2.524,0.766,5.031,1.585,7.544,2.384
			c5.731,1.821,11.46,3.651,17.195,5.461c0.689,0.217,1.366,0.472,2.062,0.666c0.138,0.038,0.306,0.058,0.345,0.245
			c-2.817,0.99-5.633,1.982-8.452,2.968c-6.209,2.167-12.419,4.331-18.628,6.497c-0.123,0.044-0.237,0.113-0.355,0.17
			c-0.034,0-0.067,0-0.101,0C108.127,190.5,108.188,190.283,108.104,190.122z"/>
		<path fill-rule="evenodd" clip-rule="evenodd" fill="#EFCB63" d="M2.77,160.461c0.148,0.269,0.16,0.538,0,0.808
			C2.77,161,2.77,160.73,2.77,160.461z"/>
		<path fill-rule="evenodd" clip-rule="evenodd" fill="#FDF9F0" d="M108.104,190.122c0.122,0.146,0.193,0.312,0.195,0.505
			c-0.067,0-0.134,0-0.201,0C108.1,190.458,108.102,190.291,108.104,190.122z"/>
		<path fill-rule="evenodd" clip-rule="evenodd" fill="#F3DA90" d="M2.77,158.948c0.176,0.202,0.133,0.404,0,0.606
			C2.77,159.352,2.77,159.15,2.77,158.948z"/>
		<path fill-rule="evenodd" clip-rule="evenodd" fill="#3F71AE" d="M108.199,141.912c4.244-1.539,8.541-2.916,12.884-4.146
			c4.977-1.41,10.011-2.566,15.117-3.395c3.433-0.558,6.884-0.952,10.357-1.171c3.477-0.218,6.954-0.26,10.43-0.065
			c3.472,0.194,6.932,0.534,10.382,0.972c3.85,0.488,7.672,1.12,11.443,2.037c4.006,0.975,7.922,2.207,11.552,4.213
			c2.271,1.254,4.336,2.769,5.871,4.902c1.193,1.658,1.948,3.494,1.94,5.566c-0.009,2.187-0.952,4.021-2.317,5.664
			c-1.879,2.264-4.277,3.865-6.832,5.25c-2.188,1.186-4.481,2.137-6.83,2.959c-0.173,0.061-0.358,0.081-0.538,0.119
			c-0.219,0.059-0.431,0.029-0.644-0.035c-2.83-0.856-5.648-1.752-8.474-2.622c-3.677-1.132-7.349-2.278-11.024-3.416
			c-3.001-0.929-5.999-1.868-9.002-2.792c-0.185-0.057-0.404-0.087-0.474-0.324c0.058-0.271,0.307-0.287,0.502-0.355
			c2.684-0.926,5.365-1.86,8.059-2.76c1.946-0.648,3.861-1.372,5.663-2.37c0.856-0.475,1.67-1.003,2.351-1.718
			c0.198-0.208,0.374-0.432,0.511-0.686c0.37-0.686,0.252-1.343-0.339-1.858c-0.398-0.347-0.863-0.581-1.357-0.757
			c-1.116-0.398-2.278-0.553-3.451-0.677c-1.225-0.13-2.453-0.144-3.674-0.079c-3.798,0.199-7.534,0.664-11.148,2.021
			c-3.867,1.453-7.83,2.648-11.751,3.955c-0.381,0.127-0.742,0.322-1.151,0.359c-0.533-0.006-1.016-0.225-1.509-0.379
			c-4.217-1.32-8.442-2.618-12.661-3.933c-4.476-1.395-8.954-2.783-13.433-4.167C108.475,142.171,108.24,142.175,108.199,141.912z"
			/>
		<path fill-rule="evenodd" clip-rule="evenodd" fill="#4BA49C" d="M152.069,155.602c0.551,0.337,1.19,0.425,1.791,0.613
			c4.483,1.41,8.974,2.8,13.462,4.192c3.306,1.026,6.613,2.054,9.921,3.074c1.47,0.453,2.945,0.891,4.417,1.336
			c-3.634,1.29-7.265,2.586-10.901,3.87c-11.512,4.063-23.026,8.122-34.54,12.183c-0.126,0.043-0.255,0.081-0.383,0.121
			c-9.243-2.937-18.485-5.873-27.728-8.811c0.002-0.534,0.004-1.068,0.006-1.602c0.113-0.197,0.322-0.232,0.51-0.295
			c3.461-1.145,6.903-2.347,10.353-3.523c5.151-1.756,10.298-3.525,15.448-5.287c3.767-1.289,7.537-2.57,11.3-3.867
			c1.89-0.652,3.792-1.27,5.672-1.947C151.609,155.583,151.83,155.447,152.069,155.602z"/>
		<path fill-rule="evenodd" clip-rule="evenodd" fill="#4BA49C" d="M45.356,152.307c-4.451-1.418-8.902-2.837-13.353-4.254
			c-4.436-1.411-8.872-2.821-13.307-4.233c-0.062-0.02-0.121-0.051-0.182-0.077c3.528-1.092,7.006-2.329,10.504-3.509
			c11.657-3.933,23.309-7.879,34.962-11.819c0.111-0.038,0.225-0.067,0.337-0.102c0.646,0.04,1.236,0.3,1.842,0.486
			c3.206,0.987,6.407,1.995,9.619,2.966c0.566,0.17,0.596,0.148,0.597-0.449c0.002-2.182,0.002-4.362,0-6.545
			c0-0.184-0.008-0.368,0.032-0.55c0.052-0.024,0.104-0.051,0.155-0.075c0.014,0.148,0.041,0.297,0.041,0.446
			c0.004,5.384,0.006,10.769,0.005,16.152c0,0.148-0.025,0.298-0.039,0.447c-0.107,0.201-0.315,0.237-0.503,0.306
			c-6.314,2.253-12.622,4.521-18.934,6.779c-3.686,1.318-7.373,2.635-11.059,3.955C45.848,152.314,45.614,152.468,45.356,152.307z"
			/>
		<path fill-rule="evenodd" clip-rule="evenodd" fill="#4BA49C" d="M108.199,141.912c1.527,0.487,3.053,0.982,4.583,1.462
			c1.836,0.575,3.676,1.138,5.515,1.706c4.651,1.438,9.304,2.875,13.955,4.314c1.103,0.342,2.203,0.691,3.305,1.037
			c0.223,0.07,0.441,0.166,0.683,0.151c-0.045,0.283-0.304,0.28-0.493,0.346c-1.254,0.435-2.511,0.862-3.769,1.286
			c-4.585,1.547-9.156,3.137-13.737,4.697c-3.133,1.066-6.265,2.139-9.394,3.219c-0.232,0.08-0.463,0.217-0.728,0.126
			c-0.01-0.167-0.027-0.334-0.027-0.501c-0.001-5.771-0.001-11.541,0-17.312c0-0.183,0.028-0.365,0.043-0.549
			C108.16,141.886,108.181,141.891,108.199,141.912z"/>
		<path fill-rule="evenodd" clip-rule="evenodd" fill="#3F71AE" d="M76.407,124.221c0.159,0.126,0.115,0.306,0.115,0.468
			c0.002,2.32,0,4.641,0.004,6.961c0,0.307,0.015,0.518-0.431,0.377c-3.706-1.161-7.419-2.301-11.129-3.449
			c-0.223-0.07-0.458-0.111-0.648-0.265c3.98-1.355,7.96-2.712,11.941-4.067C76.305,124.23,76.357,124.229,76.407,124.221z"/>
		<path fill-rule="evenodd" clip-rule="evenodd" fill="#4BA49C" d="M62.172,157.562c2.303-0.782,4.605-1.566,6.909-2.346
			c2.495-0.844,4.991-1.683,7.487-2.523c0.013,0.065,0.039,0.131,0.039,0.196c-0.002,3.093-0.006,6.187-0.01,9.278
			c-3.124-0.987-6.25-1.971-9.372-2.965C65.538,158.666,63.856,158.11,62.172,157.562z"/>
	</g>
</g>
<text transform="matrix(0.7706 0 0 1 128.8992 155.5308)" stroke="#E30613" stroke-width="3" font-family="'PhatBoySlim'" font-size="90.5225">QUIZ</text>
</svg>
