<?xml version="1.0" encoding="utf-8"?>
<!-- Generator: Adobe Illustrator 16.0.0, SVG Export Plug-In . SVG Version: 6.00 Build 0)  -->
<!DOCTYPE svg PUBLIC "-//W3C//DTD SVG 1.1//EN" "http://www.w3.org/Graphics/SVG/1.1/DTD/svg11.dtd">
<svg version="1.1" id="Lager_1" xmlns="http://www.w3.org/2000/svg" xmlns:xlink="http://www.w3.org/1999/xlink" x="0px" y="0px"
	 width="389.98px" height="220.489px" viewBox="0 0 389.98 220.489" enable-background="new 0 0 389.98 220.489"
	 xml:space="preserve">
<g enable-background="new    ">
	<path fill="none" stroke="#3A0504" stroke-width="17" d="M138.828,187.33l-8.392,8.208l-4.281-5.472
		c-4.704,3.479-10.113,5.22-16.227,5.22c-3.927,0-7.428-0.827-10.504-2.482c-3.927-2.121-7.317-5.177-10.17-9.165
		c-2.965-4.157-4.817-8.571-5.558-13.235c-0.296-2.035-0.444-4.051-0.444-6.045c0-8.655,2.704-16.122,8.114-22.402
		c5.039-5.854,11.467-8.783,19.285-8.783c3.817,0,7.392,0.827,10.728,2.481c4.594,2.293,8.521,5.941,11.782,10.948
		c3.076,4.751,4.613,10.586,4.613,17.5c0,6.238-1.242,11.796-3.724,16.674C135.196,182.172,136.789,184.36,138.828,187.33z
		 M136.438,186.762l-4.281-5.41c0-1.103,0.407-2.565,1.224-4.393c0.963-1.992,1.518-3.455,1.667-4.389
		c0.778-2.547,1.167-5.262,1.167-8.148c0-6.066-1.593-11.753-4.779-17.059c-2.334-3.859-5.428-6.895-9.281-9.101
		c-3.705-2.079-7.651-3.118-11.837-3.118c-4.411,0-8.43,1.168-12.061,3.504c-4.112,2.591-7.374,6.169-9.781,10.735
		c-2.409,4.565-3.595,9.483-3.559,14.748c0.038,5.606,1.295,10.768,3.777,15.481c2.628,4.969,6.147,8.559,10.553,10.768
		c2.961,2.039,6.459,3.059,10.496,3.059c6.147,0,11.682-2.028,16.606-6.082l4.412,5.451L136.438,186.762z M109.261,139.217
		c-4.224,0.679-8.022,2.312-11.393,4.9c-3.818,2.928-6.317,6.555-7.503,10.881c-0.26,0.852-0.5,1.678-0.723,2.484
		c-0.298,0.933-0.444,1.78-0.444,2.545h-1c0.629-4.413,2.241-8.486,4.835-12.219c2.704-3.902,5.872-6.513,9.504-7.828
		c2.667-0.977,4.91-1.506,6.725-1.591v0.827H109.261z M112.54,164.61c-0.111,1.527-0.666,2.544-1.667,3.055
		c-0.186,0.043-0.353,0.062-0.5,0.062c-0.742,0-1.5-0.678-2.278-2.036c-0.075-0.169-0.112-0.36-0.112-0.573
		c0-1.271,0.667-2.162,2.001-2.672c0.556,0,1.102,0.201,1.639,0.605C112.16,163.454,112.466,163.974,112.54,164.61z"/>
	<path fill="none" stroke="#3A0504" stroke-width="17" d="M185.732,174.665c-0.555,3.861-1.815,7.426-3.778,10.691
		c-2.038,3.438-4.585,6.088-7.642,7.955c-3.057,1.865-6.531,2.8-10.421,2.8c-4.891,0-9.096-1.378-12.616-4.136
		c-3.854-3.012-6.577-7.02-8.17-12.025c-1.258-3.988-1.89-9.037-1.89-15.146c0-2.676,0.157-6.715,0.473-12.125
		c0.314-5.408,0.473-9.408,0.473-11.996c0-2.629-0.113-4.983-0.334-7.062h43.904V174.665L185.732,174.665z M184.232,135.844h-40.737
		c0.333,2.333,0.5,5.007,0.5,8.019c0,2.377-0.148,6.026-0.445,10.947c-0.297,4.923-0.445,8.57-0.445,10.946
		c0,5.854,0.648,10.67,1.946,14.446c1.63,4.667,4.41,8.314,8.337,10.946c2.964,1.994,6.427,2.991,10.392,2.991
		c3.335,0,6.4-0.731,9.197-2.195s5.217-3.786,7.254-6.969c1.891-2.97,3.168-6.237,3.835-9.8L184.232,135.844z M181.676,163.273
		c0.148,1.4,0.224,2.779,0.224,4.136c0,10.097-3.151,17.119-9.448,21.064c-0.777,0.509-1.816,0.996-3.112,1.465
		c-1.075,0.424-2.168,0.826-3.28,1.207c-0.148-0.084-0.204-0.253-0.166-0.509c0-0.341,0-0.53,0-0.573
		c6.631-2.035,10.781-5.388,12.449-10.057c1.629-3.477,2.445-7.932,2.445-13.364c0-1.058,0-2.183,0-3.371L181.676,163.273
		L181.676,163.273z"/>
	<path fill="none" stroke="#3A0504" stroke-width="17" d="M212.466,196.428h-22.788l0.169-63.385h22.619V196.428L212.466,196.428z
		 M210.743,194.583v-59.694h-19.508v59.694H210.743z M201.961,139.089h-6.781c-0.185,3.649-0.277,9.208-0.277,16.674
		c0,7.51-0.092,13.089-0.275,16.735h-0.502l-0.221-34.555c1.851-0.085,4.537,0.02,8.059,0.316L201.961,139.089L201.961,139.089z"/>
	<path fill="none" stroke="#3A0504" stroke-width="17" d="M276.154,134.508l-21.229,41.874l9.114,0.192l0.333,19.475l-46.405,0.191
		c0.073-0.298,0.018-0.639-0.167-1.021h-0.558c1.963-4.454,4.873-10.394,8.726-17.818c4.411-8.568,7.392-14.509,8.947-17.819
		l-18.673-0.318v-25.837h59.911L276.154,134.508L276.154,134.508z M273.517,135.526H217.8v21.955h19.178l0.942,0.763
		c-0.48,0.977-3.596,6.958-9.338,17.947c-3.779,7.256-6.779,13.301-9.002,18.138h42.405v-15.591c-0.665-0.044-1.812-0.044-3.438,0
		c-1.479,0.042-2.625,0.042-3.437,0c-1.222-0.082-2.291-0.269-3.217-0.558C256.635,168.674,263.845,154.456,273.517,135.526z
		 M245.976,191.401h-21.676l8.727-17.499l0.667,0.19c-0.631,2.036-1.817,4.707-3.558,8.018c-2.076,3.902-3.408,6.556-4.001,7.956
		c2.224,0.212,5.538,0.307,9.948,0.286c4.41-0.023,7.705,0.074,9.893,0.284V191.401L245.976,191.401z M268.595,138.262
		l-8.279,16.736l-0.666-0.254c2.037-4.813,4.463-9.775,7.279-14.89l-0.5-0.574h-13.838v-1.021L268.595,138.262L268.595,138.262z"/>
</g>
<g enable-background="new    ">
	<path fill="none" stroke="#600903" stroke-width="17" d="M133.233,178.397l-11.388,11.139l-5.809-7.426
		c-6.384,4.722-13.725,7.083-22.021,7.083c-5.33,0-10.081-1.122-14.254-3.368c-5.33-2.879-9.931-7.025-13.802-12.438
		c-4.023-5.641-6.537-11.631-7.542-17.962c-0.402-2.762-0.603-5.496-0.603-8.203c0-11.745,3.669-21.878,11.011-30.4
		c6.837-7.945,15.562-11.919,26.17-11.919c5.18,0,10.031,1.122,14.558,3.367c6.234,3.111,11.564,8.062,15.989,14.856
		c4.173,6.448,6.259,14.366,6.259,23.75c0,8.464-1.685,16.007-5.053,22.626C128.305,171.399,130.467,174.366,133.233,178.397z
		 M129.99,177.627l-5.809-7.342c0-1.497,0.553-3.482,1.66-5.961c1.307-2.705,2.06-4.689,2.262-5.957
		c1.056-3.455,1.584-7.141,1.584-11.058c0-8.231-2.162-15.949-6.486-23.148c-3.167-5.237-7.365-9.356-12.595-12.351
		c-5.028-2.822-10.383-4.232-16.063-4.232c-5.986,0-11.44,1.586-16.367,4.756c-5.581,3.516-10.006,8.371-13.274,14.568
		c-3.269,6.196-4.878,12.869-4.829,20.014c0.051,7.608,1.758,14.612,5.125,21.01c3.567,6.743,8.343,11.613,14.321,14.611
		c4.019,2.767,8.766,4.15,14.244,4.15c8.343,0,15.854-2.752,22.536-8.252l5.987,7.396L129.99,177.627z M93.11,113.105
		c-5.731,0.922-10.886,3.14-15.46,6.65c-5.181,3.973-8.573,8.896-10.182,14.767c-0.353,1.154-0.679,2.276-0.981,3.37
		c-0.404,1.267-0.603,2.417-0.603,3.454h-1.357c0.854-5.988,3.042-11.516,6.562-16.582c3.669-5.295,7.969-8.837,12.897-10.623
		c3.62-1.324,6.663-2.043,9.126-2.158v1.122H93.11z M97.559,147.564c-0.15,2.073-0.903,3.453-2.262,4.146
		c-0.252,0.059-0.479,0.086-0.679,0.086c-1.006,0-2.037-0.92-3.092-2.764c-0.102-0.229-0.153-0.488-0.153-0.777
		c0-1.727,0.905-2.936,2.716-3.627c0.754,0,1.495,0.273,2.225,0.822C97.043,145.996,97.458,146.702,97.559,147.564z"/>
	<path fill="none" stroke="#600903" stroke-width="17" d="M196.885,161.209c-0.753,5.24-2.464,10.077-5.128,14.51
		c-2.766,4.663-6.222,8.261-10.37,10.795c-4.148,2.531-8.862,3.799-14.141,3.799c-6.637,0-12.344-1.869-17.121-5.611
		c-5.23-4.087-8.925-9.527-11.087-16.32c-1.708-5.412-2.564-12.264-2.564-20.555c0-3.63,0.213-9.111,0.642-16.453
		c0.427-7.341,0.641-12.768,0.641-16.279c0-3.568-0.153-6.764-0.453-9.586h59.581V161.209L196.885,161.209z M194.85,108.528h-55.283
		c0.453,3.166,0.68,6.795,0.68,10.882c0,3.226-0.202,8.178-0.604,14.856c-0.403,6.68-0.604,11.63-0.604,14.854
		c0,7.944,0.879,14.48,2.64,19.604c2.212,6.334,5.984,11.283,11.314,14.855c4.022,2.705,8.723,4.059,14.103,4.059
		c4.525,0,8.685-0.992,12.482-2.979c3.795-1.986,7.078-5.139,9.844-9.457c2.565-4.029,4.299-8.464,5.204-13.298L194.85,108.528z
		 M191.381,145.75c0.2,1.9,0.303,3.771,0.303,5.613c0,13.701-4.275,23.23-12.822,28.584c-1.055,0.691-2.464,1.352-4.224,1.988
		c-1.459,0.576-2.942,1.122-4.45,1.639c-0.202-0.113-0.277-0.344-0.226-0.69c0-0.462,0-0.72,0-0.778
		c9-2.763,14.63-7.312,16.894-13.646c2.211-4.719,3.318-10.764,3.318-18.137c0-1.436,0-2.962,0-4.575L191.381,145.75L191.381,145.75
		z"/>
	<path fill="none" stroke="#600903" stroke-width="17" d="M233.164,190.745H202.24l0.229-86.018h30.695V190.745L233.164,190.745z
		 M230.826,188.241v-81.008h-26.473v81.008H230.826z M218.908,112.932h-9.203c-0.25,4.952-0.375,12.495-0.375,22.627
		c0,10.191-0.125,17.762-0.375,22.712h-0.68l-0.301-46.894c2.512-0.115,6.158,0.027,10.936,0.43L218.908,112.932L218.908,112.932z"
		/>
	<path fill="none" stroke="#600903" stroke-width="17" d="M319.593,106.715l-28.81,56.825l12.369,0.261l0.451,26.428l-62.975,0.26
		c0.1-0.403,0.023-0.865-0.227-1.385h-0.756c2.664-6.045,6.612-14.105,11.841-24.182c5.985-11.628,10.03-19.688,12.142-24.182
		l-25.34-0.432v-35.062h81.303L319.593,106.715L319.593,106.715z M316.015,108.095h-75.613v29.795h26.025l1.278,1.035
		c-0.651,1.325-4.878,9.443-12.671,24.355c-5.129,9.847-9.201,18.05-12.217,24.614h57.547v-21.158c-0.903-0.059-2.459-0.059-4.665,0
		c-2.007,0.058-3.562,0.058-4.663,0c-1.658-0.111-3.11-0.363-4.365-0.756C293.105,153.081,302.888,133.786,316.015,108.095z
		 M278.64,183.921h-29.415l11.841-23.747l0.906,0.258c-0.856,2.764-2.466,6.389-4.828,10.881c-2.817,5.295-4.625,8.896-5.43,10.797
		c3.018,0.287,7.516,0.416,13.5,0.389c5.984-0.031,10.457,0.1,13.426,0.386V183.921L278.64,183.921z M309.336,111.81L298.1,134.522
		l-0.905-0.346c2.765-6.531,6.057-13.266,9.879-20.205l-0.678-0.779h-18.779v-1.385L309.336,111.81L309.336,111.81z"/>
</g>
<g>
	<path fill="#010202" d="M61.233,19.229l-15.504,0.772l-0.231,27.896H29.567c0,0,2,16.533,15.833,16.859
		c13.833,0.326,16.127-12.696,15.833-13.861s-0.114-30.894-0.114-30.894"/>
	<polyline fill="#010202" points="83.709,20.5 59.733,64.062 107.4,64.757 85.067,20.5 	"/>
	<polyline fill="#010202" points="109.981,20.5 132.733,44.062 133.634,19.86 148.08,19.86 149.26,65.276 109.981,65.276 	"/>
	<circle fill="#010202" cx="199.517" cy="41.563" r="22.45"/>
	<polyline fill="#010202" points="224.699,19.113 242.5,19.113 242.5,50.562 259.212,51.727 259.212,63.53 224.699,64.014 	"/>
	<polygon fill="#010202" points="287.035,20.211 260.535,64.014 308.15,63.577 	"/>
	<polyline fill="#010202" points="291.567,18.491 315.623,63.05 340.969,19.113 	"/>
	<path fill="#010202" d="M364.4,26.69c0,0-8.86-12.962-18.333-6.479s-9.54,15.23-4.659,19.685s6.122,7.286,6.122,7.286l-8.854,6.987
		c0,0,4.727,12.464,14.394,9.846c9.667-2.618,11.609-8.801,11.333-11.285c-0.273-2.484,0.167-7.546-3.666-10.94
		s-5.167-5.394-5.167-5.394"/>
</g>
<g enable-background="new    ">
	<path fill="none" stroke="#8A1002" stroke-width="17" d="M125.907,172.497l-13.508,11.539l-6.891-7.693
		c-7.573,4.892-16.279,7.337-26.12,7.337c-6.322,0-11.958-1.162-16.908-3.488c-6.322-2.981-11.779-7.276-16.371-12.883
		c-4.772-5.845-7.754-12.048-8.946-18.606c-0.478-2.861-0.715-5.693-0.715-8.498c0-12.166,4.353-22.662,13.061-31.49
		c8.11-8.229,18.458-12.346,31.042-12.346c6.144,0,11.898,1.162,17.268,3.488c7.395,3.223,13.717,8.352,18.965,15.389
		c4.95,6.68,7.425,14.881,7.425,24.602c0,8.768-1.999,16.58-5.994,23.438C120.061,165.249,122.626,168.32,125.907,172.497z
		 M122.06,171.7l-6.891-7.605c0-1.551,0.656-3.607,1.97-6.174c1.55-2.803,2.443-4.858,2.684-6.172
		c1.252-3.578,1.879-7.396,1.879-11.453c0-8.527-2.563-16.521-7.693-23.979c-3.757-5.426-8.736-9.691-14.938-12.794
		c-5.964-2.922-12.316-4.384-19.055-4.384c-7.1,0-13.569,1.643-19.413,4.926c-6.62,3.643-11.869,8.672-15.745,15.092
		c-3.877,6.418-5.786,13.329-5.728,20.731c0.061,7.881,2.085,15.136,6.079,21.763c4.231,6.984,9.896,12.029,16.986,15.135
		c4.768,2.866,10.397,4.299,16.896,4.299c9.896,0,18.805-2.851,26.73-8.547l7.102,7.662L122.06,171.7z M78.315,104.864
		c-6.799,0.955-12.913,3.252-18.339,6.889c-6.146,4.115-10.169,9.215-12.077,15.297c-0.418,1.195-0.805,2.357-1.163,3.49
		c-0.479,1.312-0.715,2.504-0.715,3.578h-1.61c1.013-6.203,3.607-11.928,7.783-17.177c4.353-5.485,9.452-9.153,15.298-11.004
		c4.294-1.371,7.902-2.116,10.825-2.235v1.162H78.315z M83.593,140.558c-0.179,2.147-1.071,3.577-2.684,4.294
		c-0.299,0.061-0.568,0.09-0.805,0.09c-1.194,0-2.416-0.953-3.668-2.863c-0.12-0.236-0.181-0.506-0.181-0.805
		c0-1.789,1.073-3.042,3.222-3.758c0.895,0,1.772,0.283,2.639,0.852C82.98,138.934,83.472,139.665,83.593,140.558z"/>
	<path fill="none" stroke="#8A1002" stroke-width="17" d="M201.409,154.693c-0.895,5.429-2.923,10.438-6.083,15.029
		c-3.281,4.831-7.38,8.558-12.301,11.183c-4.92,2.623-10.512,3.936-16.773,3.936c-7.873,0-14.642-1.938-20.308-5.812
		c-6.204-4.234-10.587-9.869-13.15-16.906c-2.026-5.605-3.042-12.703-3.042-21.291c0-3.76,0.253-9.438,0.762-17.043
		c0.506-7.604,0.76-13.226,0.76-16.863c0-3.696-0.181-7.006-0.537-9.93h70.673V154.693L201.409,154.693z M198.994,100.124H133.42
		c0.537,3.279,0.807,7.037,0.807,11.271c0,3.341-0.239,8.471-0.717,15.389c-0.479,6.92-0.716,12.047-0.716,15.387
		c0,8.229,1.042,15,3.131,20.309c2.624,6.561,7.099,11.688,13.421,15.387c4.771,2.803,10.347,4.204,16.729,4.204
		c5.368,0,10.302-1.028,14.806-3.086c4.502-2.058,8.396-5.323,11.676-9.796c3.042-4.174,5.1-8.768,6.173-13.775L198.994,100.124z
		 M194.879,138.679c0.237,1.969,0.358,3.907,0.358,5.815c0,14.192-5.07,24.062-15.208,29.608c-1.252,0.716-2.923,1.399-5.01,2.06
		c-1.73,0.596-3.489,1.162-5.278,1.698c-0.239-0.118-0.329-0.356-0.269-0.716c0-0.479,0-0.746,0-0.807
		c10.675-2.861,17.354-7.573,20.039-14.135c2.622-4.89,3.936-11.15,3.936-18.787c0-1.487,0-3.068,0-4.74L194.879,138.679
		L194.879,138.679z"/>
	<path fill="none" stroke="#8A1002" stroke-width="17" d="M244.44,185.288h-36.68l0.27-89.102h36.41V185.288L244.44,185.288z
		 M241.666,182.694V98.782h-31.398v83.912H241.666z M227.531,104.685h-10.917c-0.296,5.13-0.444,12.942-0.444,23.438
		c0,10.556-0.148,18.397-0.445,23.525h-0.807l-0.356-48.574c2.979-0.119,7.305,0.028,12.972,0.445L227.531,104.685L227.531,104.685z
		"/>
	<path fill="none" stroke="#8A1002" stroke-width="17" d="M346.958,98.245l-34.173,58.863l14.671,0.27l0.536,27.375l-74.698,0.27
		c0.118-0.418,0.029-0.896-0.269-1.434h-0.896c3.16-6.262,7.844-14.611,14.045-25.049c7.1-12.045,11.898-20.396,14.403-25.049
		l-30.059-0.447V96.725h96.438L346.958,98.245L346.958,98.245z M342.716,99.674h-89.688v30.863h30.868l1.517,1.072
		c-0.773,1.373-5.785,9.782-15.029,25.229c-6.084,10.199-10.913,18.697-14.49,25.496h68.258v-21.916
		c-1.071-0.061-2.916-0.061-5.533,0c-2.381,0.06-4.226,0.06-5.532,0c-1.966-0.115-3.688-0.377-5.178-0.783
		C315.539,146.272,327.143,126.286,342.716,99.674z M298.383,178.219h-34.891l14.045-24.6l1.074,0.268
		c-1.016,2.863-2.924,6.619-5.726,11.271c-3.343,5.485-5.487,9.215-6.441,11.184c3.579,0.298,8.915,0.432,16.014,0.402
		c7.099-0.031,12.403,0.104,15.925,0.4V178.219L298.383,178.219z M334.792,103.522l-13.327,23.527l-1.074-0.358
		c3.279-6.767,7.186-13.741,11.719-20.931l-0.805-0.807h-22.275v-1.434L334.792,103.522L334.792,103.522z"/>
</g>
<g enable-background="new    ">
	<path fill="none" stroke="#E30613" stroke-width="17" d="M119.532,162.594l-15.1,12.9l-7.7-8.602
		c-8.467,5.466-18.2,8.199-29.2,8.199c-7.067,0-13.367-1.301-18.9-3.899c-7.065-3.334-13.167-8.134-18.3-14.397
		c-5.334-6.533-8.667-13.467-10-20.801c-0.535-3.199-0.8-6.365-0.8-9.5c0-13.602,4.866-25.332,14.6-35.201
		c9.066-9.2,20.635-13.801,34.7-13.801c6.866,0,13.3,1.301,19.3,3.9c8.268,3.6,15.333,9.334,21.2,17.199
		c5.533,7.468,8.3,16.635,8.3,27.5c0,9.801-2.232,18.533-6.698,26.199C112.998,154.495,115.865,157.928,119.532,162.594z
		 M115.232,161.706l-7.7-8.5c0-1.733,0.733-4.035,2.2-6.9c1.731-3.135,2.731-5.436,3-6.9c1.398-4,2.1-8.27,2.1-12.802
		c0-9.534-2.867-18.472-8.6-26.806c-4.2-6.064-9.769-10.833-16.7-14.301c-6.667-3.266-13.767-4.899-21.3-4.899
		c-7.937,0-15.167,1.836-21.7,5.506c-7.4,4.072-13.267,9.692-17.6,16.869c-4.334,7.175-6.469,14.897-6.4,23.175
		c0.066,8.811,2.332,16.919,6.795,24.326c4.73,7.811,11.062,13.445,18.988,16.919c5.33,3.202,11.625,4.806,18.887,4.806
		c11.062,0,21.021-3.188,29.88-9.556l7.939,8.563L115.232,161.706z M66.332,86.995c-7.6,1.067-14.435,3.635-20.5,7.7
		c-6.867,4.601-11.367,10.3-13.5,17.101c-0.467,1.334-0.898,2.636-1.3,3.899c-0.534,1.468-0.8,2.8-0.8,4h-1.8
		c1.133-6.933,4.031-13.333,8.698-19.2c4.866-6.133,10.566-10.23,17.102-12.3c4.8-1.532,8.833-2.365,12.1-2.5V86.995z
		 M72.232,126.895c-0.2,2.4-1.2,4-3,4.8c-0.334,0.067-0.634,0.101-0.9,0.101c-1.334,0-2.7-1.064-4.1-3.198
		c-0.134-0.267-0.2-0.563-0.2-0.899c0-2,1.2-3.398,3.6-4.199c1,0,1.983,0.315,2.95,0.949
		C71.548,125.081,72.098,125.895,72.232,126.895z"/>
	<path fill="none" stroke="#E30613" stroke-width="17" d="M203.93,142.695c-1,6.067-3.269,11.667-6.801,16.8
		c-3.667,5.4-8.25,9.566-13.75,12.5c-5.5,2.936-11.75,4.4-18.75,4.4c-8.8,0-16.365-2.167-22.698-6.5
		c-6.936-4.734-11.834-11.034-14.7-18.9c-2.269-6.266-3.4-14.199-3.4-23.8c0-4.2,0.283-10.55,0.852-19.05
		c0.564-8.5,0.85-14.783,0.85-18.85c0-4.133-0.2-7.833-0.6-11.101h79L203.93,142.695L203.93,142.695z M201.231,81.695h-73.3
		c0.6,3.667,0.898,7.867,0.898,12.601c0,3.734-0.268,9.467-0.8,17.199c-0.534,7.734-0.8,13.469-0.8,17.2
		c0,9.2,1.166,16.769,3.5,22.7c2.933,7.333,7.933,13.064,15,17.199c5.333,3.134,11.563,4.701,18.7,4.701
		c6,0,11.516-1.15,16.55-3.451c5.033-2.299,9.383-5.949,13.05-10.949c3.399-4.666,5.7-9.801,6.899-15.4L201.231,81.695z
		 M196.631,124.795c0.268,2.199,0.399,4.367,0.399,6.5c0,15.867-5.667,26.897-17,33.1c-1.4,0.8-3.267,1.564-5.6,2.3
		c-1.936,0.666-3.9,1.3-5.9,1.899c-0.267-0.135-0.367-0.399-0.3-0.799c0-0.535,0-0.836,0-0.9c11.933-3.2,19.398-8.467,22.398-15.801
		c2.935-5.465,4.4-12.465,4.4-21c0-1.666,0-3.432,0-5.299H196.631L196.631,124.795z"/>
	<path fill="none" stroke="#E30613" stroke-width="17" d="M252.03,176.895h-41l0.301-99.6h40.699V176.895z M248.93,173.995v-93.8
		H213.83v93.8H248.93z M233.13,86.795h-12.201c-0.331,5.734-0.497,14.467-0.497,26.2c0,11.801-0.167,20.566-0.5,26.301h-0.9
		l-0.399-54.3c3.333-0.133,8.165,0.035,14.5,0.5L233.13,86.795L233.13,86.795z"/>
	<path fill="none" stroke="#E30613" stroke-width="17" d="M366.631,79.595l-38.199,65.8l16.396,0.3l0.604,30.601l-83.501,0.302
		c0.133-0.47,0.03-1-0.302-1.603h-1c3.532-7,8.768-16.334,15.699-28c7.936-13.465,13.301-22.8,16.103-28l-33.603-0.5v-40.6h107.803
		V79.595z M361.885,81.195H261.629v34.5h34.504l1.695,1.2c-0.867,1.534-6.467,10.936-16.8,28.199c-6.8,11.4-12.2,20.9-16.2,28.5
		h76.303v-24.5c-1.197-0.064-3.262-0.064-6.186,0c-2.662,0.068-4.725,0.068-6.188,0c-2.195-0.127-4.123-0.42-5.785-0.875
		C331.51,133.284,344.479,110.94,361.885,81.195z M312.328,168.995h-39l15.7-27.5l1.2,0.301c-1.135,3.199-3.27,7.399-6.4,12.602
		c-3.732,6.133-6.134,10.301-7.199,12.5c4,0.333,9.967,0.48,17.899,0.45c7.934-0.034,13.866,0.114,17.8,0.448V168.995z
		 M353.03,85.495l-14.898,26.3l-1.199-0.401c3.664-7.562,8.031-15.36,13.1-23.395l-0.898-0.903h-24.9v-1.601H353.03z"/>
</g>
<path fill="#FFE121" d="M117.693,124.545c0,16.309-8.263,30.688-20.833,39.18c-7.541,5.096-16.632,8.07-26.417,8.07
	c-26.095,0-47.25-21.154-47.25-47.25c0-26.098,21.155-47.25,47.25-47.25S117.693,98.448,117.693,124.545z"/>
<polyline fill="#FFE121" points="104.4,173.396 118.232,161.896 110.401,152.208 94.9,156.895 "/>
<path fill="#FFE121" d="M127.9,78.896v61.5c0,0,2.25,33,23.5,33c11.512,0,49.5,2,51-28.5s0-66,0-66"/>
<polyline fill="#FFE121" points="213.4,78.896 213.4,175.896 250.4,175.896 250.4,78.896 "/>
<polyline fill="#FFE121" points="261.9,78.896 364.4,81.396 326.4,146.896 342.4,146.896 343.9,173.401 261.9,175.896 
	297.4,118.896 261.9,117.896 "/>
<g enable-background="new    ">
	<path stroke="#000000" stroke-width="3" d="M120.443,162.647l-15.102,12.898l-7.699-8.602c-8.469,5.469-18.2,8.201-29.2,8.201
		c-7.067,0-13.367-1.303-18.9-3.898c-7.065-3.334-13.167-8.137-18.3-14.4c-5.334-6.533-8.667-13.465-10-20.801
		c-0.535-3.199-0.8-6.365-0.8-9.5c0-13.602,4.866-25.332,14.6-35.199c9.066-9.199,20.633-13.8,34.7-13.8
		c6.866,0,13.3,1.301,19.3,3.9c8.268,3.599,15.333,9.333,21.2,17.201c5.532,7.467,8.3,16.633,8.3,27.5
		c0,9.799-2.232,18.533-6.699,26.199C113.907,154.545,116.775,157.979,120.443,162.647z M116.142,161.756l-7.699-8.5
		c0-1.734,0.73-4.035,2.199-6.902c1.731-3.133,2.731-5.434,3-6.9c1.398-4,2.101-8.268,2.101-12.801
		c0-9.535-2.867-18.471-8.601-26.805c-4.199-6.066-9.769-10.834-16.7-14.303c-6.667-3.266-13.769-4.899-21.3-4.899
		c-7.937,0-15.167,1.836-21.7,5.506c-7.4,4.072-13.269,9.693-17.602,16.869c-4.334,7.174-6.467,14.897-6.398,23.174
		c0.064,8.812,2.332,16.921,6.795,24.326c4.729,7.81,11.06,13.446,18.988,16.92c5.33,3.203,11.625,4.806,18.887,4.806
		c11.06,0,21.019-3.187,29.88-9.556l7.938,8.563L116.142,161.756z M67.242,87.045c-7.6,1.068-14.435,3.635-20.5,7.701
		c-6.867,4.6-11.367,10.299-13.5,17.1c-0.467,1.334-0.9,2.635-1.3,3.9c-0.534,1.467-0.8,2.799-0.8,4h-1.802
		c1.135-6.936,4.033-13.334,8.7-19.201c4.866-6.133,10.566-10.232,17.102-12.299c4.8-1.533,8.833-2.365,12.1-2.5V87.045z
		 M73.142,126.946c-0.2,2.4-1.2,4-3,4.801c-0.334,0.066-0.636,0.102-0.9,0.102c-1.334,0-2.7-1.064-4.1-3.199
		c-0.136-0.268-0.2-0.564-0.2-0.898c0-2,1.2-3.4,3.6-4.201c1,0,1.983,0.318,2.95,0.951
		C72.458,125.131,73.008,125.946,73.142,126.946z"/>
	<path stroke="#000000" stroke-width="3" d="M204.84,142.747c-1,6.066-3.267,11.666-6.799,16.799
		c-3.667,5.4-8.251,9.566-13.751,12.5c-5.5,2.936-11.75,4.4-18.75,4.4c-8.799,0-16.367-2.166-22.699-6.5
		c-6.935-4.734-11.834-11.033-14.698-18.9c-2.269-6.266-3.399-14.197-3.399-23.799c0-4.201,0.282-10.551,0.85-19.051
		c0.565-8.5,0.852-14.783,0.852-18.85c0-4.133-0.199-7.833-0.602-11.1h78.999L204.84,142.747L204.84,142.747z M202.141,81.746
		H128.84c0.602,3.667,0.9,7.868,0.9,12.6c0,3.734-0.268,9.467-0.801,17.199c-0.534,7.732-0.8,13.469-0.8,17.201
		c0,9.197,1.165,16.768,3.5,22.697c2.933,7.334,7.933,13.064,15,17.201c5.333,3.133,11.563,4.699,18.698,4.699
		c6,0,11.518-1.15,16.552-3.449c5.03-2.301,9.383-5.951,13.05-10.951c3.397-4.666,5.7-9.799,6.897-15.398L202.141,81.746z
		 M197.541,124.846c0.268,2.199,0.399,4.367,0.399,6.5c0,15.867-5.667,26.9-17,33.1c-1.4,0.801-3.27,1.566-5.602,2.301
		c-1.935,0.666-3.898,1.299-5.898,1.9c-0.27-0.135-0.367-0.4-0.3-0.801c0-0.535,0-0.834,0-0.9
		c11.933-3.199,19.397-8.467,22.397-15.799c2.936-5.467,4.4-12.467,4.4-21c0-1.666,0-3.434,0-5.301H197.541z"/>
	<path stroke="#000000" stroke-width="3" d="M252.94,176.946h-41l0.301-99.599h40.699V176.946z M249.84,174.045V80.246h-35.1v93.799
		H249.84L249.84,174.045z M234.04,86.846h-12.203c-0.331,5.734-0.497,14.467-0.497,26.199c0,11.801-0.167,20.568-0.5,26.301h-0.898
		l-0.399-54.301c3.333-0.133,8.165,0.035,14.5,0.5L234.04,86.846L234.04,86.846z"/>
	<path stroke="#000000" stroke-width="3" d="M367.539,79.646l-38.197,65.799l16.396,0.302l0.604,30.601l-83.503,0.301
		c0.135-0.469,0.032-1-0.3-1.603h-1c3.532-7,8.768-16.334,15.699-28c7.934-13.465,13.301-22.799,16.101-28l-33.601-0.5v-40.6
		h107.801V79.646z M362.797,81.246H262.539v34.5h34.504l1.695,1.197c-0.867,1.535-6.467,10.938-16.8,28.201
		c-6.8,11.396-12.2,20.896-16.2,28.5h76.301v-24.5c-1.195-0.064-3.26-0.064-6.184,0c-2.662,0.064-4.725,0.064-6.188,0
		c-2.195-0.129-4.123-0.422-5.785-0.875C332.42,133.334,345.389,110.991,362.797,81.246z M313.239,169.045h-39l15.7-27.5l1.2,0.301
		c-1.137,3.199-3.27,7.4-6.4,12.6c-3.734,6.133-6.134,10.301-7.199,12.5c4,0.334,9.965,0.482,17.899,0.451
		c7.933-0.035,13.866,0.115,17.8,0.449V169.045z M353.94,85.545l-14.9,26.301l-1.197-0.402c3.664-7.562,8.029-15.359,13.1-23.395
		l-0.898-0.902h-24.9v-1.602H353.94z"/>
</g>
<g>
	<path fill="#FFFFFF" d="M62.346,51.6c-0.44,2.326-1.427,4.511-2.95,6.556c-1.526,2.042-3.376,3.693-5.547,4.951
		c-2.269,1.352-4.941,2.028-8.026,2.028c-3.493,0-6.522-0.803-9.088-2.408c-2.564-1.604-4.541-3.651-5.925-6.137
		c-1.387-2.486-2.077-5.146-2.077-7.978c0-0.473,0.031-0.944,0.095-1.417H44.17l0.378-28.846h17.8L62.346,51.6L62.346,51.6z
		 M61.119,20.001h-15.39l-0.236,28.562h-15.25c0.252,3.998,1.542,7.302,3.872,9.914c3.115,3.525,6.939,5.288,11.472,5.288
		c1.479,0,2.941-0.221,4.393-0.66c2.675-0.786,5.035-2.279,7.082-4.48c2.046-2.202,3.335-4.652,3.871-7.356L61.119,20.001z
		 M58.9,36.855c0,2.896,0,5.776,0,8.64c-0.094,3.336-0.565,6.027-1.416,8.073c-1.039,2.611-2.771,4.595-5.192,5.948
		c-1.574,0.85-3.541,1.464-5.899,1.841v-0.661c2.776-0.882,4.774-1.669,5.992-2.36c2.154-1.228,3.546-2.864,4.171-4.91
		c1.027-1.763,1.545-4.296,1.545-7.601c0-0.597,0-1.471,0-2.62s0-2.006,0-2.573c0-1.479,0.076-2.738,0.234-3.777H58.9z"/>
	<path fill="#FFFFFF" d="M58.049,65.087l26.816-46.596c3.398,6.075,7.521,13.77,12.369,23.086l12.134,23.37L58.049,65.087z
		 M106.938,63.577L84.864,21.524L60.5,63.671L106.938,63.577z M86.14,46.959c0.094,0.755-0.032,1.433-0.378,2.03
		c-0.409,0.693-0.991,1.039-1.747,1.039c-0.944,0-1.668-0.503-2.174-1.511c-0.094-0.598-0.047-1.18,0.145-1.747
		c0.251-0.691,0.677-1.116,1.272-1.274c0.188-0.031,0.38-0.047,0.566-0.047C84.802,45.448,85.574,45.952,86.14,46.959z
		 M103.041,61.311L93.363,61.5v-0.614l8.073-0.236c-0.349-1.133-1.117-2.785-2.312-4.957c-1.26-2.297-2.077-4.013-2.455-5.146
		l0.565-0.331L103.041,61.311z"/>
	<path fill="#FFFFFF" d="M149.26,65.276h-39.277V18.349l22.048,24.645l0.426-24.739h16.809L149.26,65.276L149.26,65.276z
		 M148.08,63.907V19.86h-14.443l-0.189,26.627c-3.021-3.065-6.752-7.079-11.188-12.04c-3.714-4.14-7.41-8.264-11.094-12.372v41.832
		H148.08z M144.775,60.225h-12.32v-0.614c1.445-0.158,3.319-0.236,5.617-0.236h5.713l0.378-13.785h0.425L144.775,60.225z"/>
	<path fill="#FFFFFF" d="M220.832,50.013c-1.229,3.592-3.523,6.757-6.894,9.499c-3.369,2.74-6.925,4.395-10.67,4.962
		c-1.322,0.188-2.629,0.283-3.919,0.283c-4.249,0-8.167-1.04-11.755-3.119c-3.59-2.08-6.47-4.994-8.642-8.743
		c-1.889-3.245-2.832-7.058-2.832-11.437c0-3.938,0.802-7.373,2.406-10.303c2.142-3.906,5.06-6.994,8.758-9.263
		c3.697-2.269,7.72-3.403,12.062-3.403c3.87,0,7.488,0.882,10.856,2.646c3.368,1.765,6.121,4.237,8.262,7.419
		c2.707,3.97,4.062,8.428,4.062,13.374C222.531,44.894,221.964,47.587,220.832,50.013z M220.076,47.869
		c0.598-1.955,0.896-3.989,0.896-6.104c0-4.668-1.309-8.879-3.919-12.633c-4.438-6.275-11.062-9.32-19.875-9.131
		c-3.968,0.474-7.617,1.972-10.953,4.495c-3.398,2.619-5.823,5.804-7.271,9.557c-0.913,2.397-1.369,4.938-1.369,7.618
		c0,5.804,1.855,10.709,5.569,14.715c4.374,4.667,9.694,7.002,15.958,7.002c1.572,0,3.162-0.157,4.769-0.473
		c3.619-0.757,6.939-2.548,9.961-5.37C216.866,54.722,218.943,51.497,220.076,47.869z M201.003,41.86
		c-0.095,1.133-0.583,1.904-1.464,2.313c-0.126,0.032-0.27,0.047-0.426,0.047c-0.599,0-1.243-0.503-1.936-1.511
		c-0.032-0.157-0.049-0.314-0.049-0.473c0-0.912,0.551-1.573,1.652-1.982c0.502,0,0.975,0.158,1.416,0.472
		C200.64,41.042,200.909,41.419,201.003,41.86z M217.054,48.375c-0.852,3.557-3.037,6.515-6.562,8.875
		c-3.084,2.045-6.595,3.289-10.527,3.73v-0.85c3.777-0.535,7.112-1.746,10.011-3.635c3.365-2.172,5.521-4.925,6.468-8.262
		C216.472,48.328,216.676,48.375,217.054,48.375z"/>
	<path fill="#FFFFFF" d="M260.535,64.898h-36.068l0.236-46.549h18.032l0.236,31.584l0.329,0.425h17.231L260.535,64.898
		L260.535,64.898z M259.212,63.53V51.727h-17.274l-0.429-0.424V19.954H225.93V63.53H259.212z M233.153,61.311h-4.814l0.188-11.425
		h0.426l0.188,10.34l4.013,0.329L233.153,61.311L233.153,61.311z"/>
	<path fill="#FFFFFF" d="M259.261,65.087l26.813-46.596c3.398,6.075,7.521,13.77,12.369,23.086l12.134,23.37L259.261,65.087z
		 M308.15,63.577l-22.074-42.053L261.71,63.671L308.15,63.577z M287.351,46.959c0.094,0.755-0.032,1.433-0.378,2.03
		c-0.409,0.693-0.991,1.039-1.747,1.039c-0.942,0-1.668-0.503-2.171-1.511c-0.097-0.598-0.05-1.18,0.142-1.747
		c0.252-0.691,0.677-1.116,1.274-1.274c0.188-0.031,0.378-0.047,0.564-0.047C286.013,45.448,286.785,45.952,287.351,46.959z
		 M304.252,61.311l-9.68,0.189v-0.614l8.074-0.236c-0.349-1.133-1.118-2.785-2.313-4.957c-1.26-2.297-2.076-4.013-2.454-5.146
		l0.565-0.331L304.252,61.311z"/>
	<path fill="#FFFFFF" d="M341.407,18.349l-26.769,46.408l-24.032-46.408H341.407z M338.82,19.718h-45.907l21.854,41.893
		C316.752,58.241,324.768,44.278,338.82,19.718z M308.36,22.598h-10.009l0.021,0.791l6.218,11.387l-0.378,0.381
		c-1.104-1.542-2.361-3.619-3.778-6.232c-1.166-2.171-2.331-4.343-3.497-6.515l0.234-0.661h11.188L308.36,22.598L308.36,22.598z"/>
	<path fill="#FFFFFF" d="M365.107,54.701c-0.66,2.266-1.842,4.327-3.541,6.185c-1.826,1.983-3.826,3.242-5.998,3.777
		c-1.322,0.314-2.645,0.472-3.967,0.472c-3.147,0-6.043-0.944-8.688-2.834c-2.833-2.047-4.423-4.582-4.769-7.604l8.124-8.116
		c-3.146-3.146-5.225-5.476-6.23-6.987c-1.889-2.801-2.708-5.648-2.455-8.544c0.222-2.77,1.301-5.351,3.233-7.743
		c1.938-2.391,4.229-3.949,6.87-4.674c1.289-0.346,2.58-0.519,3.871-0.519c4.374,0,8.01,1.81,10.904,5.429
		c1.291,1.574,2.028,2.975,2.221,4.202l-8.451,8.545c3.021,2.77,5.162,5.036,6.42,6.799c1.951,2.738,2.928,5.46,2.928,8.167
		C365.579,52.388,365.423,53.537,365.107,54.701z M364.163,51.066c0-2.675-1.086-5.351-3.258-8.026
		c-0.815-1.039-2.989-3.241-6.516-6.609c0.942-1.258,2.329-2.801,4.154-4.627c2.801-2.769,4.312-4.264,4.53-4.484
		c-0.504-0.881-1.008-1.763-1.511-2.644c-0.631-1.007-1.339-1.81-2.124-2.408c-2.268-1.73-4.928-2.597-7.979-2.597
		c-2.487,0-4.705,0.614-6.656,1.841c-1.794,1.133-3.229,2.714-4.297,4.745c-1.069,2.031-1.604,4.131-1.604,6.303
		c0,2.486,1.085,5.021,3.257,7.601c2.047,2.077,4.094,4.155,6.141,6.232l-7.935,8.12c-0.22,0.377-0.33,0.755-0.33,1.132
		c0,0.693,0.301,1.479,0.896,2.361c0.566,0.724,1.133,1.447,1.699,2.172c2.581,2.329,5.603,3.493,9.062,3.493
		c1.951,0,3.792-0.409,5.522-1.228c2.078-0.913,3.762-2.486,5.053-4.721C363.532,55.615,364.163,53.396,364.163,51.066z
		 M360.01,26.989c-0.475,0.566-0.944,1.133-1.416,1.7c-0.661,0.692-1.263,0.991-1.794,0.896c0-0.375,0.377-0.875,1.133-1.5
		c0.755-0.625,1.133-1.094,1.133-1.407c0-0.375-0.268-0.735-0.802-1.079c-2.896-1.938-5.382-2.907-7.46-2.907
		c-0.881,0-1.716,0.142-2.502,0.425c0.312-0.691,1.133-1.086,2.455-1.18C355.509,22.158,358.594,23.842,360.01,26.989z
		 M360.905,52.058c0.094-0.252,0.145-0.52,0.145-0.803c0-0.409-0.148-0.968-0.447-1.676c-0.301-0.708-0.449-1.204-0.449-1.487
		c0-0.314,0.095-0.598,0.283-0.85c0.85,1.102,1.275,2.376,1.275,3.824c0,2.108-0.898,4.469-2.691,7.081
		c-0.692,0.724-1.59,1.353-2.691,1.889c-0.125,0.062-1.115,0.44-2.974,1.133c-0.126-0.033-0.206-0.095-0.236-0.189
		c0-0.063,0-0.158,0-0.283c0.063-0.126,0.098-0.221,0.098-0.284c1.963-0.347,3.654-1.338,5.082-2.974
		C359.654,55.897,360.524,54.104,360.905,52.058z"/>
</g>
</svg>
