<?xml version="1.0" encoding="utf-8"?>
<!-- Generator: Adobe Illustrator 16.0.0, SVG Export Plug-In . SVG Version: 6.00 Build 0)  -->
<!DOCTYPE svg PUBLIC "-//W3C//DTD SVG 1.1//EN" "http://www.w3.org/Graphics/SVG/1.1/DTD/svg11.dtd">
<svg version="1.1" id="Lager_1" xmlns="http://www.w3.org/2000/svg" xmlns:xlink="http://www.w3.org/1999/xlink" x="0px" y="0px"
	 width="389.981px" height="220.489px" viewBox="0 0 389.981 220.489" enable-background="new 0 0 389.981 220.489"
	 xml:space="preserve">
<g>
	<path fill="#010202" d="M61.233,34.229l-15.504,0.772l-0.232,27.896h-15.93c0,0,2,16.533,15.833,16.859
		s16.127-12.696,15.833-13.861s-0.115-30.894-0.115-30.894"/>
	<polyline fill="#010202" points="83.709,35.5 59.733,79.062 107.4,79.757 85.067,35.5 	"/>
	<polyline fill="#010202" points="109.981,35.5 132.733,59.062 133.634,34.86 148.08,34.86 149.26,80.276 109.981,80.276 	"/>
	<circle fill="#010202" cx="199.517" cy="56.563" r="22.45"/>
	<polyline fill="#010202" points="224.699,34.113 242.5,34.113 242.5,65.562 259.212,66.727 259.212,78.53 224.699,79.014 	"/>
	<polygon fill="#010202" points="287.035,35.211 260.535,79.014 308.15,78.577 	"/>
	<polyline fill="#010202" points="291.567,33.491 315.624,78.05 340.967,34.113 	"/>
	<path fill="#010202" d="M364.4,41.69c0,0-8.86-12.962-18.333-6.479s-9.54,15.23-4.659,19.685s6.122,7.286,6.122,7.286l-8.856,6.987
		c0,0,4.727,12.464,14.394,9.846s11.609-8.801,11.333-11.285s0.167-7.546-3.666-10.94s-5.167-5.394-5.167-5.394"/>
</g>
<text transform="matrix(1 0 0 1 35.7319 182.3955)" fill="#681300" stroke="#8A1002" stroke-width="17" font-family="'PacFont'" font-size="89.4596">QUIZ</text>
<text transform="matrix(1 0 0 1 18.7324 171.895)" fill="#CC2017" stroke="#E30613" stroke-width="17" font-family="'PacFont'" font-size="100">QUIZ</text>
<path fill="#FFE121" d="M118.232,141.146c0,16.31-8.263,30.689-20.833,39.181c-7.541,5.095-16.632,8.069-26.417,8.069
	c-26.095,0-47.25-21.154-47.25-47.25s21.155-47.25,47.25-47.25S118.232,115.05,118.232,141.146z"/>
<polyline fill="#FFE121" points="104.4,188.396 118.232,176.896 110.401,167.207 94.9,171.895 "/>
<path fill="#FFE121" d="M127.9,93.896v61.5c0,0,2.25,33,23.5,33c11.511,0,49.5,2,51-28.5s0-66,0-66"/>
<polyline fill="#FFE121" points="213.4,93.896 213.4,190.896 250.4,190.896 250.4,93.896 "/>
<polyline fill="#FFE121" points="261.9,93.896 364.4,96.396 326.4,161.896 342.4,161.896 343.9,188.401 261.9,190.896 
	297.4,133.896 261.9,132.896 "/>
<text transform="matrix(1 0 0 1 18.7324 171.895)" stroke="#000000" stroke-width="3" font-family="'PacFont'" font-size="100">QUIZ</text>
<g>
	<path fill="#FFFFFF" d="M62.346,66.6c-0.44,2.326-1.425,4.511-2.95,6.556c-1.527,2.042-3.376,3.693-5.547,4.951
		c-2.267,1.352-4.942,2.028-8.026,2.028c-3.494,0-6.523-0.803-9.088-2.408c-2.565-1.604-4.541-3.651-5.925-6.137
		c-1.385-2.486-2.077-5.146-2.077-7.978c0-0.473,0.031-0.944,0.094-1.417H44.17l0.378-28.846h17.798V66.6z M61.119,35.001h-15.39
		l-0.237,28.562H30.243c0.252,3.998,1.542,7.302,3.872,9.914c3.116,3.525,6.94,5.288,11.472,5.288c1.479,0,2.942-0.221,4.391-0.66
		c2.675-0.786,5.035-2.279,7.082-4.48c2.046-2.202,3.335-4.652,3.871-7.356L61.119,35.001z M58.9,51.855c0,2.896,0,5.776,0,8.64
		c-0.094,3.336-0.566,6.027-1.416,8.073c-1.039,2.611-2.771,4.595-5.193,5.948c-1.574,0.85-3.541,1.464-5.901,1.841v-0.661
		c2.778-0.882,4.776-1.669,5.994-2.36c2.154-1.228,3.544-2.864,4.169-4.91c1.029-1.763,1.545-4.296,1.545-7.601
		c0-0.597,0-1.471,0-2.62s0-2.006,0-2.573c0-1.479,0.078-2.738,0.236-3.777H58.9z"/>
	<path fill="#FFFFFF" d="M58.049,80.087l26.816-46.596c3.399,6.075,7.522,13.77,12.37,23.086l12.133,23.37L58.049,80.087z
		 M106.938,78.577L84.864,36.524L60.5,78.671L106.938,78.577z M86.14,61.959c0.094,0.755-0.032,1.433-0.378,2.03
		c-0.409,0.693-0.991,1.039-1.747,1.039c-0.944,0-1.668-0.503-2.172-1.511c-0.094-0.598-0.047-1.18,0.143-1.747
		c0.251-0.691,0.676-1.116,1.274-1.274c0.188-0.031,0.378-0.047,0.566-0.047C84.802,60.448,85.574,60.952,86.14,61.959z
		 M103.041,76.311L93.363,76.5v-0.614l8.073-0.236c-0.347-1.133-1.117-2.785-2.313-4.957c-1.259-2.297-2.077-4.013-2.455-5.146
		l0.566-0.331L103.041,76.311z"/>
	<path fill="#FFFFFF" d="M149.26,80.276h-39.279V33.349l22.048,24.645l0.425-24.739h16.807V80.276z M148.08,78.907V34.86h-14.445
		l-0.189,26.627c-3.021-3.065-6.752-7.079-11.189-12.04c-3.714-4.14-7.412-8.264-11.094-12.372v41.832H148.08z M144.775,75.225
		h-12.321v-0.614c1.446-0.158,3.32-0.236,5.618-0.236h5.712l0.378-13.785h0.425L144.775,75.225z"/>
	<path fill="#FFFFFF" d="M220.832,65.013c-1.228,3.592-3.525,6.757-6.893,9.499c-3.369,2.74-6.925,4.395-10.67,4.962
		c-1.322,0.188-2.629,0.283-3.919,0.283c-4.249,0-8.167-1.04-11.755-3.119c-3.588-2.08-6.468-4.994-8.64-8.743
		c-1.888-3.245-2.832-7.058-2.832-11.437c0-3.938,0.802-7.373,2.407-10.303c2.141-3.906,5.059-6.994,8.757-9.263
		s7.72-3.403,12.062-3.403c3.871,0,7.49,0.882,10.858,2.647s6.121,4.237,8.262,7.419c2.707,3.97,4.061,8.428,4.061,13.374
		C222.531,59.894,221.964,62.587,220.832,65.013z M220.076,62.869c0.598-1.955,0.897-3.989,0.897-6.104
		c0-4.668-1.307-8.879-3.919-12.633c-4.438-6.275-11.062-9.32-19.875-9.131c-3.966,0.474-7.617,1.972-10.953,4.495
		c-3.399,2.619-5.823,5.804-7.271,9.557c-0.913,2.397-1.369,4.937-1.369,7.618c0,5.804,1.856,10.709,5.57,14.715
		c4.374,4.667,9.694,7.002,15.958,7.002c1.572,0,3.162-0.157,4.768-0.473c3.619-0.757,6.94-2.548,9.961-5.37
		C216.866,69.722,218.943,66.497,220.076,62.869z M201.003,56.86c-0.095,1.133-0.583,1.904-1.464,2.313
		c-0.126,0.032-0.269,0.047-0.425,0.047c-0.599,0-1.244-0.503-1.936-1.511c-0.032-0.157-0.047-0.314-0.047-0.473
		c0-0.912,0.549-1.573,1.652-1.982c0.502,0,0.975,0.158,1.416,0.472C200.64,56.042,200.909,56.419,201.003,56.86z M217.054,63.375
		c-0.85,3.557-3.037,6.515-6.562,8.875c-3.084,2.045-6.594,3.289-10.527,3.73V75.13c3.777-0.535,7.112-1.746,10.009-3.635
		c3.367-2.172,5.522-4.925,6.468-8.262C216.472,63.328,216.676,63.375,217.054,63.375z"/>
	<path fill="#FFFFFF" d="M260.535,79.898h-36.068l0.236-46.549h18.033l0.236,31.584l0.331,0.425h17.231V79.898z M259.212,78.53
		V66.727h-17.276l-0.427-0.424V34.954h-15.58V78.53H259.212z M233.153,76.311h-4.815l0.188-11.425h0.425l0.189,10.34l4.013,0.329
		V76.311z"/>
	<path fill="#FFFFFF" d="M259.261,80.087l26.815-46.596c3.399,6.075,7.522,13.77,12.37,23.086l12.134,23.37L259.261,80.087z
		 M308.15,78.577l-22.075-42.053L261.71,78.671L308.15,78.577z M287.351,61.959c0.094,0.755-0.032,1.433-0.378,2.03
		c-0.409,0.693-0.991,1.039-1.747,1.039c-0.943,0-1.668-0.503-2.171-1.511c-0.095-0.598-0.048-1.18,0.142-1.747
		c0.251-0.691,0.676-1.116,1.274-1.274c0.188-0.031,0.378-0.047,0.566-0.047C286.013,60.448,286.785,60.952,287.351,61.959z
		 M304.251,76.311l-9.678,0.189v-0.614l8.074-0.236c-0.348-1.133-1.118-2.785-2.314-4.957c-1.259-2.297-2.077-4.013-2.455-5.146
		l0.567-0.331L304.251,76.311z"/>
	<path fill="#FFFFFF" d="M341.408,33.349l-26.769,46.408l-24.032-46.408H341.408z M338.82,34.718h-45.908l21.854,41.893
		C316.75,73.241,324.768,59.278,338.82,34.718z M308.36,37.598h-10.009l0.022,0.791l6.216,11.387l-0.378,0.381
		c-1.103-1.542-2.362-3.619-3.779-6.232c-1.166-2.171-2.331-4.343-3.497-6.515l0.236-0.661h11.188V37.598z"/>
	<path fill="#FFFFFF" d="M365.107,69.701c-0.66,2.266-1.842,4.327-3.541,6.185c-1.826,1.983-3.826,3.242-5.998,3.777
		c-1.322,0.314-2.645,0.472-3.967,0.472c-3.147,0-6.043-0.944-8.688-2.834c-2.833-2.047-4.423-4.582-4.769-7.604l8.124-8.116
		c-3.146-3.146-5.225-5.476-6.23-6.987c-1.889-2.801-2.708-5.648-2.455-8.544c0.219-2.77,1.298-5.351,3.233-7.743
		c1.936-2.391,4.226-3.949,6.87-4.674c1.289-0.346,2.58-0.519,3.871-0.519c4.374,0,8.01,1.81,10.904,5.429
		c1.291,1.574,2.031,2.975,2.221,4.202l-8.451,8.545c3.021,2.77,5.162,5.036,6.42,6.799c1.951,2.738,2.928,5.46,2.928,8.167
		C365.58,67.388,365.421,68.537,365.107,69.701z M364.164,66.066c0-2.675-1.086-5.351-3.258-8.026
		c-0.818-1.039-2.99-3.241-6.516-6.609c0.944-1.258,2.329-2.801,4.154-4.627c2.801-2.769,4.312-4.264,4.533-4.484
		c-0.504-0.881-1.008-1.763-1.511-2.644c-0.631-1.007-1.339-1.81-2.124-2.408c-2.268-1.73-4.928-2.597-7.979-2.597
		c-2.487,0-4.705,0.614-6.656,1.841c-1.794,1.133-3.228,2.714-4.297,4.745s-1.604,4.131-1.604,6.303
		c0,2.486,1.085,5.021,3.257,7.601c2.046,2.077,4.091,4.155,6.138,6.232l-7.932,8.12c-0.22,0.377-0.33,0.755-0.33,1.132
		c0,0.693,0.298,1.479,0.896,2.361c0.567,0.724,1.133,1.447,1.699,2.172c2.581,2.329,5.603,3.493,9.065,3.493
		c1.951,0,3.792-0.409,5.522-1.228c2.078-0.913,3.762-2.486,5.053-4.721C363.533,70.615,364.164,68.396,364.164,66.066z
		 M360.008,41.989c-0.472,0.566-0.944,1.133-1.416,1.7c-0.661,0.692-1.26,0.991-1.794,0.896c0-0.375,0.377-0.875,1.133-1.5
		c0.755-0.625,1.133-1.094,1.133-1.407c0-0.375-0.268-0.735-0.802-1.079c-2.896-1.938-5.382-2.907-7.46-2.907
		c-0.881,0-1.716,0.142-2.502,0.425c0.314-0.691,1.133-1.086,2.455-1.18C355.507,37.158,358.592,38.842,360.008,41.989z
		 M360.905,67.058c0.094-0.252,0.142-0.52,0.142-0.803c0-0.409-0.148-0.968-0.447-1.676c-0.301-0.708-0.449-1.204-0.449-1.487
		c0-0.314,0.095-0.598,0.283-0.85c0.85,1.102,1.275,2.376,1.275,3.824c0,2.108-0.898,4.469-2.691,7.081
		c-0.692,0.724-1.59,1.353-2.691,1.889c-0.125,0.062-1.117,0.44-2.974,1.133c-0.126-0.033-0.206-0.095-0.236-0.189
		c0-0.063,0-0.158,0-0.283c0.063-0.126,0.095-0.221,0.095-0.284c1.963-0.347,3.657-1.338,5.082-2.974
		C359.654,70.897,360.524,69.104,360.905,67.058z"/>
</g>
</svg>
