<?xml version="1.0" encoding="utf-8"?>
<!-- Generator: Adobe Illustrator 16.0.0, SVG Export Plug-In . SVG Version: 6.00 Build 0)  -->
<!DOCTYPE svg PUBLIC "-//W3C//DTD SVG 1.1//EN" "http://www.w3.org/Graphics/SVG/1.1/DTD/svg11.dtd">
<svg version="1.1" id="Lager_1" xmlns="http://www.w3.org/2000/svg" xmlns:xlink="http://www.w3.org/1999/xlink" x="0px" y="0px"
	 width="389.98px" height="220.489px" viewBox="0 0 389.98 220.489" enable-background="new 0 0 389.98 220.489"
	 xml:space="preserve">
<g>
	<path fill="#010202" d="M61.233,34.229l-15.504,0.772l-0.231,27.896H29.567c0,0,2,16.533,15.833,16.859
		c13.833,0.326,16.127-12.696,15.833-13.861s-0.114-30.894-0.114-30.894"/>
	<polyline fill="#010202" points="83.709,35.5 59.733,79.062 107.4,79.757 85.067,35.5 	"/>
	<polyline fill="#010202" points="109.981,35.5 132.733,59.062 133.634,34.86 148.08,34.86 149.26,80.276 109.981,80.276 	"/>
	<circle fill="#010202" cx="199.517" cy="56.563" r="22.45"/>
	<polyline fill="#010202" points="224.699,34.113 242.5,34.113 242.5,65.562 259.212,66.727 259.212,78.53 224.699,79.014 	"/>
	<polygon fill="#010202" points="287.035,35.211 260.535,79.014 308.15,78.577 	"/>
	<polyline fill="#010202" points="291.567,33.491 315.623,78.05 340.968,34.113 	"/>
	<path fill="#010202" d="M364.4,41.69c0,0-8.86-12.962-18.333-6.479s-9.54,15.23-4.659,19.685s6.122,7.286,6.122,7.286l-8.854,6.987
		c0,0,4.727,12.464,14.394,9.846c9.667-2.618,11.609-8.801,11.333-11.285c-0.274-2.484,0.167-7.546-3.666-10.94
		s-5.167-5.394-5.167-5.394"/>
</g>
<g enable-background="new    ">
	<path fill="none" stroke="#8A1002" stroke-width="17" d="M125.907,187.497l-13.508,11.539l-6.89-7.693
		c-7.574,4.891-16.28,7.336-26.121,7.336c-6.322,0-11.958-1.162-16.908-3.488c-6.322-2.982-11.779-7.277-16.371-12.883
		c-4.772-5.844-7.754-12.047-8.946-18.607c-0.478-2.861-0.715-5.693-0.715-8.498c0-12.166,4.353-22.662,13.061-31.49
		c8.11-8.229,18.458-12.346,31.042-12.346c6.143,0,11.898,1.163,17.267,3.489c7.395,3.222,13.717,8.351,18.965,15.388
		c4.95,6.68,7.425,14.881,7.425,24.602c0,8.768-1.999,16.58-5.994,23.438C120.061,180.249,122.626,183.32,125.907,187.497z
		 M122.06,186.7l-6.89-7.605c0-1.551,0.656-3.608,1.969-6.174c1.55-2.803,2.444-4.859,2.684-6.172
		c1.252-3.578,1.879-7.396,1.879-11.453c0-8.528-2.564-16.522-7.693-23.979c-3.757-5.426-8.737-9.691-14.939-12.794
		c-5.964-2.922-12.316-4.384-19.055-4.384c-7.099,0-13.569,1.643-19.413,4.926c-6.62,3.643-11.869,8.672-15.745,15.092
		c-3.877,6.418-5.786,13.329-5.727,20.731c0.06,7.881,2.085,15.136,6.079,21.763c4.231,6.984,9.895,12.029,16.986,15.135
		c4.768,2.866,10.398,4.299,16.896,4.299c9.895,0,18.804-2.851,26.73-8.547l7.102,7.662L122.06,186.7z M78.315,119.864
		c-6.799,0.955-12.913,3.252-18.339,6.889c-6.145,4.115-10.169,9.215-12.077,15.297c-0.418,1.195-0.805,2.357-1.163,3.49
		c-0.479,1.312-0.715,2.504-0.715,3.578h-1.61c1.013-6.203,3.607-11.928,7.783-17.177c4.353-5.485,9.452-9.153,15.298-11.004
		c4.294-1.371,7.902-2.116,10.825-2.235v1.162H78.315z M83.593,155.558c-0.179,2.147-1.072,3.577-2.684,4.294
		c-0.299,0.061-0.568,0.09-0.805,0.09c-1.194,0-2.416-0.953-3.668-2.863c-0.12-0.236-0.18-0.506-0.18-0.805
		c0-1.789,1.073-3.042,3.221-3.758c0.895,0,1.773,0.283,2.639,0.852C82.98,153.934,83.472,154.665,83.593,155.558z"/>
	<path fill="none" stroke="#8A1002" stroke-width="17" d="M201.409,169.693c-0.895,5.429-2.923,10.438-6.083,15.029
		c-3.281,4.831-7.38,8.558-12.301,11.183c-4.92,2.623-10.512,3.936-16.773,3.936c-7.873,0-14.642-1.938-20.308-5.813
		c-6.204-4.235-10.587-9.87-13.15-16.907c-2.027-5.605-3.042-12.703-3.042-21.291c0-3.759,0.253-9.438,0.761-17.043
		c0.506-7.604,0.76-13.225,0.76-16.863c0-3.696-0.18-7.006-0.537-9.93h70.673L201.409,169.693L201.409,169.693z M198.994,115.124
		H133.42c0.537,3.279,0.806,7.037,0.806,11.271c0,3.341-0.239,8.47-0.716,15.388c-0.479,6.92-0.716,12.047-0.716,15.387
		c0,8.23,1.042,15,3.131,20.309c2.624,6.561,7.098,11.688,13.42,15.387c4.771,2.803,10.347,4.204,16.729,4.204
		c5.368,0,10.302-1.028,14.806-3.086c4.502-2.058,8.395-5.323,11.675-9.796c3.042-4.174,5.1-8.768,6.173-13.775L198.994,115.124z
		 M194.879,153.679c0.237,1.969,0.358,3.907,0.358,5.815c0,14.193-5.07,24.063-15.208,29.609c-1.252,0.716-2.923,1.4-5.01,2.059
		c-1.73,0.596-3.489,1.162-5.278,1.699c-0.239-0.119-0.329-0.357-0.269-0.716c0-0.478,0-0.746,0-0.806
		c10.675-2.862,17.354-7.574,20.039-14.135c2.623-4.89,3.936-11.151,3.936-18.787c0-1.488,0-3.069,0-4.74L194.879,153.679
		L194.879,153.679z"/>
	<path fill="none" stroke="#8A1002" stroke-width="17" d="M244.44,200.288h-36.68l0.27-89.102h36.41V200.288L244.44,200.288z
		 M241.666,197.694v-83.912h-31.399v83.912H241.666z M227.531,119.685h-10.917c-0.296,5.13-0.444,12.942-0.444,23.438
		c0,10.556-0.149,18.398-0.446,23.526h-0.806l-0.357-48.575c2.98-0.119,7.305,0.029,12.972,0.446L227.531,119.685L227.531,119.685z"
		/>
	<path fill="none" stroke="#8A1002" stroke-width="17" d="M346.958,113.245l-34.173,58.863l14.671,0.27l0.536,27.375l-74.698,0.269
		c0.118-0.418,0.029-0.896-0.269-1.433h-0.896c3.16-6.262,7.843-14.612,14.045-25.049c7.099-12.045,11.898-20.396,14.403-25.049
		l-30.059-0.447v-36.319h96.438L346.958,113.245L346.958,113.245z M342.715,114.674h-89.688v30.863h30.868l1.517,1.073
		c-0.774,1.373-5.785,9.782-15.029,25.228c-6.084,10.199-10.914,18.697-14.491,25.496h68.258v-21.916
		c-1.071-0.06-2.916-0.06-5.533,0c-2.381,0.06-4.226,0.06-5.533,0c-1.965-0.115-3.688-0.377-5.177-0.783
		C315.539,161.272,327.143,141.286,342.715,114.674z M298.383,193.219h-34.891l14.045-24.6l1.074,0.268
		c-1.016,2.863-2.924,6.619-5.726,11.271c-3.342,5.486-5.487,9.215-6.441,11.184c3.579,0.298,8.915,0.432,16.014,0.402
		c7.098-0.031,12.403,0.104,15.925,0.401V193.219L298.383,193.219z M334.792,118.522l-13.328,23.527l-1.074-0.358
		c3.279-6.767,7.186-13.741,11.719-20.931l-0.805-0.807h-22.275v-1.433L334.792,118.522L334.792,118.522z"/>
</g>
<g enable-background="new    ">
	<path fill="none" stroke="#E30613" stroke-width="17" d="M119.532,177.594l-15.1,12.9l-7.7-8.601c-8.467,5.466-18.2,8.2-29.2,8.2
		c-7.067,0-13.367-1.301-18.9-3.9c-7.066-3.334-13.167-8.134-18.3-14.398c-5.334-6.533-8.667-13.467-10-20.801
		c-0.535-3.199-0.8-6.365-0.8-9.5c0-13.601,4.866-25.332,14.6-35.2c9.066-9.2,20.634-13.801,34.7-13.801
		c6.866,0,13.3,1.301,19.3,3.9c8.267,3.6,15.333,9.334,21.2,17.2c5.533,7.467,8.3,16.634,8.3,27.5c0,9.8-2.233,18.533-6.699,26.199
		C112.998,169.495,115.865,172.928,119.532,177.594z M115.232,176.706l-7.7-8.5c0-1.734,0.733-4.035,2.2-6.901
		c1.732-3.134,2.732-5.435,3-6.9c1.399-4,2.1-8.269,2.1-12.802c0-9.534-2.867-18.471-8.6-26.805
		c-4.2-6.065-9.768-10.833-16.7-14.302c-6.667-3.266-13.767-4.899-21.3-4.899c-7.936,0-15.167,1.836-21.7,5.506
		c-7.4,4.072-13.267,9.693-17.6,16.869c-4.334,7.175-6.468,14.898-6.4,23.175c0.066,8.81,2.332,16.919,6.795,24.326
		c4.73,7.81,11.061,13.446,18.988,16.919c5.33,3.203,11.625,4.805,18.887,4.805c11.061,0,21.02-3.186,29.88-9.555l7.939,8.564
		L115.232,176.706z M66.332,101.995c-7.6,1.067-14.435,3.635-20.5,7.7c-6.867,4.601-11.367,10.3-13.5,17.101
		c-0.467,1.334-0.899,2.635-1.3,3.899c-0.534,1.468-0.8,2.8-0.8,4h-1.8c1.133-6.933,4.032-13.333,8.699-19.2
		c4.866-6.133,10.566-10.231,17.101-12.3c4.8-1.532,8.833-2.365,12.1-2.5V101.995z M72.232,141.895c-0.2,2.4-1.2,4-3,4.8
		c-0.334,0.067-0.634,0.101-0.9,0.101c-1.334,0-2.7-1.065-4.1-3.199c-0.134-0.266-0.2-0.564-0.2-0.9c0-2,1.2-3.398,3.6-4.199
		c1,0,1.983,0.316,2.95,0.949C71.548,140.081,72.098,140.895,72.232,141.895z"/>
	<path fill="none" stroke="#E30613" stroke-width="17" d="M203.93,157.695c-1,6.067-3.268,11.667-6.8,16.8
		c-3.667,5.4-8.25,9.566-13.75,12.5c-5.5,2.935-11.75,4.4-18.75,4.4c-8.8,0-16.366-2.167-22.699-6.5
		c-6.935-4.734-11.834-11.034-14.7-18.9c-2.268-6.266-3.4-14.199-3.4-23.8c0-4.2,0.283-10.55,0.851-19.05
		c0.565-8.5,0.85-14.783,0.85-18.85c0-4.133-0.2-7.833-0.6-11.101h79L203.93,157.695L203.93,157.695z M201.231,96.695h-73.3
		c0.6,3.667,0.899,7.867,0.899,12.601c0,3.734-0.268,9.467-0.8,17.199c-0.534,7.734-0.8,13.469-0.8,17.2
		c0,9.2,1.166,16.769,3.5,22.7c2.933,7.333,7.933,13.064,15,17.199c5.333,3.134,11.564,4.701,18.7,4.701
		c6,0,11.516-1.15,16.55-3.451c5.033-2.299,9.383-5.949,13.05-10.949c3.399-4.666,5.7-9.801,6.899-15.4L201.231,96.695z
		 M196.631,139.795c0.267,2.199,0.399,4.367,0.399,6.5c0,15.867-5.667,26.898-17,33.1c-1.4,0.8-3.267,1.564-5.6,2.3
		c-1.935,0.666-3.9,1.3-5.9,1.899c-0.267-0.135-0.367-0.399-0.3-0.799c0-0.535,0-0.836,0-0.9c11.933-3.2,19.399-8.467,22.399-15.801
		c2.934-5.465,4.4-12.465,4.4-21c0-1.666,0-3.432,0-5.299H196.631z"/>
	<path fill="none" stroke="#E30613" stroke-width="17" d="M252.03,191.895h-41l0.301-99.6h40.699V191.895z M248.93,188.995v-93.8
		H213.83v93.8H248.93z M233.13,101.795h-12.202c-0.331,5.734-0.497,14.467-0.497,26.2c0,11.801-0.167,20.566-0.5,26.301h-0.9
		l-0.399-54.301c3.333-0.133,8.165,0.035,14.5,0.5L233.13,101.795L233.13,101.795z"/>
	<path fill="none" stroke="#E30613" stroke-width="17" d="M366.63,94.595l-38.199,65.8l16.397,0.3l0.603,30.601l-83.501,0.301
		c0.133-0.469,0.031-1-0.301-1.602h-1c3.532-7,8.767-16.334,15.699-28c7.935-13.465,13.301-22.8,16.102-28l-33.602-0.5v-40.6H366.63
		V94.595z M361.885,96.195H261.629v34.5h34.504l1.695,1.2c-0.867,1.534-6.467,10.936-16.8,28.199c-6.8,11.4-12.2,20.9-16.2,28.5
		h76.302v-24.5c-1.197-0.064-3.261-0.064-6.185,0c-2.662,0.068-4.725,0.068-6.188,0c-2.195-0.127-4.123-0.42-5.785-0.875
		C331.509,148.284,344.479,125.94,361.885,96.195z M312.328,183.995h-39l15.7-27.5l1.2,0.301c-1.135,3.199-3.269,7.399-6.4,12.601
		c-3.733,6.133-6.134,10.3-7.199,12.5c4,0.333,9.966,0.481,17.899,0.45c7.934-0.034,13.866,0.115,17.8,0.449V183.995z
		 M353.03,100.495l-14.899,26.3l-1.199-0.401c3.664-7.562,8.031-15.36,13.1-23.395l-0.899-0.903h-24.9v-1.601H353.03z"/>
</g>
<path fill="#FFE121" d="M117.693,139.545c0,16.309-8.263,30.688-20.833,39.18c-7.541,5.096-16.632,8.07-26.417,8.07
	c-26.095,0-47.25-21.154-47.25-47.25c0-26.098,21.155-47.25,47.25-47.25S117.693,113.448,117.693,139.545z"/>
<polyline fill="#FFE121" points="104.4,188.396 118.232,176.896 110.401,167.208 94.9,171.895 "/>
<path fill="#FFE121" d="M127.9,93.896v61.5c0,0,2.25,33,23.5,33c11.512,0,49.5,2,51-28.5s0-66,0-66"/>
<polyline fill="#FFE121" points="213.4,93.896 213.4,190.896 250.4,190.896 250.4,93.896 "/>
<polyline fill="#FFE121" points="261.9,93.896 364.4,96.396 326.4,161.896 342.4,161.896 343.9,188.401 261.9,190.896 
	297.4,133.896 261.9,132.896 "/>
<g enable-background="new    ">
	<path stroke="#000000" stroke-width="3" d="M120.443,177.647l-15.101,12.898l-7.7-8.601c-8.468,5.468-18.2,8.201-29.2,8.201
		c-7.067,0-13.367-1.302-18.9-3.899c-7.066-3.334-13.167-8.136-18.3-14.4c-5.334-6.533-8.667-13.465-10-20.801
		c-0.535-3.199-0.8-6.365-0.8-9.5c0-13.601,4.866-25.332,14.6-35.199c9.066-9.199,20.633-13.8,34.7-13.8
		c6.866,0,13.3,1.301,19.3,3.9c8.267,3.599,15.333,9.333,21.2,17.201c5.532,7.467,8.3,16.633,8.3,27.5
		c0,9.799-2.233,18.533-6.699,26.199C113.907,169.545,116.775,172.979,120.443,177.647z M116.142,176.756l-7.699-8.5
		c0-1.734,0.731-4.035,2.199-6.902c1.732-3.133,2.732-5.434,3-6.9c1.399-4,2.101-8.268,2.101-12.801
		c0-9.535-2.867-18.471-8.601-26.805c-4.199-6.066-9.768-10.834-16.7-14.303c-6.667-3.266-13.768-4.899-21.3-4.899
		c-7.936,0-15.167,1.836-21.7,5.506c-7.4,4.072-13.268,9.693-17.601,16.869c-4.334,7.174-6.467,14.897-6.399,23.174
		c0.065,8.812,2.332,16.921,6.795,24.326c4.729,7.81,11.06,13.446,18.988,16.92c5.33,3.203,11.625,4.806,18.887,4.806
		c11.06,0,21.019-3.187,29.88-9.556l7.938,8.563L116.142,176.756z M67.242,102.045c-7.6,1.068-14.435,3.635-20.5,7.701
		c-6.867,4.6-11.367,10.299-13.5,17.1c-0.467,1.334-0.9,2.635-1.3,3.9c-0.534,1.467-0.8,2.799-0.8,4h-1.801
		c1.134-6.935,4.033-13.334,8.7-19.201c4.866-6.133,10.566-10.232,17.101-12.299c4.8-1.533,8.833-2.365,12.1-2.5V102.045z
		 M73.142,141.946c-0.2,2.4-1.2,4-3,4.801c-0.334,0.066-0.635,0.101-0.9,0.101c-1.334,0-2.7-1.065-4.1-3.199
		c-0.135-0.267-0.2-0.565-0.2-0.899c0-2,1.2-3.4,3.6-4.201c1,0,1.983,0.318,2.95,0.951
		C72.458,140.131,73.008,140.946,73.142,141.946z"/>
	<path stroke="#000000" stroke-width="3" d="M204.84,157.747c-1,6.066-3.267,11.666-6.799,16.799
		c-3.667,5.4-8.251,9.566-13.751,12.5c-5.5,2.935-11.75,4.4-18.75,4.4c-8.799,0-16.367-2.166-22.699-6.5
		c-6.935-4.734-11.834-11.033-14.699-18.9c-2.268-6.266-3.399-14.198-3.399-23.799c0-4.201,0.282-10.551,0.85-19.051
		c0.565-8.5,0.851-14.783,0.851-18.85c0-4.133-0.199-7.833-0.601-11.1h78.999L204.84,157.747L204.84,157.747z M202.141,96.746
		h-73.301c0.601,3.667,0.9,7.868,0.9,12.6c0,3.734-0.268,9.467-0.801,17.199c-0.534,7.733-0.8,13.469-0.8,17.201
		c0,9.198,1.165,16.768,3.5,22.698c2.933,7.334,7.933,13.065,15,17.201c5.333,3.133,11.564,4.699,18.699,4.699
		c6,0,11.517-1.15,16.551-3.449c5.031-2.301,9.383-5.951,13.05-10.951c3.398-4.666,5.7-9.799,6.898-15.399L202.141,96.746z
		 M197.541,139.846c0.267,2.199,0.399,4.367,0.399,6.5c0,15.867-5.667,26.9-17,33.1c-1.4,0.801-3.269,1.566-5.601,2.301
		c-1.935,0.666-3.899,1.299-5.899,1.9c-0.269-0.135-0.367-0.4-0.3-0.801c0-0.535,0-0.834,0-0.9
		c11.933-3.199,19.398-8.467,22.398-15.799c2.935-5.467,4.4-12.467,4.4-21c0-1.666,0-3.434,0-5.301H197.541z"/>
	<path stroke="#000000" stroke-width="3" d="M252.94,191.946h-41l0.301-99.599h40.699V191.946z M249.84,189.045V95.246h-35.1v93.799
		H249.84L249.84,189.045z M234.04,101.846h-12.203c-0.331,5.734-0.497,14.467-0.497,26.199c0,11.801-0.167,20.568-0.5,26.301h-0.899
		l-0.399-54.301c3.333-0.133,8.165,0.035,14.5,0.5L234.04,101.846L234.04,101.846z"/>
	<path stroke="#000000" stroke-width="3" d="M367.539,94.646l-38.198,65.799l16.397,0.302l0.603,30.6l-83.502,0.301
		c0.134-0.469,0.032-1-0.3-1.602h-1c3.532-7,8.767-16.334,15.699-28c7.934-13.465,13.301-22.799,16.101-28l-33.601-0.5v-40.6
		h107.801V94.646z M362.796,96.246H262.539v34.5h34.504l1.695,1.198c-0.867,1.535-6.467,10.937-16.8,28.201
		c-6.8,11.397-12.2,20.897-16.2,28.5h76.301v-24.5c-1.196-0.065-3.26-0.065-6.184,0c-2.662,0.065-4.725,0.065-6.188,0
		c-2.195-0.129-4.123-0.422-5.785-0.875C332.419,148.334,345.389,125.991,362.796,96.246z M313.239,184.045h-39l15.7-27.5l1.2,0.301
		c-1.136,3.199-3.269,7.4-6.4,12.6c-3.734,6.133-6.134,10.301-7.199,12.5c4,0.334,9.965,0.482,17.899,0.451
		c7.933-0.035,13.866,0.115,17.8,0.449V184.045z M353.94,100.545l-14.9,26.301l-1.198-0.402c3.664-7.562,8.03-15.359,13.1-23.395
		l-0.899-0.902h-24.9v-1.602H353.94z"/>
</g>
<g>
	<path fill="#FFFFFF" d="M62.346,66.6c-0.44,2.326-1.426,4.511-2.95,6.556c-1.526,2.042-3.376,3.693-5.547,4.951
		c-2.268,1.352-4.941,2.028-8.026,2.028c-3.493,0-6.522-0.803-9.088-2.408c-2.564-1.604-4.541-3.651-5.925-6.137
		c-1.386-2.486-2.077-5.146-2.077-7.978c0-0.473,0.031-0.944,0.095-1.417H44.17l0.378-28.846h17.799V66.6z M61.119,35.001h-15.39
		l-0.236,28.562h-15.25c0.252,3.998,1.542,7.302,3.872,9.914c3.115,3.525,6.939,5.288,11.472,5.288c1.479,0,2.941-0.221,4.392-0.66
		c2.675-0.786,5.035-2.279,7.082-4.48c2.046-2.202,3.335-4.652,3.871-7.356L61.119,35.001z M58.9,51.855c0,2.896,0,5.776,0,8.64
		c-0.094,3.336-0.565,6.027-1.416,8.073c-1.039,2.611-2.771,4.595-5.192,5.948c-1.574,0.85-3.541,1.464-5.9,1.841v-0.661
		c2.777-0.882,4.775-1.669,5.993-2.36c2.154-1.228,3.545-2.864,4.17-4.91c1.028-1.763,1.545-4.296,1.545-7.601
		c0-0.597,0-1.471,0-2.62s0-2.006,0-2.573c0-1.479,0.077-2.738,0.235-3.777H58.9z"/>
	<path fill="#FFFFFF" d="M58.049,80.087l26.816-46.596c3.398,6.075,7.521,13.77,12.369,23.086l12.134,23.37L58.049,80.087z
		 M106.938,78.577L84.864,36.524L60.5,78.671L106.938,78.577z M86.14,61.959c0.094,0.755-0.032,1.433-0.378,2.03
		c-0.409,0.693-0.991,1.039-1.747,1.039c-0.944,0-1.668-0.503-2.173-1.511c-0.094-0.598-0.047-1.18,0.144-1.747
		c0.251-0.691,0.677-1.116,1.273-1.274c0.188-0.031,0.379-0.047,0.566-0.047C84.802,60.448,85.574,60.952,86.14,61.959z
		 M103.041,76.311L93.363,76.5v-0.614l8.073-0.236c-0.348-1.133-1.117-2.785-2.312-4.957c-1.26-2.297-2.077-4.013-2.455-5.146
		l0.565-0.331L103.041,76.311z"/>
	<path fill="#FFFFFF" d="M149.26,80.276h-39.278V33.349l22.048,24.645l0.426-24.739h16.808L149.26,80.276L149.26,80.276z
		 M148.08,78.907V34.86h-14.444l-0.189,26.627c-3.021-3.065-6.752-7.079-11.188-12.04c-3.714-4.14-7.411-8.264-11.094-12.372v41.832
		H148.08z M144.775,75.225h-12.32v-0.614c1.445-0.158,3.319-0.236,5.617-0.236h5.713l0.378-13.785h0.425L144.775,75.225z"/>
	<path fill="#FFFFFF" d="M220.832,65.013c-1.229,3.592-3.524,6.757-6.894,9.499c-3.369,2.74-6.925,4.395-10.67,4.962
		c-1.322,0.188-2.629,0.283-3.919,0.283c-4.249,0-8.167-1.04-11.755-3.119c-3.589-2.08-6.469-4.994-8.641-8.743
		c-1.889-3.245-2.832-7.058-2.832-11.437c0-3.938,0.802-7.373,2.406-10.303c2.142-3.906,5.06-6.994,8.758-9.263
		c3.697-2.269,7.72-3.403,12.062-3.403c3.871,0,7.489,0.882,10.857,2.646c3.368,1.765,6.121,4.237,8.262,7.419
		c2.707,3.97,4.062,8.428,4.062,13.374C222.531,59.894,221.964,62.587,220.832,65.013z M220.076,62.869
		c0.598-1.955,0.896-3.989,0.896-6.104c0-4.668-1.308-8.879-3.919-12.633c-4.438-6.275-11.062-9.32-19.875-9.131
		c-3.967,0.474-7.617,1.972-10.953,4.495c-3.398,2.619-5.823,5.804-7.271,9.557c-0.913,2.397-1.369,4.938-1.369,7.618
		c0,5.804,1.855,10.709,5.569,14.715c4.374,4.667,9.694,7.002,15.958,7.002c1.572,0,3.162-0.157,4.769-0.473
		c3.619-0.757,6.939-2.548,9.961-5.37C216.866,69.722,218.943,66.497,220.076,62.869z M201.003,56.86
		c-0.095,1.133-0.583,1.904-1.464,2.313c-0.126,0.032-0.27,0.047-0.426,0.047c-0.599,0-1.243-0.503-1.936-1.511
		c-0.032-0.157-0.048-0.314-0.048-0.473c0-0.912,0.55-1.573,1.652-1.982c0.502,0,0.975,0.158,1.416,0.472
		C200.64,56.042,200.909,56.419,201.003,56.86z M217.054,63.375c-0.851,3.557-3.037,6.515-6.562,8.875
		c-3.084,2.045-6.595,3.289-10.527,3.73v-0.85c3.777-0.535,7.112-1.746,10.01-3.635c3.366-2.172,5.521-4.925,6.468-8.262
		C216.472,63.328,216.676,63.375,217.054,63.375z"/>
	<path fill="#FFFFFF" d="M260.535,79.898h-36.068l0.236-46.549h18.032l0.236,31.584l0.33,0.425h17.231L260.535,79.898
		L260.535,79.898z M259.212,78.53V66.727h-17.275l-0.428-0.424V34.954h-15.579V78.53H259.212z M233.153,76.311h-4.814l0.188-11.425
		h0.426l0.188,10.34l4.013,0.329L233.153,76.311L233.153,76.311z"/>
	<path fill="#FFFFFF" d="M259.261,80.087l26.814-46.596c3.398,6.075,7.521,13.77,12.369,23.086l12.134,23.37L259.261,80.087z
		 M308.15,78.577l-22.074-42.053L261.71,78.671L308.15,78.577z M287.351,61.959c0.094,0.755-0.032,1.433-0.378,2.03
		c-0.409,0.693-0.991,1.039-1.747,1.039c-0.942,0-1.668-0.503-2.171-1.511c-0.096-0.598-0.049-1.18,0.142-1.747
		c0.252-0.691,0.677-1.116,1.274-1.274c0.188-0.031,0.378-0.047,0.565-0.047C286.013,60.448,286.785,60.952,287.351,61.959z
		 M304.252,76.311l-9.68,0.189v-0.614l8.074-0.236c-0.348-1.133-1.118-2.785-2.313-4.957c-1.26-2.297-2.076-4.013-2.454-5.146
		l0.565-0.331L304.252,76.311z"/>
	<path fill="#FFFFFF" d="M341.407,33.349l-26.769,46.408l-24.032-46.408H341.407z M338.82,34.718h-45.907l21.854,41.893
		C316.751,73.241,324.768,59.278,338.82,34.718z M308.36,37.598h-10.009l0.021,0.791l6.218,11.387l-0.378,0.381
		c-1.104-1.542-2.362-3.619-3.779-6.232c-1.166-2.171-2.331-4.343-3.497-6.515l0.235-0.661h11.188L308.36,37.598L308.36,37.598z"/>
	<path fill="#FFFFFF" d="M365.107,69.701c-0.66,2.266-1.842,4.327-3.541,6.185c-1.826,1.983-3.826,3.242-5.998,3.777
		c-1.322,0.314-2.645,0.472-3.967,0.472c-3.147,0-6.043-0.944-8.688-2.834c-2.833-2.047-4.423-4.582-4.769-7.604l8.124-8.116
		c-3.146-3.146-5.225-5.476-6.23-6.987c-1.889-2.801-2.708-5.648-2.455-8.544c0.221-2.77,1.3-5.351,3.233-7.743
		c1.938-2.391,4.228-3.949,6.87-4.674c1.289-0.346,2.58-0.519,3.871-0.519c4.374,0,8.01,1.81,10.904,5.429
		c1.291,1.574,2.029,2.975,2.221,4.202l-8.451,8.545c3.021,2.77,5.162,5.036,6.42,6.799c1.951,2.738,2.928,5.46,2.928,8.167
		C365.579,67.388,365.422,68.537,365.107,69.701z M364.163,66.066c0-2.675-1.086-5.351-3.258-8.026
		c-0.816-1.039-2.989-3.241-6.516-6.609c0.943-1.258,2.329-2.801,4.154-4.627c2.801-2.769,4.312-4.264,4.531-4.484
		c-0.504-0.881-1.008-1.763-1.511-2.644c-0.631-1.007-1.339-1.81-2.124-2.408c-2.268-1.73-4.928-2.597-7.979-2.597
		c-2.487,0-4.705,0.614-6.656,1.841c-1.794,1.133-3.229,2.714-4.297,4.745c-1.069,2.031-1.604,4.131-1.604,6.303
		c0,2.486,1.085,5.021,3.257,7.601c2.047,2.077,4.093,4.155,6.14,6.232l-7.934,8.12c-0.22,0.377-0.33,0.755-0.33,1.132
		c0,0.693,0.3,1.479,0.896,2.361c0.567,0.724,1.133,1.447,1.699,2.172c2.581,2.329,5.603,3.493,9.063,3.493
		c1.951,0,3.792-0.409,5.522-1.228c2.078-0.913,3.762-2.486,5.053-4.721C363.532,70.615,364.163,68.396,364.163,66.066z
		 M360.009,41.989c-0.474,0.566-0.944,1.133-1.416,1.7c-0.661,0.692-1.262,0.991-1.794,0.896c0-0.375,0.377-0.875,1.133-1.5
		c0.755-0.625,1.133-1.094,1.133-1.407c0-0.375-0.268-0.735-0.802-1.079c-2.896-1.938-5.382-2.907-7.46-2.907
		c-0.881,0-1.716,0.142-2.502,0.425c0.312-0.691,1.133-1.086,2.455-1.18C355.508,37.158,358.593,38.842,360.009,41.989z
		 M360.905,67.058c0.094-0.252,0.144-0.52,0.144-0.803c0-0.409-0.148-0.968-0.447-1.676c-0.301-0.708-0.449-1.204-0.449-1.487
		c0-0.314,0.095-0.598,0.283-0.85c0.85,1.102,1.275,2.376,1.275,3.824c0,2.108-0.898,4.469-2.691,7.081
		c-0.692,0.724-1.59,1.353-2.691,1.889c-0.125,0.062-1.116,0.44-2.974,1.133c-0.126-0.033-0.206-0.095-0.236-0.189
		c0-0.063,0-0.158,0-0.283c0.063-0.126,0.097-0.221,0.097-0.284c1.963-0.347,3.655-1.338,5.082-2.974
		C359.654,70.897,360.524,69.104,360.905,67.058z"/>
</g>
</svg>
